<svg width="2016" height="140" viewBox="0 0 2016 140" fill="none" xmlns="http://www.w3.org/2000/svg">
<path d="M655.054 67.1577C654.79 67.7778 653.078 67.7778 652.814 67.1577C650.839 62.7132 651.234 58.062 651.366 53.5142C651.497 49.0698 651.761 44.4186 652.946 40.0775C652.946 39.9742 653.341 39.9742 653.341 40.0775C654.79 44.4186 655.317 49.0698 655.712 53.5142C656.108 58.062 656.766 62.7132 655.054 67.1577Z" fill="#E9DAC6"/>
<path d="M652.946 72.8424C653.21 72.2222 654.922 72.3256 655.185 72.8424C657.161 77.2868 656.766 81.938 656.635 86.4858C656.503 90.9303 656.239 95.5814 655.054 99.9225C655.054 100.026 654.79 100.026 654.659 99.9225C653.21 95.5814 652.683 90.9303 652.288 86.4858C651.892 81.938 651.366 77.3902 652.946 72.8424Z" fill="#E9DAC6"/>
<path d="M650.312 69.5349C650.97 69.6383 650.839 70.6719 650.18 70.7752C645.833 71.7055 641.355 71.3954 637.008 71.1887C632.793 71.0853 628.314 70.7752 624.099 69.9484C623.967 69.9484 623.967 69.7416 624.099 69.7416C628.446 69.0181 632.924 68.9148 637.271 68.8114C641.618 68.7081 646.097 68.398 650.312 69.5349Z" fill="#E9DAC6"/>
<path d="M657.688 70.5686C657.161 70.3619 657.161 69.4316 657.82 69.2249C662.167 68.2947 666.645 68.6048 670.992 68.8115C675.339 69.0182 679.818 69.3283 683.901 70.0518C684.033 70.0518 684.033 70.2585 683.901 70.2585C679.686 70.982 675.076 71.1887 670.861 71.2921C666.382 71.3955 661.903 71.6022 657.688 70.5686Z" fill="#E9DAC6"/>
<path d="M1363.05 67.1577C1362.79 67.7778 1361.08 67.7778 1360.81 67.1577C1358.84 62.7132 1359.23 58.062 1359.37 53.5142C1359.5 49.0698 1359.76 44.4186 1360.95 40.0775C1360.95 39.9742 1361.34 39.9742 1361.34 40.0775C1362.79 44.4186 1363.32 49.0698 1363.71 53.5142C1364.11 58.062 1364.77 62.7132 1363.05 67.1577Z" fill="#E9DAC6"/>
<path d="M1360.95 72.8424C1361.21 72.2222 1362.92 72.3256 1363.19 72.8424C1365.16 77.2868 1364.77 81.938 1364.63 86.4858C1364.5 90.9303 1364.24 95.5814 1363.05 99.9225C1363.05 100.026 1362.79 100.026 1362.66 99.9225C1361.21 95.5814 1360.68 90.9303 1360.29 86.4858C1359.89 81.938 1359.37 77.3902 1360.95 72.8424Z" fill="#E9DAC6"/>
<path d="M1358.31 69.5349C1358.97 69.6383 1358.84 70.6719 1358.18 70.7752C1353.83 71.7055 1349.35 71.3954 1345.01 71.1887C1340.79 71.0853 1336.31 70.7752 1332.1 69.9484C1331.97 69.9484 1331.97 69.7416 1332.1 69.7416C1336.45 69.0181 1340.92 68.9148 1345.27 68.8114C1349.62 68.7081 1354.1 68.398 1358.31 69.5349Z" fill="#E9DAC6"/>
<path d="M1365.69 70.5686C1365.16 70.3619 1365.16 69.4316 1365.82 69.2249C1370.17 68.2947 1374.65 68.6048 1378.99 68.8115C1383.34 69.0182 1387.82 69.3283 1391.9 70.0518C1392.03 70.0518 1392.03 70.2585 1391.9 70.2585C1387.69 70.982 1383.08 71.1887 1378.86 71.2921C1374.38 71.3955 1369.9 71.6022 1365.69 70.5686Z" fill="#E9DAC6"/>
<path d="M75.1 45.7H25.1V38.8H75.1V45.7ZM75.1 57.7H25.1V50.7H75.1V57.7ZM82.4 33.5H18.1V63H82.4V33.5ZM81.4 86.9C78.8 92.5 75.1 97.4 70.6 101.6C66.5 97.4 63.1 92.4 60.8 86.9H81.4ZM21.6 99.7H39.7V105.8C33.5 106.5 27.3 107.1 21.6 107.7V99.7ZM21.6 87.1H39.7V94.1H21.6V87.1ZM39.7 74.8V81.5H21.6V74.8H39.7ZM86 80.8L84.7 81H50.3V86.9H58.9L54.6 88.2C57.3 94.9 61 100.8 65.6 105.8C59.9 110.1 53.4 113.3 46.8 115.3V74.8H93.6V68.6H6.2V74.8H14.8V108.4C11.3 108.8 8.1 109.1 5.3 109.3L6 115.9C15.3 114.8 27.5 113.4 39.7 111.9V121.6H46.8V115.4C48.1 116.7 49.9 119.3 50.7 121C57.7 118.6 64.5 115.2 70.6 110.5C76.5 115.4 83.5 119.2 91.5 121.5C92.4 119.8 94.4 117.1 96 115.7C88.3 113.8 81.5 110.5 75.8 106.1C82.2 99.9 87.4 92.1 90.5 82.6L86 80.8ZM162.3 96.7V106.9H137.7V96.7H162.3ZM168.9 112.4V91.3H131.1V117.4H137.7V112.4H168.9ZM189.3 78.6H111.3V121.6H118.4V84.9H181.9V112.6C181.9 114 181.6 114.5 179.9 114.5C178.1 114.7 172.5 114.7 166.1 114.5C167.1 116.4 168.1 119.4 168.5 121.4C176.8 121.4 182 121.4 185.3 120.3C188.4 119 189.3 116.8 189.3 112.8V78.6ZM169.4 66.9H130.4V57.2H169.4V66.9ZM123.3 51.9V72.3H176.8V51.9H123.3ZM153.2 39.8V30.3H145.7V39.8H106.9V46.3H193.1V39.8H153.2ZM290.8 79C290.8 58.7 275.9 42.2 252.5 42.2C228.1 42.2 208.8 61.2 208.8 82.9C208.8 99.4 217.7 109.6 226.6 109.6C235.9 109.6 243.8 99.1 249.9 78.5C252.7 69.2 254.6 59 255.9 49.7C272.9 51.1 282.6 63.6 282.6 78.7C282.6 96 270 105.5 257.2 108.4C254.9 108.9 251.8 109.4 248.6 109.7L253.3 117.1C277 114 290.8 100 290.8 79ZM216.6 82.2C216.6 68.6 228.4 52.2 247.6 49.8C246.5 59 244.5 68.5 242 76.8C236.9 93.7 231.6 100.4 226.9 100.4C222.4 100.4 216.6 94.8 216.6 82.2ZM377.6 92.7C372.5 96.2 366.4 99.8 361.2 102.4C357.5 99.6 354.5 96.4 352.1 92.7H377.6ZM329 77.8H371.1V86.6H329V77.8ZM329 63.7H371.1V72.1H329V63.7ZM353.5 57.6V47.7H346V57.6H325.4C335.3 51.1 344.1 43.6 349.6 36.9C355.7 44 365.2 51.4 375.1 57.6H353.5ZM383.9 88.2C382.3 89.4 380.4 90.8 378.4 92.2V59.6C382.9 62.2 387.4 64.6 391.7 66.5C393 64.5 394.8 61.8 396.5 60C381 54.2 363.7 42.7 352.8 30.2H345.5C337.5 41.3 320.8 53.8 303.9 61.1C305.5 62.7 307.4 65.4 308.3 67.1C312.8 65 317.4 62.6 321.7 59.9V112.8C317.5 113.2 313.7 113.5 310.4 113.8L311.5 120.7C322.9 119.7 339.2 118.1 354.8 116.4L354.7 109.8L329 112.2V92.7H344.6C353.1 108.6 369 117.9 390.5 121.6C391.5 119.7 393.4 116.7 395 115.2C384 113.6 374.4 110.6 366.7 106.1C374.2 102.3 382.8 97.3 389.5 92.5L383.9 88.2ZM404.7 88.4L412 96C413.6 93.9 415.9 90.7 417.9 88C423 81.8 431.3 70.8 436 65.1C439.4 60.8 441.4 60 445.6 64.8C450.2 69.9 457.9 79.5 464.4 86.8C471.2 94.6 480.2 105 487.8 112.2L494.2 105C485.2 96.9 475.3 86.4 469.2 79.8C462.9 73 455.2 63.1 449.2 56.9C442.6 50.2 437.4 51.2 431.5 58C425.6 65 417.2 76.5 411.9 81.8C409.2 84.6 407.2 86.6 404.7 88.4ZM469.2 46.5L463.5 49C466.8 53.6 470.3 59.9 472.8 65.1L478.7 62.5C476.4 57.7 471.7 50.2 469.2 46.5ZM482.1 41.4L476.5 44C479.9 48.5 483.5 54.6 486.2 59.9L491.9 57.1C489.6 52.4 484.7 44.9 482.1 41.4ZM541.9 81.3L540.9 74.7L529.3 78.3V57.9H539.5V50.7H529.3V30.4H522.4V50.7H514.7C515.4 46.3 516.1 41.7 516.6 37.2L510.1 36.1C508.9 48.3 507 60.9 503.2 69.4C504.8 70 507.6 71.8 508.9 72.7C510.7 68.6 512.1 63.5 513.3 57.9H522.4V80.2C515.4 82.4 509 84.1 503.9 85.5L505.9 92.6C510.8 91.1 516.5 89.3 522.4 87.5V121.7H529.3V85.3L541.9 81.3ZM555.8 47C557.5 42.1 559 37 560.2 31.7L553.4 30.3C550.1 45.4 544.1 59.8 535.9 68.7C537.4 69.7 540.4 71.8 541.6 73C545.9 67.9 549.7 61.3 553 54H561.6C557 70 548.1 86.7 537.5 95C539.6 96.1 542 97.8 543.4 99.3C554.3 89.8 563.5 71.1 568 54H576.2C571 79.1 560.2 103.7 543.8 115.5C546 116.6 548.6 118.4 550 120C566.6 106.8 577.6 80.2 582.6 54H587.4C585.4 93.6 583.2 108.4 580 111.9C578.9 113.2 577.9 113.6 576.3 113.6C574.3 113.6 570.3 113.5 565.8 113.1C567.1 115.1 567.8 118.2 567.9 120.4C572.3 120.7 576.6 120.8 579.3 120.4C582.3 120.1 584.3 119.2 586.2 116.6C590.2 111.6 592.4 96.1 594.6 50.8C594.7 49.9 594.7 47 594.7 47H555.8Z" fill="#E9DAC6"/>
<path d="M783.1 45.7H733.1V38.8H783.1V45.7ZM783.1 57.7H733.1V50.7H783.1V57.7ZM790.4 33.5H726.1V63H790.4V33.5ZM789.4 86.9C786.8 92.5 783.1 97.4 778.6 101.6C774.5 97.4 771.1 92.4 768.8 86.9H789.4ZM729.6 99.7H747.7V105.8C741.5 106.5 735.3 107.1 729.6 107.7V99.7ZM729.6 87.1H747.7V94.1H729.6V87.1ZM747.7 74.8V81.5H729.6V74.8H747.7ZM794 80.8L792.7 81H758.3V86.9H766.9L762.6 88.2C765.3 94.9 769 100.8 773.6 105.8C767.9 110.1 761.4 113.3 754.8 115.3V74.8H801.6V68.6H714.2V74.8H722.8V108.4C719.3 108.8 716.1 109.1 713.3 109.3L714 115.9C723.3 114.8 735.5 113.4 747.7 111.9V121.6H754.8V115.4C756.1 116.7 757.9 119.3 758.7 121C765.7 118.6 772.5 115.2 778.6 110.5C784.5 115.4 791.5 119.2 799.5 121.5C800.4 119.8 802.4 117.1 804 115.7C796.3 113.8 789.5 110.5 783.8 106.1C790.2 99.9 795.4 92.1 798.5 82.6L794 80.8ZM870.3 96.7V106.9H845.7V96.7H870.3ZM876.9 112.4V91.3H839.1V117.4H845.7V112.4H876.9ZM897.3 78.6H819.3V121.6H826.4V84.9H889.9V112.6C889.9 114 889.6 114.5 887.9 114.5C886.1 114.7 880.5 114.7 874.1 114.5C875.1 116.4 876.1 119.4 876.5 121.4C884.8 121.4 890 121.4 893.3 120.3C896.4 119 897.3 116.8 897.3 112.8V78.6ZM877.4 66.9H838.4V57.2H877.4V66.9ZM831.3 51.9V72.3H884.8V51.9H831.3ZM861.2 39.8V30.3H853.7V39.8H814.9V46.3H901.1V39.8H861.2ZM998.8 79C998.8 58.7 983.9 42.2 960.5 42.2C936.1 42.2 916.8 61.2 916.8 82.9C916.8 99.4 925.7 109.6 934.6 109.6C943.9 109.6 951.8 99.1 957.9 78.5C960.7 69.2 962.6 59 963.9 49.7C980.9 51.1 990.6 63.6 990.6 78.7C990.6 96 978 105.5 965.2 108.4C962.9 108.9 959.8 109.4 956.6 109.7L961.3 117.1C985 114 998.8 100 998.8 79ZM924.6 82.2C924.6 68.6 936.4 52.2 955.6 49.8C954.5 59 952.5 68.5 950 76.8C944.9 93.7 939.6 100.4 934.9 100.4C930.4 100.4 924.6 94.8 924.6 82.2ZM1085.6 92.7C1080.5 96.2 1074.4 99.8 1069.2 102.4C1065.5 99.6 1062.5 96.4 1060.1 92.7H1085.6ZM1037 77.8H1079.1V86.6H1037V77.8ZM1037 63.7H1079.1V72.1H1037V63.7ZM1061.5 57.6V47.7H1054V57.6H1033.4C1043.3 51.1 1052.1 43.6 1057.6 36.9C1063.7 44 1073.2 51.4 1083.1 57.6H1061.5ZM1091.9 88.2C1090.3 89.4 1088.4 90.8 1086.4 92.2V59.6C1090.9 62.2 1095.4 64.6 1099.7 66.5C1101 64.5 1102.8 61.8 1104.5 60C1089 54.2 1071.7 42.7 1060.8 30.2H1053.5C1045.5 41.3 1028.8 53.8 1011.9 61.1C1013.5 62.7 1015.4 65.4 1016.3 67.1C1020.8 65 1025.4 62.6 1029.7 59.9V112.8C1025.5 113.2 1021.7 113.5 1018.4 113.8L1019.5 120.7C1030.9 119.7 1047.2 118.1 1062.8 116.4L1062.7 109.8L1037 112.2V92.7H1052.6C1061.1 108.6 1077 117.9 1098.5 121.6C1099.5 119.7 1101.4 116.7 1103 115.2C1092 113.6 1082.4 110.6 1074.7 106.1C1082.2 102.3 1090.8 97.3 1097.5 92.5L1091.9 88.2ZM1112.7 88.4L1120 96C1121.6 93.9 1123.9 90.7 1125.9 88C1131 81.8 1139.3 70.8 1144 65.1C1147.4 60.8 1149.4 60 1153.6 64.8C1158.2 69.9 1165.9 79.5 1172.4 86.8C1179.2 94.6 1188.2 105 1195.8 112.2L1202.2 105C1193.2 96.9 1183.3 86.4 1177.2 79.8C1170.9 73 1163.2 63.1 1157.2 56.9C1150.6 50.2 1145.4 51.2 1139.5 58C1133.6 65 1125.2 76.5 1119.9 81.8C1117.2 84.6 1115.2 86.6 1112.7 88.4ZM1177.2 46.5L1171.5 49C1174.8 53.6 1178.3 59.9 1180.8 65.1L1186.7 62.5C1184.4 57.7 1179.7 50.2 1177.2 46.5ZM1190.1 41.4L1184.5 44C1187.9 48.5 1191.5 54.6 1194.2 59.9L1199.9 57.1C1197.6 52.4 1192.7 44.9 1190.1 41.4ZM1249.9 81.3L1248.9 74.7L1237.3 78.3V57.9H1247.5V50.7H1237.3V30.4H1230.4V50.7H1222.7C1223.4 46.3 1224.1 41.7 1224.6 37.2L1218.1 36.1C1216.9 48.3 1215 60.9 1211.2 69.4C1212.8 70 1215.6 71.8 1216.9 72.7C1218.7 68.6 1220.1 63.5 1221.3 57.9H1230.4V80.2C1223.4 82.4 1217 84.1 1211.9 85.5L1213.9 92.6C1218.8 91.1 1224.5 89.3 1230.4 87.5V121.7H1237.3V85.3L1249.9 81.3ZM1263.8 47C1265.5 42.1 1267 37 1268.2 31.7L1261.4 30.3C1258.1 45.4 1252.1 59.8 1243.9 68.7C1245.4 69.7 1248.4 71.8 1249.6 73C1253.9 67.9 1257.7 61.3 1261 54H1269.6C1265 70 1256.1 86.7 1245.5 95C1247.6 96.1 1250 97.8 1251.4 99.3C1262.3 89.8 1271.5 71.1 1276 54H1284.2C1279 79.1 1268.2 103.7 1251.8 115.5C1254 116.6 1256.6 118.4 1258 120C1274.6 106.8 1285.6 80.2 1290.6 54H1295.4C1293.4 93.6 1291.2 108.4 1288 111.9C1286.9 113.2 1285.9 113.6 1284.3 113.6C1282.3 113.6 1278.3 113.5 1273.8 113.1C1275.1 115.1 1275.8 118.2 1275.9 120.4C1280.3 120.7 1284.6 120.8 1287.3 120.4C1290.3 120.1 1292.3 119.2 1294.2 116.6C1298.2 111.6 1300.4 96.1 1302.6 50.8C1302.7 49.9 1302.7 47 1302.7 47H1263.8Z" fill="#E9DAC6"/>
<path d="M1491.1 45.7H1441.1V38.8H1491.1V45.7ZM1491.1 57.7H1441.1V50.7H1491.1V57.7ZM1498.4 33.5H1434.1V63H1498.4V33.5ZM1497.4 86.9C1494.8 92.5 1491.1 97.4 1486.6 101.6C1482.5 97.4 1479.1 92.4 1476.8 86.9H1497.4ZM1437.6 99.7H1455.7V105.8C1449.5 106.5 1443.3 107.1 1437.6 107.7V99.7ZM1437.6 87.1H1455.7V94.1H1437.6V87.1ZM1455.7 74.8V81.5H1437.6V74.8H1455.7ZM1502 80.8L1500.7 81H1466.3V86.9H1474.9L1470.6 88.2C1473.3 94.9 1477 100.8 1481.6 105.8C1475.9 110.1 1469.4 113.3 1462.8 115.3V74.8H1509.6V68.6H1422.2V74.8H1430.8V108.4C1427.3 108.8 1424.1 109.1 1421.3 109.3L1422 115.9C1431.3 114.8 1443.5 113.4 1455.7 111.9V121.6H1462.8V115.4C1464.1 116.7 1465.9 119.3 1466.7 121C1473.7 118.6 1480.5 115.2 1486.6 110.5C1492.5 115.4 1499.5 119.2 1507.5 121.5C1508.4 119.8 1510.4 117.1 1512 115.7C1504.3 113.8 1497.5 110.5 1491.8 106.1C1498.2 99.9 1503.4 92.1 1506.5 82.6L1502 80.8ZM1578.3 96.7V106.9H1553.7V96.7H1578.3ZM1584.9 112.4V91.3H1547.1V117.4H1553.7V112.4H1584.9ZM1605.3 78.6H1527.3V121.6H1534.4V84.9H1597.9V112.6C1597.9 114 1597.6 114.5 1595.9 114.5C1594.1 114.7 1588.5 114.7 1582.1 114.5C1583.1 116.4 1584.1 119.4 1584.5 121.4C1592.8 121.4 1598 121.4 1601.3 120.3C1604.4 119 1605.3 116.8 1605.3 112.8V78.6ZM1585.4 66.9H1546.4V57.2H1585.4V66.9ZM1539.3 51.9V72.3H1592.8V51.9H1539.3ZM1569.2 39.8V30.3H1561.7V39.8H1522.9V46.3H1609.1V39.8H1569.2ZM1706.8 79C1706.8 58.7 1691.9 42.2 1668.5 42.2C1644.1 42.2 1624.8 61.2 1624.8 82.9C1624.8 99.4 1633.7 109.6 1642.6 109.6C1651.9 109.6 1659.8 99.1 1665.9 78.5C1668.7 69.2 1670.6 59 1671.9 49.7C1688.9 51.1 1698.6 63.6 1698.6 78.7C1698.6 96 1686 105.5 1673.2 108.4C1670.9 108.9 1667.8 109.4 1664.6 109.7L1669.3 117.1C1693 114 1706.8 100 1706.8 79ZM1632.6 82.2C1632.6 68.6 1644.4 52.2 1663.6 49.8C1662.5 59 1660.5 68.5 1658 76.8C1652.9 93.7 1647.6 100.4 1642.9 100.4C1638.4 100.4 1632.6 94.8 1632.6 82.2ZM1793.6 92.7C1788.5 96.2 1782.4 99.8 1777.2 102.4C1773.5 99.6 1770.5 96.4 1768.1 92.7H1793.6ZM1745 77.8H1787.1V86.6H1745V77.8ZM1745 63.7H1787.1V72.1H1745V63.7ZM1769.5 57.6V47.7H1762V57.6H1741.4C1751.3 51.1 1760.1 43.6 1765.6 36.9C1771.7 44 1781.2 51.4 1791.1 57.6H1769.5ZM1799.9 88.2C1798.3 89.4 1796.4 90.8 1794.4 92.2V59.6C1798.9 62.2 1803.4 64.6 1807.7 66.5C1809 64.5 1810.8 61.8 1812.5 60C1797 54.2 1779.7 42.7 1768.8 30.2H1761.5C1753.5 41.3 1736.8 53.8 1719.9 61.1C1721.5 62.7 1723.4 65.4 1724.3 67.1C1728.8 65 1733.4 62.6 1737.7 59.9V112.8C1733.5 113.2 1729.7 113.5 1726.4 113.8L1727.5 120.7C1738.9 119.7 1755.2 118.1 1770.8 116.4L1770.7 109.8L1745 112.2V92.7H1760.6C1769.1 108.6 1785 117.9 1806.5 121.6C1807.5 119.7 1809.4 116.7 1811 115.2C1800 113.6 1790.4 110.6 1782.7 106.1C1790.2 102.3 1798.8 97.3 1805.5 92.5L1799.9 88.2ZM1820.7 88.4L1828 96C1829.6 93.9 1831.9 90.7 1833.9 88C1839 81.8 1847.3 70.8 1852 65.1C1855.4 60.8 1857.4 60 1861.6 64.8C1866.2 69.9 1873.9 79.5 1880.4 86.8C1887.2 94.6 1896.2 105 1903.8 112.2L1910.2 105C1901.2 96.9 1891.3 86.4 1885.2 79.8C1878.9 73 1871.2 63.1 1865.2 56.9C1858.6 50.2 1853.4 51.2 1847.5 58C1841.6 65 1833.2 76.5 1827.9 81.8C1825.2 84.6 1823.2 86.6 1820.7 88.4ZM1885.2 46.5L1879.5 49C1882.8 53.6 1886.3 59.9 1888.8 65.1L1894.7 62.5C1892.4 57.7 1887.7 50.2 1885.2 46.5ZM1898.1 41.4L1892.5 44C1895.9 48.5 1899.5 54.6 1902.2 59.9L1907.9 57.1C1905.6 52.4 1900.7 44.9 1898.1 41.4ZM1957.9 81.3L1956.9 74.7L1945.3 78.3V57.9H1955.5V50.7H1945.3V30.4H1938.4V50.7H1930.7C1931.4 46.3 1932.1 41.7 1932.6 37.2L1926.1 36.1C1924.9 48.3 1923 60.9 1919.2 69.4C1920.8 70 1923.6 71.8 1924.9 72.7C1926.7 68.6 1928.1 63.5 1929.3 57.9H1938.4V80.2C1931.4 82.4 1925 84.1 1919.9 85.5L1921.9 92.6C1926.8 91.1 1932.5 89.3 1938.4 87.5V121.7H1945.3V85.3L1957.9 81.3ZM1971.8 47C1973.5 42.1 1975 37 1976.2 31.7L1969.4 30.3C1966.1 45.4 1960.1 59.8 1951.9 68.7C1953.4 69.7 1956.4 71.8 1957.6 73C1961.9 67.9 1965.7 61.3 1969 54H1977.6C1973 70 1964.1 86.7 1953.5 95C1955.6 96.1 1958 97.8 1959.4 99.3C1970.3 89.8 1979.5 71.1 1984 54H1992.2C1987 79.1 1976.2 103.7 1959.8 115.5C1962 116.6 1964.6 118.4 1966 120C1982.6 106.8 1993.6 80.2 1998.6 54H2003.4C2001.4 93.6 1999.2 108.4 1996 111.9C1994.9 113.2 1993.9 113.6 1992.3 113.6C1990.3 113.6 1986.3 113.5 1981.8 113.1C1983.1 115.1 1983.8 118.2 1983.9 120.4C1988.3 120.7 1992.6 120.8 1995.3 120.4C1998.3 120.1 2000.3 119.2 2002.2 116.6C2006.2 111.6 2008.4 96.1 2010.6 50.8C2010.7 49.9 2010.7 47 2010.7 47H1971.8Z" fill="#E9DAC6"/>
</svg>
