<svg width="1440" height="140" viewBox="0 0 1440 140" fill="none" xmlns="http://www.w3.org/2000/svg">
<path d="M367.054 67.1577C366.79 67.7778 365.078 67.7778 364.814 67.1577C362.839 62.7132 363.234 58.062 363.366 53.5142C363.497 49.0698 363.761 44.4186 364.946 40.0775C364.946 39.9742 365.341 39.9742 365.341 40.0775C366.79 44.4186 367.317 49.0698 367.712 53.5142C368.108 58.062 368.766 62.7132 367.054 67.1577Z" fill="#E9DAC6"/>
<path d="M364.946 72.8424C365.21 72.2222 366.922 72.3256 367.185 72.8424C369.161 77.2868 368.766 81.938 368.635 86.4858C368.503 90.9303 368.239 95.5814 367.054 99.9225C367.054 100.026 366.79 100.026 366.659 99.9225C365.21 95.5814 364.683 90.9303 364.288 86.4858C363.892 81.938 363.366 77.3902 364.946 72.8424Z" fill="#E9DAC6"/>
<path d="M362.312 69.5349C362.97 69.6383 362.839 70.6719 362.18 70.7752C357.833 71.7055 353.355 71.3954 349.008 71.1887C344.793 71.0853 340.314 70.7752 336.099 69.9484C335.967 69.9484 335.967 69.7416 336.099 69.7416C340.446 69.0181 344.924 68.9148 349.271 68.8114C353.618 68.7081 358.097 68.398 362.312 69.5349Z" fill="#E9DAC6"/>
<path d="M369.688 70.5686C369.161 70.3619 369.161 69.4316 369.82 69.2249C374.167 68.2947 378.645 68.6048 382.992 68.8115C387.339 69.0182 391.818 69.3283 395.901 70.0518C396.033 70.0518 396.033 70.2585 395.901 70.2585C391.686 70.982 387.076 71.1887 382.861 71.2921C378.382 71.3955 373.903 71.6022 369.688 70.5686Z" fill="#E9DAC6"/>
<path d="M1075.05 67.1577C1074.79 67.7778 1073.08 67.7778 1072.81 67.1577C1070.84 62.7132 1071.23 58.062 1071.37 53.5142C1071.5 49.0698 1071.76 44.4186 1072.95 40.0775C1072.95 39.9742 1073.34 39.9742 1073.34 40.0775C1074.79 44.4186 1075.32 49.0698 1075.71 53.5142C1076.11 58.062 1076.77 62.7132 1075.05 67.1577Z" fill="#E9DAC6"/>
<path d="M1072.95 72.8424C1073.21 72.2222 1074.92 72.3256 1075.19 72.8424C1077.16 77.2868 1076.77 81.938 1076.63 86.4858C1076.5 90.9303 1076.24 95.5814 1075.05 99.9225C1075.05 100.026 1074.79 100.026 1074.66 99.9225C1073.21 95.5814 1072.68 90.9303 1072.29 86.4858C1071.89 81.938 1071.37 77.3902 1072.95 72.8424Z" fill="#E9DAC6"/>
<path d="M1070.31 69.5349C1070.97 69.6383 1070.84 70.6719 1070.18 70.7752C1065.83 71.7055 1061.35 71.3954 1057.01 71.1887C1052.79 71.0853 1048.31 70.7752 1044.1 69.9484C1043.97 69.9484 1043.97 69.7416 1044.1 69.7416C1048.45 69.0181 1052.92 68.9148 1057.27 68.8114C1061.62 68.7081 1066.1 68.398 1070.31 69.5349Z" fill="#E9DAC6"/>
<path d="M1077.69 70.5686C1077.16 70.3619 1077.16 69.4316 1077.82 69.2249C1082.17 68.2947 1086.65 68.6048 1090.99 68.8115C1095.34 69.0182 1099.82 69.3283 1103.9 70.0518C1104.03 70.0518 1104.03 70.2585 1103.9 70.2585C1099.69 70.982 1095.08 71.1887 1090.86 71.2921C1086.38 71.3955 1081.9 71.6022 1077.69 70.5686Z" fill="#E9DAC6"/>
<path d="M-212.9 45.7H-262.9V38.8H-212.9V45.7ZM-212.9 57.7H-262.9V50.7H-212.9V57.7ZM-205.6 33.5H-269.9V63H-205.6V33.5ZM-206.6 86.9C-209.2 92.5 -212.9 97.4 -217.4 101.6C-221.5 97.4 -224.9 92.4 -227.2 86.9H-206.6ZM-266.4 99.7H-248.3V105.8C-254.5 106.5 -260.7 107.1 -266.4 107.7V99.7ZM-266.4 87.1H-248.3V94.1H-266.4V87.1ZM-248.3 74.8V81.5H-266.4V74.8H-248.3ZM-202 80.8L-203.3 81H-237.7V86.9H-229.1L-233.4 88.2C-230.7 94.9 -227 100.8 -222.4 105.8C-228.1 110.1 -234.6 113.3 -241.2 115.3V74.8H-194.4V68.6H-281.8V74.8H-273.2V108.4C-276.7 108.8 -279.9 109.1 -282.7 109.3L-282 115.9C-272.7 114.8 -260.5 113.4 -248.3 111.9V121.6H-241.2V115.4C-239.9 116.7 -238.1 119.3 -237.3 121C-230.3 118.6 -223.5 115.2 -217.4 110.5C-211.5 115.4 -204.5 119.2 -196.5 121.5C-195.6 119.8 -193.6 117.1 -192 115.7C-199.7 113.8 -206.5 110.5 -212.2 106.1C-205.8 99.9 -200.6 92.1 -197.5 82.6L-202 80.8ZM-125.7 96.7V106.9H-150.3V96.7H-125.7ZM-119.1 112.4V91.3H-156.9V117.4H-150.3V112.4H-119.1ZM-98.7 78.6H-176.7V121.6H-169.6V84.9H-106.1V112.6C-106.1 114 -106.4 114.5 -108.1 114.5C-109.9 114.7 -115.5 114.7 -121.9 114.5C-120.9 116.4 -119.9 119.4 -119.5 121.4C-111.2 121.4 -106 121.4 -102.7 120.3C-99.6 119 -98.7 116.8 -98.7 112.8V78.6ZM-118.6 66.9H-157.6V57.2H-118.6V66.9ZM-164.7 51.9V72.3H-111.2V51.9H-164.7ZM-134.8 39.8V30.3H-142.3V39.8H-181.1V46.3H-94.9V39.8H-134.8ZM2.80001 79C2.80001 58.7 -12.1 42.2 -35.5 42.2C-59.9 42.2 -79.2 61.2 -79.2 82.9C-79.2 99.4 -70.3 109.6 -61.4 109.6C-52.1 109.6 -44.2 99.1 -38.1 78.5C-35.3 69.2 -33.4 59 -32.1 49.7C-15.1 51.1 -5.4 63.6 -5.4 78.7C-5.4 96 -18 105.5 -30.8 108.4C-33.1 108.9 -36.2 109.4 -39.4 109.7L-34.7 117.1C-11 114 2.80001 100 2.80001 79ZM-71.4 82.2C-71.4 68.6 -59.6 52.2 -40.4 49.8C-41.5 59 -43.5 68.5 -46 76.8C-51.1 93.7 -56.4 100.4 -61.1 100.4C-65.6 100.4 -71.4 94.8 -71.4 82.2ZM89.6 92.7C84.5 96.2 78.4 99.8 73.2 102.4C69.5 99.6 66.5 96.4 64.1 92.7H89.6ZM41 77.8H83.1V86.6H41V77.8ZM41 63.7H83.1V72.1H41V63.7ZM65.5 57.6V47.7H58V57.6H37.4C47.3 51.1 56.1 43.6 61.6 36.9C67.7 44 77.2 51.4 87.1 57.6H65.5ZM95.9 88.2C94.3 89.4 92.4 90.8 90.4 92.2V59.6C94.9 62.2 99.4 64.6 103.7 66.5C105 64.5 106.8 61.8 108.5 60C93 54.2 75.7 42.7 64.8 30.2H57.5C49.5 41.3 32.8 53.8 15.9 61.1C17.5 62.7 19.4 65.4 20.3 67.1C24.8 65 29.4 62.6 33.7 59.9V112.8C29.5 113.2 25.7 113.5 22.4 113.8L23.5 120.7C34.9 119.7 51.2 118.1 66.8 116.4L66.7 109.8L41 112.2V92.7H56.6C65.1 108.6 81 117.9 102.5 121.6C103.5 119.7 105.4 116.7 107 115.2C96 113.6 86.4 110.6 78.7 106.1C86.2 102.3 94.8 97.3 101.5 92.5L95.9 88.2ZM116.7 88.4L124 96C125.6 93.9 127.9 90.7 129.9 88C135 81.8 143.3 70.8 148 65.1C151.4 60.8 153.4 60 157.6 64.8C162.2 69.9 169.9 79.5 176.4 86.8C183.2 94.6 192.2 105 199.8 112.2L206.2 105C197.2 96.9 187.3 86.4 181.2 79.8C174.9 73 167.2 63.1 161.2 56.9C154.6 50.2 149.4 51.2 143.5 58C137.6 65 129.2 76.5 123.9 81.8C121.2 84.6 119.2 86.6 116.7 88.4ZM181.2 46.5L175.5 49C178.8 53.6 182.3 59.9 184.8 65.1L190.7 62.5C188.4 57.7 183.7 50.2 181.2 46.5ZM194.1 41.4L188.5 44C191.9 48.5 195.5 54.6 198.2 59.9L203.9 57.1C201.6 52.4 196.7 44.9 194.1 41.4ZM253.9 81.3L252.9 74.7L241.3 78.3V57.9H251.5V50.7H241.3V30.4H234.4V50.7H226.7C227.4 46.3 228.1 41.7 228.6 37.2L222.1 36.1C220.9 48.3 219 60.9 215.2 69.4C216.8 70 219.6 71.8 220.9 72.7C222.7 68.6 224.1 63.5 225.3 57.9H234.4V80.2C227.4 82.4 221 84.1 215.9 85.5L217.9 92.6C222.8 91.1 228.5 89.3 234.4 87.5V121.7H241.3V85.3L253.9 81.3ZM267.8 47C269.5 42.1 271 37 272.2 31.7L265.4 30.3C262.1 45.4 256.1 59.8 247.9 68.7C249.4 69.7 252.4 71.8 253.6 73C257.9 67.9 261.7 61.3 265 54H273.6C269 70 260.1 86.7 249.5 95C251.6 96.1 254 97.8 255.4 99.3C266.3 89.8 275.5 71.1 280 54H288.2C283 79.1 272.2 103.7 255.8 115.5C258 116.6 260.6 118.4 262 120C278.6 106.8 289.6 80.2 294.6 54H299.4C297.4 93.6 295.2 108.4 292 111.9C290.9 113.2 289.9 113.6 288.3 113.6C286.3 113.6 282.3 113.5 277.8 113.1C279.1 115.1 279.8 118.2 279.9 120.4C284.3 120.7 288.6 120.8 291.3 120.4C294.3 120.1 296.3 119.2 298.2 116.6C302.2 111.6 304.4 96.1 306.6 50.8C306.7 49.9 306.7 47 306.7 47H267.8Z" fill="#E9DAC6"/>
<path d="M495.1 45.7H445.1V38.8H495.1V45.7ZM495.1 57.7H445.1V50.7H495.1V57.7ZM502.4 33.5H438.1V63H502.4V33.5ZM501.4 86.9C498.8 92.5 495.1 97.4 490.6 101.6C486.5 97.4 483.1 92.4 480.8 86.9H501.4ZM441.6 99.7H459.7V105.8C453.5 106.5 447.3 107.1 441.6 107.7V99.7ZM441.6 87.1H459.7V94.1H441.6V87.1ZM459.7 74.8V81.5H441.6V74.8H459.7ZM506 80.8L504.7 81H470.3V86.9H478.9L474.6 88.2C477.3 94.9 481 100.8 485.6 105.8C479.9 110.1 473.4 113.3 466.8 115.3V74.8H513.6V68.6H426.2V74.8H434.8V108.4C431.3 108.8 428.1 109.1 425.3 109.3L426 115.9C435.3 114.8 447.5 113.4 459.7 111.9V121.6H466.8V115.4C468.1 116.7 469.9 119.3 470.7 121C477.7 118.6 484.5 115.2 490.6 110.5C496.5 115.4 503.5 119.2 511.5 121.5C512.4 119.8 514.4 117.1 516 115.7C508.3 113.8 501.5 110.5 495.8 106.1C502.2 99.9 507.4 92.1 510.5 82.6L506 80.8ZM582.3 96.7V106.9H557.7V96.7H582.3ZM588.9 112.4V91.3H551.1V117.4H557.7V112.4H588.9ZM609.3 78.6H531.3V121.6H538.4V84.9H601.9V112.6C601.9 114 601.6 114.5 599.9 114.5C598.1 114.7 592.5 114.7 586.1 114.5C587.1 116.4 588.1 119.4 588.5 121.4C596.8 121.4 602 121.4 605.3 120.3C608.4 119 609.3 116.8 609.3 112.8V78.6ZM589.4 66.9H550.4V57.2H589.4V66.9ZM543.3 51.9V72.3H596.8V51.9H543.3ZM573.2 39.8V30.3H565.7V39.8H526.9V46.3H613.1V39.8H573.2ZM710.8 79C710.8 58.7 695.9 42.2 672.5 42.2C648.1 42.2 628.8 61.2 628.8 82.9C628.8 99.4 637.7 109.6 646.6 109.6C655.9 109.6 663.8 99.1 669.9 78.5C672.7 69.2 674.6 59 675.9 49.7C692.9 51.1 702.6 63.6 702.6 78.7C702.6 96 690 105.5 677.2 108.4C674.9 108.9 671.8 109.4 668.6 109.7L673.3 117.1C697 114 710.8 100 710.8 79ZM636.6 82.2C636.6 68.6 648.4 52.2 667.6 49.8C666.5 59 664.5 68.5 662 76.8C656.9 93.7 651.6 100.4 646.9 100.4C642.4 100.4 636.6 94.8 636.6 82.2ZM797.6 92.7C792.5 96.2 786.4 99.8 781.2 102.4C777.5 99.6 774.5 96.4 772.1 92.7H797.6ZM749 77.8H791.1V86.6H749V77.8ZM749 63.7H791.1V72.1H749V63.7ZM773.5 57.6V47.7H766V57.6H745.4C755.3 51.1 764.1 43.6 769.6 36.9C775.7 44 785.2 51.4 795.1 57.6H773.5ZM803.9 88.2C802.3 89.4 800.4 90.8 798.4 92.2V59.6C802.9 62.2 807.4 64.6 811.7 66.5C813 64.5 814.8 61.8 816.5 60C801 54.2 783.7 42.7 772.8 30.2H765.5C757.5 41.3 740.8 53.8 723.9 61.1C725.5 62.7 727.4 65.4 728.3 67.1C732.8 65 737.4 62.6 741.7 59.9V112.8C737.5 113.2 733.7 113.5 730.4 113.8L731.5 120.7C742.9 119.7 759.2 118.1 774.8 116.4L774.7 109.8L749 112.2V92.7H764.6C773.1 108.6 789 117.9 810.5 121.6C811.5 119.7 813.4 116.7 815 115.2C804 113.6 794.4 110.6 786.7 106.1C794.2 102.3 802.8 97.3 809.5 92.5L803.9 88.2ZM824.7 88.4L832 96C833.6 93.9 835.9 90.7 837.9 88C843 81.8 851.3 70.8 856 65.1C859.4 60.8 861.4 60 865.6 64.8C870.2 69.9 877.9 79.5 884.4 86.8C891.2 94.6 900.2 105 907.8 112.2L914.2 105C905.2 96.9 895.3 86.4 889.2 79.8C882.9 73 875.2 63.1 869.2 56.9C862.6 50.2 857.4 51.2 851.5 58C845.6 65 837.2 76.5 831.9 81.8C829.2 84.6 827.2 86.6 824.7 88.4ZM889.2 46.5L883.5 49C886.8 53.6 890.3 59.9 892.8 65.1L898.7 62.5C896.4 57.7 891.7 50.2 889.2 46.5ZM902.1 41.4L896.5 44C899.9 48.5 903.5 54.6 906.2 59.9L911.9 57.1C909.6 52.4 904.7 44.9 902.1 41.4ZM961.9 81.3L960.9 74.7L949.3 78.3V57.9H959.5V50.7H949.3V30.4H942.4V50.7H934.7C935.4 46.3 936.1 41.7 936.6 37.2L930.1 36.1C928.9 48.3 927 60.9 923.2 69.4C924.8 70 927.6 71.8 928.9 72.7C930.7 68.6 932.1 63.5 933.3 57.9H942.4V80.2C935.4 82.4 929 84.1 923.9 85.5L925.9 92.6C930.8 91.1 936.5 89.3 942.4 87.5V121.7H949.3V85.3L961.9 81.3ZM975.8 47C977.5 42.1 979 37 980.2 31.7L973.4 30.3C970.1 45.4 964.1 59.8 955.9 68.7C957.4 69.7 960.4 71.8 961.6 73C965.9 67.9 969.7 61.3 973 54H981.6C977 70 968.1 86.7 957.5 95C959.6 96.1 962 97.8 963.4 99.3C974.3 89.8 983.5 71.1 988 54H996.2C991 79.1 980.2 103.7 963.8 115.5C966 116.6 968.6 118.4 970 120C986.6 106.8 997.6 80.2 1002.6 54H1007.4C1005.4 93.6 1003.2 108.4 1000 111.9C998.9 113.2 997.9 113.6 996.3 113.6C994.3 113.6 990.3 113.5 985.8 113.1C987.1 115.1 987.8 118.2 987.9 120.4C992.3 120.7 996.6 120.8 999.3 120.4C1002.3 120.1 1004.3 119.2 1006.2 116.6C1010.2 111.6 1012.4 96.1 1014.6 50.8C1014.7 49.9 1014.7 47 1014.7 47H975.8Z" fill="#E9DAC6"/>
<path d="M1203.1 45.7H1153.1V38.8H1203.1V45.7ZM1203.1 57.7H1153.1V50.7H1203.1V57.7ZM1210.4 33.5H1146.1V63H1210.4V33.5ZM1209.4 86.9C1206.8 92.5 1203.1 97.4 1198.6 101.6C1194.5 97.4 1191.1 92.4 1188.8 86.9H1209.4ZM1149.6 99.7H1167.7V105.8C1161.5 106.5 1155.3 107.1 1149.6 107.7V99.7ZM1149.6 87.1H1167.7V94.1H1149.6V87.1ZM1167.7 74.8V81.5H1149.6V74.8H1167.7ZM1214 80.8L1212.7 81H1178.3V86.9H1186.9L1182.6 88.2C1185.3 94.9 1189 100.8 1193.6 105.8C1187.9 110.1 1181.4 113.3 1174.8 115.3V74.8H1221.6V68.6H1134.2V74.8H1142.8V108.4C1139.3 108.8 1136.1 109.1 1133.3 109.3L1134 115.9C1143.3 114.8 1155.5 113.4 1167.7 111.9V121.6H1174.8V115.4C1176.1 116.7 1177.9 119.3 1178.7 121C1185.7 118.6 1192.5 115.2 1198.6 110.5C1204.5 115.4 1211.5 119.2 1219.5 121.5C1220.4 119.8 1222.4 117.1 1224 115.7C1216.3 113.8 1209.5 110.5 1203.8 106.1C1210.2 99.9 1215.4 92.1 1218.5 82.6L1214 80.8ZM1290.3 96.7V106.9H1265.7V96.7H1290.3ZM1296.9 112.4V91.3H1259.1V117.4H1265.7V112.4H1296.9ZM1317.3 78.6H1239.3V121.6H1246.4V84.9H1309.9V112.6C1309.9 114 1309.6 114.5 1307.9 114.5C1306.1 114.7 1300.5 114.7 1294.1 114.5C1295.1 116.4 1296.1 119.4 1296.5 121.4C1304.8 121.4 1310 121.4 1313.3 120.3C1316.4 119 1317.3 116.8 1317.3 112.8V78.6ZM1297.4 66.9H1258.4V57.2H1297.4V66.9ZM1251.3 51.9V72.3H1304.8V51.9H1251.3ZM1281.2 39.8V30.3H1273.7V39.8H1234.9V46.3H1321.1V39.8H1281.2ZM1418.8 79C1418.8 58.7 1403.9 42.2 1380.5 42.2C1356.1 42.2 1336.8 61.2 1336.8 82.9C1336.8 99.4 1345.7 109.6 1354.6 109.6C1363.9 109.6 1371.8 99.1 1377.9 78.5C1380.7 69.2 1382.6 59 1383.9 49.7C1400.9 51.1 1410.6 63.6 1410.6 78.7C1410.6 96 1398 105.5 1385.2 108.4C1382.9 108.9 1379.8 109.4 1376.6 109.7L1381.3 117.1C1405 114 1418.8 100 1418.8 79ZM1344.6 82.2C1344.6 68.6 1356.4 52.2 1375.6 49.8C1374.5 59 1372.5 68.5 1370 76.8C1364.9 93.7 1359.6 100.4 1354.9 100.4C1350.4 100.4 1344.6 94.8 1344.6 82.2ZM1505.6 92.7C1500.5 96.2 1494.4 99.8 1489.2 102.4C1485.5 99.6 1482.5 96.4 1480.1 92.7H1505.6ZM1457 77.8H1499.1V86.6H1457V77.8ZM1457 63.7H1499.1V72.1H1457V63.7ZM1481.5 57.6V47.7H1474V57.6H1453.4C1463.3 51.1 1472.1 43.6 1477.6 36.9C1483.7 44 1493.2 51.4 1503.1 57.6H1481.5ZM1511.9 88.2C1510.3 89.4 1508.4 90.8 1506.4 92.2V59.6C1510.9 62.2 1515.4 64.6 1519.7 66.5C1521 64.5 1522.8 61.8 1524.5 60C1509 54.2 1491.7 42.7 1480.8 30.2H1473.5C1465.5 41.3 1448.8 53.8 1431.9 61.1C1433.5 62.7 1435.4 65.4 1436.3 67.1C1440.8 65 1445.4 62.6 1449.7 59.9V112.8C1445.5 113.2 1441.7 113.5 1438.4 113.8L1439.5 120.7C1450.9 119.7 1467.2 118.1 1482.8 116.4L1482.7 109.8L1457 112.2V92.7H1472.6C1481.1 108.6 1497 117.9 1518.5 121.6C1519.5 119.7 1521.4 116.7 1523 115.2C1512 113.6 1502.4 110.6 1494.7 106.1C1502.2 102.3 1510.8 97.3 1517.5 92.5L1511.9 88.2ZM1532.7 88.4L1540 96C1541.6 93.9 1543.9 90.7 1545.9 88C1551 81.8 1559.3 70.8 1564 65.1C1567.4 60.8 1569.4 60 1573.6 64.8C1578.2 69.9 1585.9 79.5 1592.4 86.8C1599.2 94.6 1608.2 105 1615.8 112.2L1622.2 105C1613.2 96.9 1603.3 86.4 1597.2 79.8C1590.9 73 1583.2 63.1 1577.2 56.9C1570.6 50.2 1565.4 51.2 1559.5 58C1553.6 65 1545.2 76.5 1539.9 81.8C1537.2 84.6 1535.2 86.6 1532.7 88.4ZM1597.2 46.5L1591.5 49C1594.8 53.6 1598.3 59.9 1600.8 65.1L1606.7 62.5C1604.4 57.7 1599.7 50.2 1597.2 46.5ZM1610.1 41.4L1604.5 44C1607.9 48.5 1611.5 54.6 1614.2 59.9L1619.9 57.1C1617.6 52.4 1612.7 44.9 1610.1 41.4ZM1669.9 81.3L1668.9 74.7L1657.3 78.3V57.9H1667.5V50.7H1657.3V30.4H1650.4V50.7H1642.7C1643.4 46.3 1644.1 41.7 1644.6 37.2L1638.1 36.1C1636.9 48.3 1635 60.9 1631.2 69.4C1632.8 70 1635.6 71.8 1636.9 72.7C1638.7 68.6 1640.1 63.5 1641.3 57.9H1650.4V80.2C1643.4 82.4 1637 84.1 1631.9 85.5L1633.9 92.6C1638.8 91.1 1644.5 89.3 1650.4 87.5V121.7H1657.3V85.3L1669.9 81.3ZM1683.8 47C1685.5 42.1 1687 37 1688.2 31.7L1681.4 30.3C1678.1 45.4 1672.1 59.8 1663.9 68.7C1665.4 69.7 1668.4 71.8 1669.6 73C1673.9 67.9 1677.7 61.3 1681 54H1689.6C1685 70 1676.1 86.7 1665.5 95C1667.6 96.1 1670 97.8 1671.4 99.3C1682.3 89.8 1691.5 71.1 1696 54H1704.2C1699 79.1 1688.2 103.7 1671.8 115.5C1674 116.6 1676.6 118.4 1678 120C1694.6 106.8 1705.6 80.2 1710.6 54H1715.4C1713.4 93.6 1711.2 108.4 1708 111.9C1706.9 113.2 1705.9 113.6 1704.3 113.6C1702.3 113.6 1698.3 113.5 1693.8 113.1C1695.1 115.1 1695.8 118.2 1695.9 120.4C1700.3 120.7 1704.6 120.8 1707.3 120.4C1710.3 120.1 1712.3 119.2 1714.2 116.6C1718.2 111.6 1720.4 96.1 1722.6 50.8C1722.7 49.9 1722.7 47 1722.7 47H1683.8Z" fill="#E9DAC6"/>
</svg>
