<svg width="234" height="152" viewBox="0 0 234 152" fill="none" xmlns="http://www.w3.org/2000/svg">
<path d="M222.33 122.736C222.33 120.992 223.835 120.12 225.135 119.539C225.728 119.781 226.321 120.024 226.914 120.266C227.324 121.356 227.94 122.591 227.188 123.608C226.161 125.716 222.603 125.134 222.33 122.736Z" fill="black"/>
<path d="M119.422 1.02427C123.39 0.733611 127.336 0.733611 131.259 1.02427C138.922 1.02427 146.586 2.25955 153.907 4.65746C154.044 4.51213 154.249 4.22149 154.386 4.07616C154.705 4.41526 155.024 4.75435 155.344 5.09345C156.165 5.09345 157.054 5.52944 157.533 6.32874C157.396 6.47407 157.26 6.76472 157.191 6.91004C158.423 9.67127 159.175 12.7232 160.27 15.557C161.57 19.7715 163.486 23.7681 164.991 27.9099C166.018 30.6711 167.044 33.4324 167.865 36.3389C168.96 39.9721 169.644 43.678 170.739 47.3112C172.313 51.5983 174.023 55.8128 175.46 60.1C176.144 62.8612 177.307 65.6225 177.034 68.6017C176.281 68.529 175.597 68.093 175.049 67.6571C171.56 65.2591 168.276 62.6432 164.512 60.6813C160.475 58.5014 156.233 56.6121 152.128 54.5049C151.033 53.8509 149.665 53.5603 148.707 52.6156C146.586 49.4911 144.943 46.0032 143.233 42.588C139.333 36.1936 134.543 30.3805 130.027 24.422C123.664 16.429 117.232 8.36334 109.364 2.04158C109.364 1.82359 109.364 1.31493 109.432 1.09693C110.322 1.60558 111.416 1.53291 112.443 1.38759C114.769 0.951602 117.095 1.16959 119.422 1.02427Z" fill="#E56E0C"/>
<path d="M95.4738 4.94825C96.2949 4.58493 96.9791 5.31156 97.5265 5.82021C98.9633 7.34615 100.605 8.50877 101.974 10.1074C106.695 13.6679 110.527 18.2457 114.564 22.6056C119.422 28.2007 124.622 33.4325 129.822 38.6643C131.669 40.6989 133.654 42.8788 134.954 45.422C135.227 45.9307 135.364 47.166 134.475 47.0206C131.054 45.7854 127.633 44.6227 124.006 44.1867C120.995 44.0414 117.985 43.9687 114.974 44.2594C110.732 44.6227 106.558 44.1867 102.385 44.8407C100.537 45.1314 98.9634 43.7507 97.2528 43.1694C91.6421 40.4809 85.7577 38.5189 80.0787 35.903C74.8101 33.5778 69.6784 31.1072 64.4783 28.782C63.2467 28.2007 61.8782 28.6367 60.5782 28.6367C59.6887 28.2733 60.5098 27.474 60.8519 26.9654C62.973 24.4222 65.6415 22.3876 68.1731 20.2803C72.8943 16.5018 77.8891 13.2319 83.0208 10.2527C86.9894 8.00013 91.4368 6.98284 95.4738 4.94825Z" fill="#E56E0C"/>
<path d="M171.423 12.3599C171.423 11.706 171.423 11.052 171.97 10.5433C172.313 11.27 172.449 12.142 173.134 12.5779C176.076 14.8305 178.676 17.5191 181.55 19.9896C185.587 23.7682 189.555 27.7647 193.318 31.9792C195.85 34.9584 198.176 38.3009 199.34 42.2248C200.708 45.7127 200.913 49.5638 201.324 53.3424C202.282 62.498 204.334 71.5083 207.619 80.0827C209.192 84.2972 210.766 88.5843 213.024 92.4355C213.298 93.0168 213.845 93.5982 213.503 94.3248C212.819 94.6155 212.271 94.1068 211.724 93.8161C210.082 92.9442 208.577 91.8542 206.934 91.1276C205.087 90.4009 203.582 89.0203 201.871 87.9304C200.229 86.9131 198.655 85.6778 197.013 84.5878C194.276 82.9892 191.813 81.0273 189.555 78.8474C187.708 77.3215 186.202 75.4322 184.423 73.9062C184.013 72.7436 183.944 71.5083 183.739 70.2731C183.123 65.6952 181.96 61.1901 181.139 56.6849C180.181 51.5984 179.292 46.4393 178.197 41.3528C177.034 36.1937 175.734 31.1072 174.571 25.9481C173.955 23.2595 173.818 20.4256 173.202 17.7371C172.792 16.2111 172.381 14.6852 172.039 13.0866C171.834 12.9412 171.56 12.5779 171.423 12.3599Z" fill="#E56E0C"/>
<path d="M54.3516 37.3561C54.7621 37.2108 55.1955 37.0655 55.6516 36.9202C55.72 37.1382 55.8569 37.5015 55.9253 37.7195C59.8254 38.3734 63.7255 39.2454 67.5572 40.2627C75.1521 42.3699 83.0892 43.3873 90.4104 46.3665C91.4368 46.5845 91.7789 47.8924 90.7525 48.401C88.4261 49.6363 85.8945 50.581 83.5681 51.8889C77.4785 54.8681 72.2099 59.446 65.8466 61.9892C63.4518 63.1518 60.5096 62.7158 58.2517 61.2626C55.72 59.3733 54.2832 56.3941 52.9147 53.5602C51.9568 51.3803 50.7252 49.3457 50.1778 46.9478C50.0409 46.0758 49.9041 45.2038 50.3831 44.4772C51.1357 42.9513 51.8884 41.4253 52.7778 39.972C53.3252 39.1001 54.0095 38.3734 54.3516 37.3561Z" fill="#E56E0C"/>
<path d="M209.124 60.4635C209.261 60.3182 209.466 60.1002 209.603 59.9548C210.219 61.1175 211.382 61.7714 211.929 62.9341C212.682 64.5327 213.982 65.6226 215.008 67.0759C217.198 69.9825 219.319 73.0343 222.124 75.2869C224.656 77.5395 227.53 79.5014 229.719 82.1173C231.43 84.0793 233.346 86.4045 233.14 89.311C233.003 90.7643 231.703 91.491 230.814 92.2903C228.898 94.0342 226.64 95.1968 224.314 96.2141C223.014 96.7228 221.782 97.8127 220.345 97.3768C219.25 95.9235 218.977 94.0342 218.293 92.3629C216.719 88.0031 215.624 83.4253 214.256 78.9201C212.34 72.8163 211.382 66.4219 209.124 60.4635Z" fill="#E56E0C"/>
<path d="M121.406 0.73366C121.748 0.443004 122.022 -0.0656427 122.569 0.00702116C126.059 0.225013 129.617 -0.138302 133.106 0.0796895C136.048 0.515673 138.991 0.733669 141.864 1.24232C141.773 1.6783 141.522 1.87206 141.112 1.82362C138.033 1.82362 135.022 1.31497 131.943 1.02431C130.232 0.660992 128.453 0.661009 126.743 0.951665C124.964 1.31498 123.185 0.660996 121.406 0.73366Z" fill="black"/>
<path d="M111.416 0.80631C114.222 0.878974 116.89 0.152336 119.695 0.442991C119.627 0.588319 119.49 0.87897 119.422 1.09696C116.206 1.09696 112.922 1.60561 109.706 1.8236C105.806 2.04159 102.111 3.56755 98.2107 3.8582C95.4053 4.36685 92.4631 4.87549 89.9999 6.61942C87.9472 7.63671 85.7577 8.50869 83.9103 9.96196C81.4471 11.8512 78.7102 13.3045 75.9048 14.4671C75.4943 14.4671 74.6732 15.2664 74.6048 14.4671C75.1522 14.0311 75.768 13.7405 76.3838 13.4498C78.7102 12.2872 80.9681 11.1246 83.0208 9.45331C84.2524 8.43601 85.7577 7.63671 87.1946 6.91007C88.0157 6.52253 88.8367 6.15921 89.6578 5.82011C89.9771 5.62634 90.3192 5.43258 90.6842 5.23881C91.4596 4.89971 92.2579 4.60905 93.079 4.36684C93.7632 4.14884 94.379 4.00353 94.9948 3.78553C99.1686 3.20422 103.137 1.89627 107.242 1.16963C108.679 1.16963 110.048 0.878974 111.416 0.80631Z" fill="black"/>
<path d="M145.012 1.82361C146.517 1.67828 148.022 2.11426 149.459 2.47758C153.291 2.98622 156.917 4.51217 160.612 5.52947C161.981 5.74746 163.075 6.6921 164.17 7.4914C160.27 6.54677 156.37 5.67479 152.607 4.36684C150.417 3.78553 148.296 2.91356 146.038 2.47758C145.673 2.33225 145.331 2.11426 145.012 1.82361Z" fill="black"/>
<path d="M111.69 6.18347C112.1 6.23191 112.443 6.4499 112.716 6.83744C114.427 9.23535 116.685 11.2699 118.669 13.4499C121.543 16.4291 124.074 19.7716 126.948 22.8235C128.864 25.0761 130.985 27.1833 132.901 29.4359C136.391 33.6504 139.47 38.2282 142.754 42.6607C143.438 43.46 144.122 44.332 144.67 45.2766L144.328 45.4946C142.07 43.2421 140.427 40.4808 138.512 37.9376C136.117 34.813 133.996 31.4705 131.259 28.6366C129.001 26.3114 126.948 23.7681 124.759 21.4429C122.843 19.481 121.338 17.1557 119.353 15.2665C117.232 12.8685 114.837 10.6886 112.922 8.07274C112.443 7.49143 111.827 6.98277 111.69 6.18347Z" fill="black"/>
<path d="M102.59 6.40137C103.958 7.05534 104.711 8.43594 105.737 9.38057C107.927 11.5605 109.706 14.0311 111.69 16.3563C114.837 19.6988 117.779 23.114 120.79 26.5292C120.79 26.6746 120.859 27.0379 120.859 27.1832C118.737 25.2213 116.89 22.8961 114.837 20.8615C111.211 17.1556 108.2 12.8684 104.574 9.16259C103.89 8.29062 102.795 7.63665 102.59 6.40137Z" fill="black"/>
<path d="M167.933 9.23523C169.576 9.52589 171.012 10.5432 172.449 11.4878C175.734 13.7404 178.813 16.3563 181.823 18.9722C183.876 20.6435 185.587 22.6054 187.366 24.64C187.639 25.1486 188.323 25.7299 188.187 26.3839C187.708 26.1659 187.366 25.7299 187.023 25.294C184.697 22.6781 182.302 20.0621 179.497 18.1002C175.665 15.2663 171.97 12.1418 167.797 9.81653C167.865 9.6712 167.933 9.38056 167.933 9.23523Z" fill="black"/>
<path d="M162.323 13.3771C162.46 13.3771 162.802 13.3771 162.939 13.3044C163.144 15.339 163.897 17.2283 164.512 19.1176C166.086 23.0414 167.181 27.1832 168.344 31.3251C171.081 39.8994 173.407 48.6191 175.802 57.2661C176.144 58.792 176.828 60.2453 177.034 61.7712C175.665 60.6086 175.665 58.5014 174.981 56.8301C174.707 55.7401 174.365 54.6502 174.092 53.4876C172.86 49.3457 171.834 45.1312 170.602 40.9167C169.986 38.8095 169.37 36.7022 168.755 34.595C168.412 33.6503 168.139 32.633 167.797 31.6884C166.907 28.5638 166.086 25.4393 165.06 22.3874C164.786 21.7577 164.558 21.1279 164.375 20.4982C163.554 18.1729 162.528 15.8477 162.323 13.3771Z" fill="black"/>
<path d="M67.1466 21.1521C68.4467 19.9895 69.5414 18.4635 71.0467 17.5916C71.0467 17.8822 70.9783 18.4635 70.9783 18.6815C67.8765 22.1209 64.6606 25.4392 61.3307 28.6364C59.757 30.0897 58.8675 32.1243 57.5674 33.8683C56.6779 35.1035 56.1306 36.5568 55.3095 37.7921C54.42 39.4634 52.9831 40.626 52.2989 42.3699C51.8884 43.3146 51.5462 44.2592 51.2041 45.2765C51.0673 46.1485 51.0673 47.0204 50.5883 47.8197C49.7673 47.0204 50.2462 45.7851 50.4515 44.7678C51.0673 42.8059 51.8199 40.844 53.12 39.2454C54.8305 37.2108 55.6516 34.5222 57.2253 32.415C58.1832 30.889 59.0728 29.2178 60.3728 27.9825C62.6992 25.7299 64.8203 23.332 67.1466 21.1521Z" fill="black"/>
<path d="M171.697 18.827C171.902 18.9724 172.176 19.1904 172.381 19.263C173.339 23.1869 174.297 27.1107 175.118 31.1072C175.87 34.8131 176.897 38.4463 177.581 42.1521C178.676 48.0379 179.976 53.9237 180.865 59.9548C180.728 59.7368 180.386 59.3008 180.181 59.0828C178.539 50.3632 177.102 41.5708 174.913 32.9965C173.955 28.2733 172.723 23.5502 171.697 18.827Z" fill="black"/>
<path d="M188.255 26.5294C190.65 27.8374 192.018 30.4533 193.797 32.5605C198.313 38.083 201.324 44.7681 205.019 50.9445C207.687 55.7403 210.698 60.3908 213.708 65.0413C215.008 66.5672 216.377 68.0932 217.54 69.8371C217.745 70.2004 218.224 70.5637 218.156 71.0724C217.54 71.2904 217.198 70.5637 216.856 70.2004C215.829 68.6745 214.529 67.4392 213.366 66.1312C211.108 63.0067 209.261 59.6641 207.277 56.3216C203.924 50.6538 200.366 45.0587 197.15 39.3183C195.166 35.7577 192.702 32.4879 190.308 29.218C189.623 28.2734 188.597 27.692 188.255 26.5294Z" fill="black"/>
<path d="M63.8624 29.654C65.0941 29.5087 66.2572 30.0173 67.4204 30.4533C70.6363 31.7612 73.9206 32.7785 77.0681 34.3771C80.4208 35.9031 83.9787 36.9204 87.3999 38.2283C89.3841 39.0276 91.5737 39.6089 93.4895 40.6989C92.4632 40.9895 91.5737 40.5536 90.6842 40.1902C86.2367 38.5916 81.7892 37.211 77.4102 35.3944C73.7153 33.6505 69.8836 32.3425 66.1204 30.8166C65.2993 30.4533 64.3414 30.4533 63.8624 29.654Z" fill="black"/>
<path d="M123.869 29.5085C124.759 29.6539 125.238 30.4532 125.922 30.9618C127.017 31.9065 127.975 32.9964 129.069 33.941C129.548 34.4497 130.301 34.8857 130.438 35.685C128.864 35.1037 127.769 33.5777 126.538 32.4878C125.717 31.4705 124.143 30.9618 123.869 29.5085Z" fill="black"/>
<path d="M58.4569 36.6296C63.315 36.993 68.0361 37.8649 72.7573 39.1729C77.5469 40.1175 82.1312 41.7161 86.784 43.0967C86.784 43.2421 86.7156 43.46 86.6471 43.6054C83.3628 42.8787 80.0785 41.7161 76.7942 40.9168C72.4152 40.0449 68.1045 38.9549 63.6571 38.1556C61.9465 37.7923 60.1675 37.7923 58.4569 37.3563C58.4569 37.1383 58.4569 36.8476 58.4569 36.6296Z" fill="black"/>
<path d="M113.948 40.0448C117.574 40.6261 121.201 41.2074 124.759 42.0794C127.359 42.588 129.959 43.3873 132.559 43.896C134.338 44.2593 136.185 44.332 137.964 44.9133C137.964 45.0586 137.896 45.3493 137.896 45.5673C135.159 44.9859 132.285 44.768 129.548 44.0413C124.759 42.806 119.901 41.7161 114.974 40.9894C114.427 40.8441 113.879 40.6988 113.4 40.5535C113.537 40.4081 113.811 40.1901 113.948 40.0448Z" fill="black"/>
<path d="M133.791 39.8995C135.091 40.4808 136.391 41.4255 137.075 42.7334C135.706 42.2975 134.475 41.2075 133.791 39.8995Z" fill="black"/>
<path d="M95.4054 42.8787C97.6633 42.2247 99.8528 41.3528 102.179 41.5708C101.29 42.5154 99.9897 42.2247 98.8949 42.5881C93.2158 44.1867 87.6736 46.1486 82.3366 48.6191C80.4892 49.4911 78.5734 50.3631 76.7259 51.1624C75.6768 51.6952 74.6504 52.2524 73.6469 52.8337C72.8943 53.2696 72.21 53.7783 71.4574 54.1416C70.2942 54.8682 69.1994 55.6676 68.0362 56.3942C66.2572 57.4841 64.3414 57.9928 62.3571 58.4288C61.6729 58.0655 60.8518 57.6295 60.7834 56.7575C61.0571 56.9028 61.5361 57.2662 61.8098 57.4841C63.2466 57.5568 64.5467 56.9755 65.9151 56.6122C70.0889 54.5049 73.7838 51.5257 78.0944 49.7091C78.9155 49.3458 79.7365 48.9825 80.5576 48.6191C81.5155 48.1832 82.4506 47.7472 83.3629 47.3112C87.3314 45.5673 91.3684 44.1867 95.4054 42.8787Z" fill="black"/>
<path d="M100.947 44.1139C105.121 43.6779 109.363 43.1692 113.537 43.4599C115.385 43.7505 117.301 43.6052 119.148 43.9685C120.38 44.1138 121.68 44.4772 122.98 44.4772C123.048 44.6225 123.185 44.9858 123.253 45.1311C122.934 45.2765 122.615 45.3976 122.295 45.4945C115.043 44.4772 107.584 44.5498 100.263 45.6398C96.1579 46.3664 92.1893 47.747 88.2892 49.1277C83.9786 50.6536 80.2154 53.4875 76.0416 55.3041C75.5854 55.5463 75.1065 55.7885 74.6047 56.0307C71.7309 57.702 69.3361 60.0272 66.7361 62.1345C65.1623 63.5878 62.836 63.8058 60.8517 63.6604C59.0043 62.8611 56.4042 62.6431 55.5832 60.3906C54.3515 57.3387 53.0515 54.2868 51.5462 51.3076C51.3409 50.5809 51.1357 49.8543 51.0672 49.1277C51.5234 49.1277 51.8427 49.3456 52.0252 49.7816C53.3252 52.3975 54.5568 55.0134 55.5832 57.7747C56.199 59.3733 57.02 61.2625 58.799 61.5532C60.0991 61.7712 61.1938 63.0791 62.5623 62.6431C63.7255 62.4252 64.8887 62.2072 65.7781 61.4078C68.994 58.7193 72.2099 55.9581 76.0416 54.2868C77.9574 53.4633 79.8276 52.4944 81.6522 51.3802C83.7733 49.9996 85.9629 48.9097 88.2892 47.965C92.3946 46.2938 96.5684 44.7678 100.947 44.1139Z" fill="black"/>
<path d="M125.58 44.7679C127.222 44.7679 128.659 45.5672 130.096 46.0759C134.133 47.3838 137.964 49.2004 142.001 50.5084C145.149 51.5257 148.022 53.1969 151.033 54.5049C152.607 55.1589 154.112 56.0308 155.686 56.6848C159.449 58.1381 163.281 59.7367 166.565 62.1346C167.249 62.7159 168.207 63.1519 168.481 64.1692C167.728 64.1692 167.181 63.5879 166.633 63.2246C163.897 61.2626 160.886 59.8094 157.807 58.5014C154.181 57.1935 150.759 55.4495 147.201 53.9236C143.575 52.107 139.606 51.1624 135.912 49.5638C132.833 48.1832 129.548 47.2385 126.469 45.8579C125.99 45.7126 125.648 45.2766 125.58 44.7679Z" fill="black"/>
<path d="M145.217 48.7644C145.286 47.8924 146.038 48.4737 146.517 48.6191C146.928 48.7644 147.407 48.9824 147.886 49.2004C149.528 49.7817 151.17 50.2904 152.744 51.017C154.044 51.5983 155.344 52.1796 156.575 52.8336C160.202 54.6502 163.76 56.3941 167.249 58.5014C169.37 59.8093 171.697 60.8266 173.681 62.3526C175.46 63.6605 177.376 64.6778 179.223 65.8404C180.934 66.9304 182.713 68.0203 184.492 69.183C185.792 70.0549 187.16 70.9996 188.392 72.0168C188.392 72.2348 188.529 72.5255 188.529 72.6708C187.229 72.0168 186.066 70.9996 184.834 70.2002C182.165 68.529 179.497 66.8577 176.828 65.2591C174.297 63.9512 172.176 61.9892 169.576 60.8266C165.197 58.2592 160.749 55.8613 156.233 53.6329C153.291 52.0343 150.28 50.8716 147.201 49.709C146.517 49.4184 145.833 49.1277 145.217 48.7644Z" fill="black"/>
<path d="M53.9411 48.6919C54.4885 49.2005 54.6937 49.9272 55.0358 50.5812C56.4727 52.3251 57.8412 54.1417 59.4833 55.595C58.3201 55.7403 57.6359 54.6503 56.8832 53.9237C55.9253 52.6158 54.6937 51.5985 53.8727 50.2178C53.9183 49.685 53.9411 49.1763 53.9411 48.6919Z" fill="black"/>
<path d="M130.301 56.612C130.438 56.5393 130.711 56.4667 130.848 56.4667C131.669 58.1379 133.996 59.1552 135.501 57.8473C135.501 58.0653 135.501 58.5013 135.501 58.7193C135.296 58.8646 134.954 59.1552 134.817 59.3006C132.969 59.4459 130.78 58.7192 130.301 56.612Z" fill="black"/>
<path fill-rule="evenodd" clip-rule="evenodd" d="M86.0997 57.1208C87.5366 56.3942 89.2472 56.5395 90.6841 57.2661C91.8473 57.9928 92.942 58.9374 93.6262 60.1727C93.6262 60.6571 93.6491 61.1415 93.6947 61.626C92.2578 63.0066 90.2051 62.3526 88.563 61.7713C87.5366 61.1173 86.3734 60.4633 85.484 59.446C85.0734 58.9374 85.2787 58.2108 85.2787 57.6294C85.484 57.4841 85.8945 57.2661 86.0997 57.1208ZM86.3734 57.7748C85.6892 57.9201 85.8261 58.5741 86.0313 59.0827C87.1261 60.1 88.3577 60.8266 89.6577 61.408C90.7525 61.6986 91.8472 61.9166 92.942 61.408C92.942 61.19 92.942 60.6813 93.0105 60.4633C91.7104 58.2108 88.7682 56.5395 86.3734 57.7748Z" fill="black"/>
<path d="M109.227 56.8301C109.774 57.3387 110.321 57.92 110.869 58.5013C111.074 58.5013 111.553 58.574 111.758 58.574C111.69 58.792 111.553 59.1553 111.485 59.3733C110.253 59.228 108.885 58.2834 109.227 56.8301Z" fill="black"/>
<path d="M112.237 58.5015C112.922 58.7195 113.537 59.0828 114.222 59.3008C114.769 59.2281 115.18 58.7921 115.59 58.5741C115.659 58.7921 115.727 59.1554 115.727 59.3008C114.632 60.2454 113.195 59.9548 112.101 59.0828C112.169 58.9375 112.169 58.6468 112.237 58.5015Z" fill="black"/>
<path fill-rule="evenodd" clip-rule="evenodd" d="M144.807 60.536C145.696 59.228 147.407 59.0827 148.57 59.882C150.007 60.3906 151.717 60.3906 152.744 61.6259C153.359 62.4979 152.333 63.2245 151.786 63.6605C149.938 64.3871 147.954 63.9512 146.312 63.0065C145.422 62.4979 144.807 61.6259 144.807 60.536ZM145.696 60.318C145.628 60.536 145.628 61.1173 145.559 61.3353C146.859 62.8612 148.912 63.5878 150.759 63.2245C151.307 62.9339 152.401 62.7885 152.265 61.9892C150.349 60.6086 147.886 60.6813 145.696 60.318Z" fill="black"/>
<path d="M203.513 58.8649C204.334 59.8095 204.129 61.1175 204.403 62.2801C204.813 64.896 205.566 67.3665 206.387 69.8371C206.524 70.2731 206.684 70.7575 206.866 71.2904C207.14 72.017 207.436 72.7679 207.756 73.543C208.166 74.4876 208.577 75.5049 208.987 76.4495C209.398 77.4668 209.808 78.4841 210.219 79.5014C210.538 80.3734 210.88 81.2211 211.245 82.0446C211.61 82.9166 211.952 83.7886 212.271 84.6606C212.819 85.9685 213.412 87.2522 214.05 88.5117C213.914 88.5117 213.572 88.4391 213.366 88.4391C212.477 87.1311 212.066 85.6052 211.45 84.2246C211.085 83.3526 210.721 82.4806 210.356 81.6087C209.991 80.7852 209.649 79.9374 209.329 79.0654C208.919 78.0481 208.508 77.0793 208.098 76.1589C207.345 74.415 206.661 72.671 206.045 70.9271C204.745 67.0032 203.445 63.0067 203.513 58.8649Z" fill="black"/>
<path d="M208.303 61.9893C209.192 62.7159 209.261 63.9512 209.671 64.9685C211.108 69.3283 212.545 73.6881 213.708 78.1206C214.187 80.0826 214.803 81.9718 215.419 83.8611C215.761 84.733 216.103 85.605 216.445 86.477C216.787 87.131 217.061 87.8576 217.198 88.5842C216.993 88.4389 216.65 88.1482 216.445 88.0756C216.171 87.3974 215.898 86.7192 215.624 86.041C214.461 83.3524 213.64 80.5912 212.887 77.7573C211.724 73.2521 210.15 68.8196 208.782 64.3145C208.577 63.5878 208.371 62.7886 208.303 61.9893Z" fill="black"/>
<path d="M67.3519 63.9512C67.215 63.1519 68.3098 63.0066 68.4466 63.7333C68.515 64.9685 68.8572 66.2765 69.7467 67.2938C70.5677 68.0204 71.5941 68.6017 72.552 69.1831C74.4678 70.1277 75.7679 71.9443 77.7521 72.7436C77.7521 72.8889 77.6153 73.1796 77.5468 73.3249C76.3837 72.9616 75.3573 72.3076 74.4678 71.4356C73.0994 70.055 71.3204 69.401 69.6782 68.4564C68.1045 67.6571 67.4887 65.6952 67.3519 63.9512Z" fill="black"/>
<path d="M84.2525 65.6952C85.2104 66.3492 84.7315 67.8751 85.6209 68.5291C86.2368 68.6018 86.7841 68.5291 87.3315 68.5291C87.8789 70.3457 89.2473 71.799 91.0263 72.5256C92.1211 72.9616 93.3527 73.1069 94.5159 73.3976C93.0106 74.2695 91.1632 73.3976 89.7947 72.6709C88.4263 71.9443 87.3999 70.709 86.921 69.1831C86.6473 69.2557 86.1683 69.4011 85.8946 69.5464C85.6893 69.4011 85.2104 69.2557 85.0051 69.1104C84.3209 68.1658 84.0472 66.9305 84.2525 65.6952Z" fill="black"/>
<path d="M173.065 66.349C173.27 66.349 173.749 66.2764 174.023 66.2764C174.479 66.567 174.958 66.8577 175.46 67.1483C178.379 68.9407 181.253 70.8542 184.081 72.8888C189.213 76.74 195.029 79.5739 200.161 83.5704C204.266 86.4769 207.687 90.2555 211.998 92.8714C212.363 93.0651 212.728 93.2347 213.092 93.38C214.598 94.252 216.035 95.2692 217.54 96.2139C217.745 96.2865 218.156 96.5045 218.293 96.5772C219.729 96.9405 221.303 97.3765 222.672 96.5772C224.793 95.3419 226.845 93.9613 229.103 93.0893C230.609 92.29 231.156 90.5461 231.84 89.0202C232.456 87.5669 232.661 85.8229 232.388 84.2243C231.635 82.4804 229.856 81.8264 228.419 80.8091C227.256 80.1551 226.161 79.3559 225.135 78.4112C222.535 76.2313 219.593 74.3421 217.677 71.3628C218.566 71.5082 219.182 72.3801 219.866 72.8888C221.851 74.778 224.177 76.304 226.093 78.1932C228.214 80.0825 231.224 80.8091 232.867 83.2797C233.961 85.0963 233.414 87.3489 232.73 89.2382C232.114 90.6188 231.498 92.072 230.54 93.2347C229.377 94.1793 227.94 94.5426 226.64 95.3419C225.34 96.2139 224.04 96.8679 222.672 97.7398C221.098 97.9578 219.456 97.8851 217.95 97.3038C215.693 95.9959 213.64 94.3973 211.313 93.2347C206.25 89.8195 201.597 85.7503 196.534 82.2624C193.045 79.7918 189.487 77.6846 185.997 75.2867C182.097 72.4528 178.128 69.6916 174.023 67.1483C173.658 66.8577 173.339 66.5912 173.065 66.349Z" fill="black"/>
<path fill-rule="evenodd" clip-rule="evenodd" d="M119.216 68.8923C121.885 68.1657 124.759 68.6743 127.496 68.529C127.701 68.6017 128.043 68.8923 128.18 69.0376C128.18 69.4252 128.18 69.8127 128.18 70.2003C126.606 72.0895 124.074 72.0169 121.953 71.6535C120.859 71.4355 119.695 71.3629 118.806 70.6363C118.259 69.9823 118.806 69.401 119.216 68.8923ZM119.216 69.7643C119.49 70.2003 119.901 70.4183 120.311 70.7089C121.611 70.9269 122.98 71.2175 124.348 71.1449C125.58 71.2175 127.222 70.7089 127.632 69.2556C126.401 69.1103 125.238 69.183 124.006 69.183C122.364 69.2556 120.722 69.0376 119.216 69.7643Z" fill="black"/>
<path d="M144.122 68.8196C145.012 69.4736 145.901 70.1275 146.928 70.2729C147.68 70.4908 148.159 69.8369 148.775 69.5462C148.775 69.8369 148.707 70.3455 148.707 70.5635C147.475 71.5808 145.833 70.9995 144.67 70.2002C144.259 69.9095 144.259 69.2556 144.122 68.8196Z" fill="black"/>
<path d="M165.265 70.055C165.607 69.6917 165.949 69.1104 166.497 69.2558C166.633 69.9097 166.086 70.273 165.812 70.7817C164.649 70.8543 163.418 70.7817 162.87 69.5464C163.691 69.6191 164.444 69.8371 165.265 70.055Z" fill="black"/>
<path d="M77.8206 73.3975C78.0943 73.3248 78.5733 73.3248 78.847 73.3248C80.7628 74.2695 82.1997 76.0134 83.3629 77.83C82.8155 77.7573 82.3365 77.6847 81.9944 77.2487C80.626 75.9407 79.3944 74.4148 77.8206 73.3975Z" fill="black"/>
<path d="M83.9102 77.7573C84.7313 77.7573 85.7576 77.6846 86.2365 78.6292C87.126 80.2278 88.4261 81.6085 90.1366 82.1898C91.2998 82.3351 92.5314 82.0445 93.6262 82.4804C94.0823 82.5289 94.3789 82.7953 94.5157 83.2797C92.8052 83.2071 91.0946 83.5704 89.4524 83.2797C87.4682 82.6258 85.9628 80.9545 85.2102 78.9199C84.754 78.7261 84.3207 78.5566 83.9102 78.4112C83.9102 78.1933 83.9102 77.9026 83.9102 77.7573Z" fill="black"/>
<path d="M115.248 79.4286C116.343 80.3732 116.959 81.9718 118.464 82.4078C118.532 83.2071 117.643 83.0618 117.164 82.8438C116.206 82.0445 115.043 80.9545 115.248 79.4286Z" fill="black"/>
<path d="M197.766 79.5013C201.529 81.8993 204.745 85.0238 208.508 87.2764C209.466 87.8577 210.424 88.439 211.382 88.9476C212.545 89.8196 214.393 90.3283 214.735 91.9995C213.298 91.1276 212.135 89.965 210.629 89.3837C206.387 87.1311 202.829 83.9338 198.929 81.1C198.382 80.7366 197.834 80.228 197.766 79.5013Z" fill="black"/>
<path d="M142.822 79.9374C142.959 80.01 143.301 80.3007 143.438 80.446C143.507 81.5359 144.122 82.4806 145.012 83.0619C145.901 82.9166 146.722 82.4806 147.612 82.4806C147.886 83.5706 147.954 84.8058 148.912 85.5325C149.459 85.7505 150.075 85.5325 150.623 85.6052C150.486 86.6224 149.254 86.5498 148.57 86.2591C147.543 85.5325 147.338 84.2972 146.996 83.2073C146.449 83.4979 145.901 83.8612 145.217 83.7159C144.054 83.7885 143.37 82.6259 142.822 81.6813C142.822 81.1 142.822 80.5187 142.822 79.9374Z" fill="black"/>
<path d="M95.6106 83.4977C96.2264 83.3523 96.8422 82.989 97.458 82.989C99.4423 83.4977 100.4 85.6049 102.179 86.5496C103.684 87.5669 105.6 86.5496 107.037 87.5669C106.421 88.5842 105.395 87.4942 104.506 87.9302C103.342 88.2935 102.179 87.7849 101.153 87.2036C99.8528 86.3316 99.0317 84.9509 97.6632 84.2243C96.979 83.9337 95.8158 84.4423 95.6106 83.4977Z" fill="black"/>
<path d="M173.886 84.6605C174.57 86.2591 176.076 87.2764 177.786 87.0584C177.786 88.221 176.418 87.7851 175.734 87.5671C174.639 87.2764 173.134 85.9685 173.886 84.6605Z" fill="black"/>
<path d="M177.649 86.695C178.334 88.1483 180.66 87.2037 180.523 85.6777C180.044 85.8957 179.565 86.259 179.155 86.6224C178.744 86.6224 178.06 86.695 177.649 86.695Z" fill="black"/>
<path fill-rule="evenodd" clip-rule="evenodd" d="M162.87 86.6223C163.828 86.5497 164.786 86.6224 165.675 87.0583C167.386 88.003 169.165 89.3836 169.644 91.4182C169.712 92.2901 168.891 92.7988 168.344 93.3801C167.386 93.3801 166.497 93.2348 165.607 92.8714C163.828 91.7815 161.981 89.8195 162.323 87.349C162.46 87.2036 162.733 86.8403 162.87 86.6223ZM163.007 87.4217C162.733 89.8922 164.786 91.6361 166.702 92.5808C167.204 92.5808 167.728 92.5808 168.276 92.5808C168.823 92.1448 169.302 91.2728 168.686 90.6188C167.933 88.8749 166.086 88.3663 164.649 87.4217C164.102 87.4217 163.554 87.4217 163.007 87.4217Z" fill="black"/>
<path d="M222.877 92.2175C225.066 90.4735 227.666 88.9476 229.24 86.4771C230.061 86.5497 229.377 87.349 229.24 87.6397C227.461 89.8922 225.135 91.4182 222.877 92.9441C221.577 92.8714 219.593 93.4528 219.045 91.9268C220.277 92.3628 221.577 92.2901 222.877 92.2175Z" fill="black"/>
<path d="M107.174 88.1482C107.242 88.0028 107.311 87.7848 107.379 87.7122C110.048 88.6568 113.127 87.6395 115.727 89.1654C118.737 90.8367 122.159 91.0547 125.374 92.1447C128.111 92.726 130.848 91.2 133.517 91.9993C135.09 92.5807 136.596 93.4526 138.306 93.6706C141.248 94.0339 143.985 95.6325 146.928 96.2138C147.954 95.9232 148.843 95.1966 149.801 94.6879C149.938 95.9959 148.638 96.5772 147.68 97.0132C145.764 97.3038 144.054 95.9959 142.206 95.4146C140.291 94.5426 138.238 94.9059 136.254 94.3246C134.611 93.816 133.106 92.726 131.327 92.6533C129.959 92.8713 128.522 93.0893 127.153 93.3073C125.374 93.162 123.664 92.3627 121.953 91.9267C119.969 91.4181 118.053 91.1274 116.069 90.6187C114.632 90.1827 113.332 89.3108 111.827 89.2381C110.321 88.9475 108.884 89.0201 107.448 88.5115C107.379 88.4388 107.242 88.2208 107.174 88.1482Z" fill="black"/>
<path d="M152.88 95.8507C153.086 95.8507 153.565 95.9234 153.838 95.996C154.659 96.868 155.549 97.8126 156.575 98.5393C157.875 98.6846 159.038 98.0307 160.202 97.74C160.954 97.8127 161.502 98.4666 162.118 98.9026C162.711 98.8542 163.303 98.8542 163.896 98.9026C163.281 100.429 161.296 99.3386 160.407 98.6119C159.381 98.9752 158.286 99.3386 157.191 99.4839C155.48 99.1206 154.112 97.8127 152.88 96.65C152.88 96.432 152.88 95.996 152.88 95.8507Z" fill="black"/>
<path d="M193.934 98.83C194.687 98.4666 195.166 97.74 195.576 96.9407C195.667 97.3767 195.781 97.8369 195.918 98.3213C194.208 100.647 190.923 100.792 188.597 99.5566C187.502 98.83 186.408 99.9926 185.313 100.211C183.534 100.501 181.686 100.647 179.907 100.283C179.839 100.138 179.702 99.8472 179.702 99.7019C181.344 99.4839 183.055 99.3386 184.697 98.9753C185.86 98.7573 186.955 97.8853 188.187 98.176C189.213 98.5393 190.171 99.1933 191.266 99.1933C192.155 99.2659 193.045 99.048 193.934 98.83Z" fill="black"/>
<path d="M164.786 98.539C165.288 98.3937 165.812 98.3937 166.36 98.539C166.976 98.9024 167.591 99.2657 168.276 99.5564C169.302 99.847 170.26 99.1204 171.286 99.411C172.655 99.629 173.955 99.9923 175.392 100.065C175.323 100.21 175.186 100.501 175.186 100.719C173.886 100.864 172.586 100.719 171.355 100.501C170.26 100.21 169.097 101.082 168.002 100.574C166.907 100.065 165.744 99.411 164.786 98.539Z" fill="black"/>
<path fill-rule="evenodd" clip-rule="evenodd" d="M11.2453 114.017C7.75574 113.29 4.19774 112.491 0.708176 111.691C0.913444 110.674 0.913444 109.584 1.05029 108.494C1.46083 107.477 1.87138 106.387 2.62403 105.515C2.62403 105.37 2.69245 105.079 2.69245 104.934C5.2241 105.37 7.68732 106.096 10.219 106.605C66.7362 120.266 123.39 133.563 179.907 147.442C180.729 147.733 181.686 147.587 182.508 148.096C182.508 148.459 182.508 148.895 182.576 149.259C182.713 150.058 182.302 150.857 181.96 151.511C180.592 151.511 179.36 150.857 177.992 150.785C176.76 150.349 175.46 150.349 174.297 149.913C172.86 149.767 171.56 149.186 170.191 149.113C169.097 148.677 167.865 148.677 166.77 148.314C165.744 148.023 164.581 148.023 163.554 147.587C162.186 147.442 160.886 146.933 159.518 146.788C158.491 146.425 157.465 146.352 156.438 146.061C147.407 144.172 138.375 142.138 129.411 140.176C128.864 140.103 128.317 140.03 127.769 139.74C115.248 137.196 102.863 134.217 90.342 131.601C89.4525 131.238 88.4946 131.238 87.6051 130.947C62.2203 125.352 36.6986 119.684 11.2453 114.017ZM1.66611 110.965C2.76088 109.366 3.65036 107.477 3.58194 105.515C3.10298 105.878 2.55559 106.314 2.41875 106.896C1.73452 108.131 1.324 109.512 1.324 110.892C1.39242 110.965 1.59769 110.965 1.66611 110.965ZM8.37154 112.781C8.37154 112.781 8.39435 112.757 8.43996 112.709C9.26104 113.072 10.1505 113.072 11.04 113.363C14.3243 114.017 17.6086 114.816 20.8929 115.47C21.9192 115.906 23.0824 115.761 24.1088 116.197C27.3247 116.778 30.4721 117.65 33.688 118.304C34.8512 118.667 36.0143 118.595 37.1091 119.031C44.704 120.629 52.2306 122.446 59.8255 123.899C66.6678 125.57 73.5785 126.951 80.4207 128.549C114.222 135.889 148.022 143.3 181.755 151.003C181.846 150.228 181.915 149.428 181.96 148.605C181.071 148.023 179.907 148.241 178.95 147.805C168.891 145.407 158.765 143.082 148.638 140.539V140.612C115.932 132.837 83.2261 124.916 50.5884 116.996C49.9042 116.705 49.0147 116.851 48.3989 116.415C39.2302 114.307 30.0616 111.982 20.9613 109.875C15.3507 108.567 9.73998 107.041 4.12932 105.878C4.06089 107.84 3.30824 109.802 2.07663 111.328C4.19774 111.837 6.31885 112.2 8.37154 112.781Z" fill="black"/>
<path fill-rule="evenodd" clip-rule="evenodd" d="M203.24 143.082C203.103 143.373 202.761 143.736 202.35 143.591C168.344 133.2 134.406 122.518 100.4 111.837C76.2468 104.28 52.0936 96.5774 27.9404 89.093C26.9824 88.8023 25.9561 88.5117 25.0666 88.003C25.7508 87.6397 25.4771 86.7678 25.6824 86.1138C25.7508 84.8058 26.5035 83.6432 27.2561 82.6259C27.5298 82.4079 27.7351 82.0446 27.8035 81.6813C30.6088 82.3352 33.2089 83.4252 35.9458 84.2972C90.8893 102.681 145.97 120.774 200.913 139.304C201.803 139.74 202.829 139.812 203.65 140.321C203.513 141.193 203.787 142.283 203.24 143.082ZM202.624 143.155C202.806 142.38 202.943 141.581 203.034 140.757C199.75 139.449 196.329 138.504 192.976 137.342C149.733 123.1 106.558 108.494 63.3834 94.1068C51.9567 90.3283 40.5986 86.4044 29.1035 82.6986C28.9667 84.2972 28.2825 85.6778 27.5298 86.9857C27.2561 87.3248 26.9596 87.6397 26.6403 87.9304C76.9311 103.698 127.222 119.249 177.513 135.089C185.86 137.85 194.276 140.394 202.624 143.155ZM27.0508 86.5498C27.8035 85.2418 28.5562 83.8612 28.6246 82.3353C28.0772 82.6259 27.5982 83.0619 27.3246 83.6432C26.5035 84.8058 26.0245 86.2591 25.9561 87.7124C26.3666 87.4217 26.7772 87.0584 27.0508 86.5498Z" fill="black"/>
</svg>
