<svg width="242" height="150" viewBox="0 0 242 150" fill="none" xmlns="http://www.w3.org/2000/svg">
<path d="M47.3228 113.36C48.7316 112.573 50.0515 111.732 51.5999 111.216C52.1583 111.009 52.7463 111.25 53.0803 111.703C53.7654 112.68 54.1798 113.797 54.7929 114.791C55.4061 115.785 56.125 116.906 56.1798 118.108C55.7059 118.674 55.1263 119.114 54.4409 119.427C52.0422 120.522 49.8675 122.248 48.4923 124.468C47.7602 125.551 48.0772 127.222 46.8672 127.886C45.5134 128.584 44.1596 129.281 42.6832 129.78C40.9191 130.347 39.2395 131.273 37.4754 131.839C35.3856 132.634 33.3633 133.717 31.3073 134.655C29.3782 135.488 27.6224 136.736 25.6933 137.569C23.2226 138.681 20.8915 140.064 18.2856 140.6C16.6359 140.684 15.6548 139.094 14.792 138.006C13.9336 136.615 12.7875 135.29 12.166 133.615C12.7204 132.422 13.9473 131.83 15.0134 131.2C18.6476 128.904 22.2436 126.768 26.0173 124.743C33.0783 120.882 40.173 117.165 47.3228 113.36Z" fill="#333F72"/>
<path d="M211.737 48.2991C217.042 45.6859 222.296 42.857 227.775 40.6584C230.229 39.4745 232.839 38.6332 235.326 37.593C236.024 37.6566 236.354 38.4139 236.705 38.9385C237.124 39.7508 237.847 40.5674 237.851 41.553C237.716 42.2679 236.924 42.4538 236.455 42.716C233.028 44.2805 229.551 45.6292 226.213 47.2487C223.755 48.7372 221.068 49.9 218.416 51.2066C216.14 52.5005 213.741 53.5957 211.359 54.7627C209.066 55.9848 206.583 56.7203 204.256 57.7985C203.363 57.553 202.717 56.415 203.195 55.5436C202.901 55.1572 202.632 54.7652 202.387 54.3675C202.611 53.7076 202.535 52.7389 203.326 52.5529C206.212 51.2675 208.852 49.5845 211.737 48.2991Z" fill="#333F72"/>
<path d="M60.1048 78.6326C60.7437 77.7994 61.2769 76.8393 62.2161 76.3149C63.4092 75.5791 64.7925 75.3298 66.2096 75.2243C66.4423 75.2455 66.9076 75.2879 67.1233 75.2372C67.1571 75.381 67.1359 75.6137 67.0978 75.7744C64.9827 75.8163 62.5588 76.1585 61.3316 78.0406C60.3965 79.5506 59.0003 80.7136 57.2912 81.1913C56.4832 81.3053 55.8655 81.9059 55.8188 82.6758C55.569 83.8729 55.7676 85.0404 55.7335 86.1868C55.5728 86.1487 55.2682 86.1444 55.1794 86.0894C54.9513 84.4734 54.4948 82.5317 55.6245 81.2036C57.0545 80.1845 58.992 80.0326 60.1048 78.6326Z" fill="black"/>
<path d="M71.0365 73.4826C71.7938 73.1528 72.5974 73.3433 73.3842 73.4619C74.6535 72.4046 76.2399 71.7281 77.8854 71.9484C79.0106 72.2151 80.0427 72.7314 81.1297 73.1589C82.1578 72.6895 83.1901 71.9156 84.3533 72.0216C85.7112 72.3095 86.9547 73.0797 88.0544 73.8836C87.9274 73.9894 87.8343 74.2389 87.7793 74.3277C86.8361 73.8665 85.9479 73.3164 85.0215 72.927C84.184 72.5926 83.3379 72.8674 82.5807 73.1972C83.6041 74.3227 83.9211 75.9936 83.6839 77.5672C83.54 77.601 83.2862 77.8125 83.1592 77.9182C83.134 77.1652 83.1807 76.3954 83.1555 75.6424C82.9695 74.8513 82.8216 73.8995 81.8572 73.6709C81.0618 74.1614 80.2256 74.5857 79.3485 74.9436C79.5178 74.3726 79.9705 74.0385 80.4232 73.7044C79.5138 73.387 78.6805 72.748 77.6611 72.6082C75.9606 72.4768 74.6363 73.6229 73.1768 74.1937C72.4619 74.0581 71.5651 74.1172 71.0365 73.4826Z" fill="black"/>
<path d="M67.182 78.7145C66.9705 78.4606 66.7534 78.1828 66.5307 77.881C66.6831 77.2381 66.8525 76.667 66.8441 75.986C65.8118 76.7599 65.6591 78.693 67.0677 79.1967C67.0339 79.0529 67.127 78.8033 67.182 78.7145Z" fill="black"/>
<path d="M71.5611 74.4216C71.7768 74.3709 72.2972 74.3245 72.5298 74.3457C72.847 74.7265 73.0373 75.213 73.2275 75.6995C72.4957 75.492 72.0559 74.9124 71.5611 74.4216Z" fill="black"/>
<path d="M113.05 54.9543C113.769 54.7853 114.463 55.1534 115.199 55.0563C115.956 54.7265 116.608 54.2698 117.382 54.0119C118.698 53.4749 120.229 54.1774 121.511 53.4967C122.522 52.9554 123.567 52.558 124.734 52.3594C125.953 52.3766 127.518 51.9327 128.309 53.0369C127.213 53.2186 126.071 52.88 124.992 53.1336C123.592 53.3109 122.488 54.1018 121.244 54.6218C121.624 55.5948 121.59 56.7412 121.146 57.7564C121.095 57.5406 120.939 57.1979 120.816 56.9991C120.897 56.373 120.833 55.7808 120.842 55.1717C120.825 55.0997 120.631 54.9178 120.597 54.774C119.539 54.7949 118.503 54.5832 117.424 54.8368C116.472 54.9847 115.689 55.8517 114.721 55.9276C114.969 56.1223 115.241 56.3113 115.537 56.4946C115.664 56.819 115.809 57.1137 115.973 57.3788C115.846 57.4846 115.63 57.5353 115.503 57.641C115.152 57.1164 114.763 56.7525 114.357 56.3167C114.467 56.1391 114.571 55.9375 114.67 55.7119C114.023 55.864 113.401 55.479 113.05 54.9543Z" fill="black"/>
<path d="M110.444 58.0714C110.918 57.5046 111.503 57.0888 112.2 56.8238C111.848 57.5894 111.197 58.0461 110.723 58.6129C110.266 59.2515 109.915 60.0171 109.157 60.3469C109.221 59.649 109.623 59.0991 110.042 58.6212C110.08 58.4605 110.317 58.1771 110.444 58.0714Z" fill="black"/>
<path d="M153.54 38.9851C155.194 37.3061 157.132 35.864 159.522 35.378C160.043 35.3316 160.639 34.9637 161.134 35.4545C160.195 35.9788 159.137 35.9997 158.126 36.541C156.053 37.4078 153.955 38.8118 153.028 41.0028C152.457 42.1237 152.207 43.3208 151.885 44.5348C151.758 44.6405 151.504 44.8519 151.305 44.9746C151.175 42.8045 152.19 40.6684 153.54 38.9851Z" fill="black"/>
<path d="M104.504 62.5035C104.994 62.0086 105.502 61.5857 106.01 61.1628C106.099 61.2178 106.42 61.294 106.509 61.3491C104.224 63.2522 103.306 66.1243 102.425 68.8356C102.18 69.7281 101.596 70.4725 101.439 71.42C101.155 73.7635 100.622 76.0138 100.017 78.2811C99.6443 78.4192 99.2776 78.5813 98.9166 78.7673C98.5868 78.0101 99.7713 77.8834 99.7629 77.2024C100.114 75.1466 100.699 73.112 100.873 70.9462C101.791 68.0741 102.748 65.0412 104.504 62.5035Z" fill="black"/>
<path d="M61.0937 83.4847C61.5083 83.3114 62.0287 83.265 62.2739 83.6627C62.8195 84.3692 63.365 85.0757 63.7117 85.9049C65.0443 85.4399 66.5672 85.4613 67.7602 84.7255C68.4035 83.5878 66.8597 82.5087 67.5748 81.3541C68.2218 82.4921 68.7037 83.8966 68.2551 85.2163C66.7405 85.8759 65.0145 86.2817 63.3267 86.5267C62.963 85.6256 62.4556 84.7583 61.7662 84.0856C61.5717 83.9036 61.2714 83.5948 61.0937 83.4847Z" fill="black"/>
<path d="M57.6284 87.7903C57.7513 86.6989 58.1068 85.6287 58.9065 84.8336C59.2406 85.2863 58.8936 85.7474 58.6905 86.1746C58.4323 86.6906 58.3349 87.2447 58.2375 87.7989C58.4954 88.573 59.2484 88.5478 59.9337 88.2349C59.7939 89.2543 58.7745 89.1145 58.1146 88.8902C57.9286 88.5292 57.7665 88.1625 57.6284 87.7903Z" fill="black"/>
<path d="M65.0195 82.1065C65.6879 81.7217 66.3563 81.3369 67.1305 81.079C66.7412 82.0053 65.7681 82.3858 64.939 82.7326C64.9771 82.5718 64.9814 82.2672 65.0195 82.1065Z" fill="black"/>
<path d="M109.296 63.1983C109.411 62.7161 109.313 61.98 109.855 61.7009C110.477 62.086 109.783 63.008 109.296 63.1983Z" fill="black"/>
<path d="M69.2625 81.1091C70.8701 80.1999 72.6004 79.4896 74.2419 78.7243C74.7523 78.9585 75.2203 79.2279 75.6461 79.5325C76.53 80.3872 77.2023 82.2782 75.8654 83.0478C75.8401 82.2949 76.0645 81.635 76.0392 80.882C75.794 80.4844 75.4218 80.1924 75.1046 79.8116C74.927 79.7016 74.6267 79.3927 74.449 79.2827C72.8076 80.048 70.9378 80.4876 69.4696 81.6675C69.3553 82.1497 69.3129 82.6151 69.0929 82.9703C68.8983 82.7884 68.6362 82.3188 68.5135 82.12C68.7336 81.7647 68.9832 81.4277 69.2625 81.1091Z" fill="black"/>
<path d="M107.308 63.1344C108.222 63.1473 109.499 64.0613 109.127 65.0595C108.454 64.4587 107.782 63.8579 107.308 63.1344Z" fill="black"/>
<path d="M132.573 51.8068C133.512 51.2824 134.21 52.6362 135.162 52.4884C136.812 52.4041 138.605 52.286 140.17 53.1323C141.769 54.1225 144.007 54.2795 145.022 56.0141C145.246 56.6444 145.952 57.3891 145.245 57.9346C144.594 55.8109 142.492 54.9391 140.601 54.3211C141.05 55.5818 141.261 57.1258 140.651 58.4075C140.293 58.3905 139.929 58.3495 139.56 58.2846C139.759 58.1619 140.228 57.8998 140.427 57.7771C140.483 56.3981 140.36 54.9091 139.552 53.7329C138.254 53.0516 136.748 53.1021 135.331 53.2075C134.218 53.3173 133.279 52.5514 132.573 51.8068Z" fill="black"/>
<path d="M159.665 40.505C159.302 39.6039 160.19 38.8638 160.875 38.551C161.006 39.4309 160.05 39.8833 159.665 40.505Z" fill="black"/>
<path d="M165.656 36.2888C166.041 35.667 166.912 36.1452 167.437 35.7942C168.753 35.2573 169.895 34.3057 171.346 34.3441C172.814 34.4543 174.239 35.0299 175.652 35.229C175.868 35.1783 176.172 35.1826 176.333 35.2207C177.123 35.1363 177.888 35.0575 178.63 34.9843C181.316 35.1117 183.736 36.3643 186.121 37.4731C187.492 38.1375 189.048 38.3028 190.419 38.9673C192.161 39.9236 193.083 41.9078 194.479 43.3251C195.147 44.2305 196.196 44.8187 196.936 45.7072C195.929 45.9439 195.244 44.9666 194.517 44.4546C192.977 43.071 191.912 41.1207 190.262 39.9148C188.697 39.0684 186.891 38.81 185.309 37.8918C183.3 36.7704 181.181 35.8266 178.892 35.4539C177.475 35.5594 175.999 36.0582 174.552 35.7153C173.499 35.4317 172.391 35.2368 171.282 35.042C169.277 34.9063 167.665 37.4102 165.656 36.2888Z" fill="black"/>
<path d="M113.535 62.5053C114.36 61.173 115.435 59.9338 117 59.4899C117.918 59.1982 118.904 59.1942 119.856 59.0463C119.89 59.1902 119.868 59.4228 119.83 59.5836C118.663 59.7821 117.478 59.9088 116.344 60.2512C115.566 60.8137 114.982 61.5581 114.381 62.2305C114.029 62.6676 113.735 63.1413 113.501 63.6517C113.987 64.7516 115.07 65.4837 116.085 65.928C117.828 65.5942 119.537 65.1165 121.09 64.2962C121.475 63.6745 121.843 62.9808 121.962 62.194C121.484 61.7751 121.006 61.3562 120.418 61.115C120.557 61.3858 120.765 61.9442 120.904 62.2149C120.743 62.1768 120.422 62.1006 120.261 62.0625C120.16 61.631 120.082 61.1939 120.029 60.7511C121.074 60.3537 121.958 61.2084 122.448 62.0037C122.702 63.0825 121.919 63.9495 121.513 64.8039C119.85 65.8019 117.841 65.9707 116.094 66.6091C114.774 66.1604 113.513 65.3184 113.031 63.9139C113.07 63.7531 113.184 63.2709 113.222 63.1102C112.934 63.1778 112.431 63.2961 112.16 63.4357C112.152 63.1847 112.143 62.9337 112.135 62.6827C111.957 62.5727 111.708 62.4796 111.53 62.3696C112.199 61.9847 112.875 62.281 113.535 62.5053Z" fill="black"/>
<path d="M52.9659 91.8461C53.406 91.1355 53.7784 90.1373 54.6414 89.9344C54.6753 90.0783 54.7979 90.2771 54.8148 90.349C53.1688 92.7091 52.1784 95.5981 52.55 98.4705C52.6472 99.2065 52.7443 99.9426 52.6807 100.641C52.5031 100.531 52.2916 100.277 52.114 100.167C51.4546 97.362 51.7471 94.4094 52.9659 91.8461Z" fill="black"/>
<path d="M76.9704 79.6765C77.1735 79.2493 77.5543 78.9321 78.0746 78.8856C79.3353 78.4375 80.7524 78.332 82.0002 78.7976C82.3174 79.1784 82.6896 79.4703 82.808 79.9737C83.1123 81.2682 83.8312 82.3894 84.2624 83.5781C84.3638 84.0096 84.1607 84.4368 83.763 84.6821C83.7265 83.8812 83.5335 83.1677 83.1839 82.5415C82.6596 81.6023 82.406 80.5236 82.0805 79.4618C80.4267 78.5604 78.6583 79.4314 76.9704 79.6765Z" fill="black"/>
<path d="M121.264 59.5499C121.636 58.5517 122.381 57.8454 123.371 57.5368C123.405 57.6806 123.329 58.0021 123.307 58.2347C122.766 58.5138 122.295 58.8775 121.894 59.3258C122.055 60.6541 123.624 61.1959 123.641 62.558C122.503 61.9148 121.767 60.7218 121.264 59.5499Z" fill="black"/>
<path d="M165.097 37.7861C166.155 37.7652 166.226 39.0385 166.628 39.7789C167.023 39.7366 167.429 39.7424 167.846 39.796C167.411 40.202 166.852 40.4092 166.666 40.9083C166.404 41.7289 166.949 42.4355 167.262 43.1208C167.82 42.9137 168.451 42.6896 169.094 42.842C169.394 43.1509 168.886 43.5738 168.565 43.4976C167.291 43.5692 166.086 43.9285 164.965 44.6474C164.931 44.5036 164.791 44.2329 164.758 44.089C165.347 43.7987 165.936 43.5083 166.526 43.218C166.306 42.7131 166.11 42.2026 165.938 41.6865C165.964 41.1493 165.955 40.4682 166.569 40.1723C165.698 39.6941 165.66 38.5646 165.097 37.7861Z" fill="black"/>
<path d="M125.639 56.852C126.163 56.501 126.696 56.8311 127.123 57.0342C127.559 57.9184 127.994 58.8026 128.358 59.7037C128.337 59.9363 128.366 60.3847 128.328 60.5455C128.273 60.6343 128.057 60.685 127.986 60.7019C127.715 59.5513 127.373 58.4175 126.633 57.529C126.277 57.309 125.946 57.0833 125.639 56.852Z" fill="black"/>
<path d="M131.405 54.5858C132.526 55.1571 132.415 56.6249 133.029 57.6191C133.688 57.8435 134.437 58.1228 135.152 58.2583C136.404 58.4193 137.487 57.8612 138.705 57.8783C137.94 58.8173 136.527 58.6182 135.431 58.7998C134.484 58.6431 133.464 58.5033 132.576 57.9532C131.963 56.959 131.603 55.7533 131.405 54.5858Z" fill="black"/>
<path d="M68.5895 84.3788C69.3382 84.6581 69.998 84.8825 70.7679 84.9291C72.4896 84.828 73.9746 83.72 75.578 83.1154C74.8373 84.8073 72.646 85.1707 70.9751 85.4876C70.1164 85.3859 68.915 85.4406 68.5895 84.3788Z" fill="black"/>
<path d="M157.918 42.4337C158.324 42.8695 158.315 43.4786 158.29 44.0159C158.15 45.0353 157.866 46.0886 157.388 46.9599C157.046 45.8261 157.778 44.7434 157.74 43.6139C157.746 43.2078 157.805 42.8144 157.918 42.4337Z" fill="black"/>
<path d="M103.03 71.7292C102.628 70.9888 102.48 70.037 102.903 69.2545C103.216 69.0798 103.577 68.8937 103.986 68.6964C104.02 68.8402 104.16 69.111 104.193 69.2548C103.869 69.3816 103.55 69.5325 103.237 69.7072C103.232 70.1133 103.25 70.5138 103.292 70.9086C103.453 70.9467 103.812 70.8622 104.045 70.8834C104.13 71.243 103.893 71.5263 103.816 71.8478C103.656 71.8097 103.19 71.7673 103.03 71.7292Z" fill="black"/>
<path d="M148.555 49.4157C149.287 48.3329 150.163 47.2163 151.339 46.4086C151.445 46.5355 151.622 46.6455 151.783 46.6836C150.239 48.185 148.728 49.8302 148 51.8986C146.972 53.6582 146.227 55.6547 146.324 57.681L145.943 57.9981C145.875 57.7105 145.812 57.1182 145.745 56.8306C145.982 55.257 146.363 53.6496 147.116 52.3342C147.649 51.374 147.916 50.2489 148.555 49.4157Z" fill="black"/>
<path d="M91.6921 75.1533C92.8935 75.0985 94.1797 74.1131 95.3513 74.9002C96.506 75.6153 97.6226 76.4912 98.3584 77.6842C98.7094 78.2088 97.9733 78.306 97.7449 77.9802C96.6833 77.0155 95.6599 75.8901 94.3063 75.2976C93.5153 75.4836 92.1234 76.342 91.6921 75.1533Z" fill="black"/>
<path d="M169.09 39.2759C170.44 38.8827 171.764 39.0268 173.071 39.099C173.858 39.2176 174.738 39.0866 175.376 39.5436C174.331 39.9411 175.029 41.2948 175.071 42.1197C175.13 43.0165 174.724 43.871 173.721 43.8031C173.688 43.6592 173.692 43.3547 173.73 43.1939L174.212 43.3082C174.288 42.9868 174.389 42.6597 174.513 42.3269C174.399 41.5189 174.268 40.639 174.082 39.8479C173.261 39.5855 172.381 39.7165 171.523 39.6148C170.77 39.64 170.052 39.7075 169.369 39.8174C169.336 39.6736 169.196 39.4028 169.09 39.2759Z" fill="black"/>
<path d="M89.3439 77.7543C89.3949 76.6799 90.9642 77.2216 91.7341 77.2683C91.975 77.9706 91.8733 78.8293 91.8267 79.5992C91.7886 79.7599 91.8562 80.0476 91.835 80.2802C91.8293 80.6863 91.7164 81.067 91.4963 81.4223C91.4456 81.2066 91.2723 80.792 91.2046 80.5043C91.2428 80.3436 91.247 80.039 91.2682 79.8063C91.3063 79.6456 91.3106 79.341 91.2599 79.1253C91.3249 78.7559 91.3954 78.4104 91.4716 78.0889C90.9261 77.3824 90.025 77.746 89.3439 77.7543Z" fill="black"/>
<path d="M106.736 69.416C108.344 68.5069 109.884 67.31 111.855 67.302C110.336 68.2661 108.538 68.6888 107.159 69.9237C106.951 70.6555 107.01 71.5523 106.57 72.2629C106.063 71.3956 106.418 70.3254 106.736 69.416Z" fill="black"/>
<path d="M162.592 42.6249C163.611 42.7647 164.246 43.5262 164.609 44.4273C164.246 44.8164 163.865 45.1336 163.484 45.4508C163.349 44.8755 163.73 44.5583 163.861 44.148C163.493 43.5515 162.96 43.2214 162.592 42.6249Z" fill="black"/>
<path d="M62.141 91.8141C62.1032 90.6846 63.2243 89.9657 64.1085 89.5302C64.4216 89.3554 64.7078 89.3893 64.9672 89.6319C63.8673 90.1181 63.0295 91.074 62.141 91.8141Z" fill="black"/>
<path d="M153.94 48.7568C153.839 47.0351 155.536 46.181 157.046 45.826C156.318 46.6042 155.112 46.9635 154.579 47.9236C154.173 48.778 155.433 49.6201 154.689 50.3264C154.41 49.7849 154.16 49.2617 153.94 48.7568Z" fill="black"/>
<path d="M67.8103 88.8119C67.8484 88.6512 68.0853 88.3678 68.1403 88.279C68.7873 89.417 69.2524 90.7496 69.2521 92.0398C69.3535 92.4713 69.0616 92.8435 68.7358 93.0719C68.7573 91.549 68.4911 90.0938 67.8103 88.8119Z" fill="black"/>
<path d="M58.5957 94.1655C58.6719 93.844 58.7298 93.5521 58.7693 93.2898C59.3277 93.0827 59.8904 92.5709 60.3472 93.2225C59.9382 93.4198 59.5293 93.6171 59.1203 93.8144C59.4332 94.4998 59.7405 95.1612 60.0421 95.7986C61.0532 95.2573 61.7471 94.3353 62.2634 93.3032C62.6482 93.9717 62.2632 94.5934 61.9331 95.1264C61.3323 95.7988 60.52 96.2175 59.6908 96.5642C59.2722 95.7519 58.9255 94.9227 58.5957 94.1655Z" fill="black"/>
<path d="M124.72 62.3044C125.316 61.9365 125.947 61.7124 126.632 61.3996C127.08 61.37 127.512 61.2686 127.943 61.1672C127.977 61.311 127.973 61.6156 127.935 61.7763C126.822 61.8861 125.828 62.4992 124.72 62.3044Z" fill="black"/>
<path d="M176.413 38.4652C175.994 37.653 177.174 37.8309 177.64 37.8733C178.731 37.9961 180.093 37.9795 180.723 39.0456C179.294 38.7746 177.847 38.4317 176.413 38.4652Z" fill="black"/>
<path d="M77.2272 85.6116C77.9547 86.1236 78.716 86.7794 79.6509 86.5596C80.332 86.5513 81.0935 85.9169 81.5672 86.6404C80.3615 86.9997 79.012 87.3928 77.8192 86.8384C77.6628 86.4958 77.3837 85.9542 77.2272 85.6116Z" fill="black"/>
<path d="M121.779 64.9689C122.249 64.7067 122.752 64.5884 123.306 64.6858C123.64 65.1385 124.617 65.7436 123.945 66.433C123.805 66.1622 123.543 65.6926 123.42 65.4938C123.314 65.3668 122.993 65.2906 122.887 65.1637C122.473 65.3371 121.969 65.4554 121.779 64.9689Z" fill="black"/>
<path d="M158.056 47.8653C158.957 47.5017 159.909 47.3538 160.827 47.0621C160.793 48.2085 159.236 48.0432 158.462 48.3011C158.356 48.1741 158.162 47.9922 158.056 47.8653Z" fill="black"/>
<path d="M70.4707 89.4765C70.6695 89.3539 71.0122 89.1974 71.2279 89.1467C71.3506 89.3455 71.5958 89.7432 71.7354 90.014C71.5027 89.9928 71.1981 89.9885 71.0374 89.9504C71.2234 90.7414 71.3205 91.4775 71.3626 92.3024C71.5234 92.3405 71.8999 92.3279 72.0606 92.366C72.6359 92.2308 73.3806 91.5245 73.7823 92.2648C73.025 92.5946 72.0858 93.119 71.3033 92.6958C70.5632 91.8073 70.6523 90.5721 70.4707 89.4765Z" fill="black"/>
<path d="M76.4528 87.1596C76.8448 87.3204 77.0675 87.6222 77.121 88.065C77.3408 88.9999 77.4505 90.1124 77.0612 91.0387C76.2545 91.4813 75.4606 91.8704 74.6794 92.2058C74.5736 92.0789 74.506 91.7912 74.4722 91.6474C75.1575 91.3345 75.9317 91.0766 76.5664 90.548C76.8076 89.96 76.6723 89.3847 76.6809 88.7755C76.5569 88.2482 76.4809 87.7095 76.4528 87.1596Z" fill="black"/>
<path d="M107.048 72.6818C108.055 72.4451 108.668 73.4393 109.269 74.057C109.04 74.1613 108.825 74.212 108.621 74.2092C108.11 73.6465 107.543 73.1726 107.048 72.6818Z" fill="black"/>
<path d="M171.018 44.8942C170.794 44.2638 170.481 43.5785 170.257 42.9481C171.01 42.9229 172.106 42.7412 172.579 43.4647C172.076 43.583 171.522 43.4856 171.039 43.3713C171.441 44.1117 171.682 44.8139 171.724 45.6388C171.627 46.1929 171.724 46.929 171.111 47.225C171.085 46.472 171.132 45.7021 171.018 44.8942Z" fill="black"/>
<path d="M63.0078 93.8872C63.6551 93.7351 64.3149 93.9594 65.0129 94.023C65.7066 93.9611 66.4244 93.8935 67.1661 93.8203C67.1999 93.9642 67.2506 94.1799 67.2125 94.3407C65.7954 94.4461 64.1751 94.9788 63.0078 93.8872Z" fill="black"/>
<path d="M152.121 51.9926C153.529 51.2061 155.128 50.9061 156.672 50.6949C157.049 50.6823 157.37 50.7585 157.726 50.9785C158.102 50.9659 158.534 50.8645 158.707 51.2791C159.155 52.5397 160.428 53.7583 159.997 55.1499C159.299 53.7961 158.546 52.5312 157.865 51.2493C156.093 51.1347 154.295 51.5574 152.67 52.3946C153.025 53.9049 153.507 55.3094 154.006 56.7858C155.263 56.6422 156.384 55.9233 157.729 55.8347C157.763 55.9786 157.742 56.2112 157.704 56.372C156.409 56.6763 155.076 57.1413 153.782 57.4457C153.253 56.811 153.034 55.8761 152.776 55.1019C152.467 54.112 152.142 53.0502 152.121 51.9926Z" fill="black"/>
<path d="M115.315 69.7519C115.442 69.6462 115.552 69.4685 115.678 69.3628C116.203 70.302 115.615 71.351 115.12 72.1504C114.904 72.2011 114.489 72.3744 114.29 72.4971C114.697 71.6427 115.247 70.7545 115.315 69.7519Z" fill="black"/>
<path d="M117.726 69.0332C118.121 68.991 118.503 69.0023 118.872 69.0673C118.923 69.283 119.096 69.6976 119.147 69.9134C118.986 69.8753 118.682 69.871 118.593 69.816C118.286 69.5847 117.997 69.3237 117.726 69.0332Z" fill="black"/>
<path d="M128.234 64.6656C128.433 64.543 128.903 64.2808 129.102 64.1581C129.542 64.3077 129.963 64.4869 130.366 64.6956C131.606 65.7704 132.079 67.784 130.86 69.057L130.416 68.782C131.237 67.7542 131.17 66.1764 130.125 65.2836C129.702 64.7759 128.877 64.818 128.234 64.6656Z" fill="black"/>
<path d="M158.923 51.2283C159.267 50.5402 159.724 49.9016 160.294 49.3123C160.48 50.1033 159.853 51.313 158.923 51.2283Z" fill="black"/>
<path d="M92.1096 82.4166C92.4354 82.1882 93.0233 82.4294 92.8921 82.8397C92.7228 83.4108 91.6188 82.9114 92.1096 82.4166Z" fill="black"/>
<path d="M179.893 43.2629C180.583 42.6454 180.562 41.5879 180.736 40.7123C180.97 41.062 181.18 41.4174 181.366 41.7784C180.909 43.7072 178.941 44.7009 177.182 44.9629C176.761 45.1122 176.41 45.0177 176.128 44.6792C177.44 44.4468 178.7 43.9987 179.893 43.2629Z" fill="black"/>
<path d="M83.3604 87.8126C83.4366 87.4911 83.3183 86.9877 83.7667 86.9581C84.4222 87.487 83.9272 88.2864 83.6859 88.8744C83.2839 89.4242 82.0359 90.2489 81.7442 89.3309C82.3238 88.891 83.2587 88.6713 83.3604 87.8126Z" fill="black"/>
<path d="M112.666 73.3342C112.793 73.2284 113.173 72.9113 113.372 72.7886C113.177 73.8969 112.234 74.7258 112.361 75.9103C113.215 76.3165 114.12 76.9386 115.072 76.7907C116.083 76.2494 117.12 75.171 116.904 73.9315C117.048 73.8977 117.247 73.775 117.374 73.6693C117.425 73.885 117.598 74.2996 117.704 74.4266C117.306 75.962 115.998 77.1801 114.471 77.4632C113.401 77.1076 111.971 76.8366 111.811 75.5083C111.857 74.7384 112.209 73.9728 112.666 73.3342Z" fill="black"/>
<path d="M167.181 47.6175C167.325 47.5836 167.595 47.4441 167.739 47.4103C167.997 48.1845 167.557 48.895 167.189 49.5887C165.716 51.0732 163.855 52.1938 161.791 52.4514C161.207 52.3357 160.672 52.1072 160.187 51.7658C161.211 51.6011 162.298 52.0285 163.237 51.5042C164.896 50.8108 167.223 49.7325 167.181 47.6175Z" fill="black"/>
<path d="M98.2986 80.6579C98.3536 80.5691 98.5736 80.2138 98.6117 80.0531C99.3515 82.2318 100.091 84.4105 101.445 86.2932C101.762 86.6739 101.88 87.1773 101.91 87.6257C101.753 89.8635 103.14 91.89 104.387 93.6458C103.469 93.9375 103.055 92.8206 102.543 92.2579C101.452 90.8448 101.279 89.14 100.818 87.5028C99.9178 85.2861 98.298 83.2383 98.2986 80.6579Z" fill="black"/>
<path d="M121.275 70.248C121.41 69.9632 121.522 69.6841 121.609 69.4105C122.066 69.2019 122.523 68.9933 122.98 68.7847C123.085 68.9117 123.136 69.1274 123.242 69.2543C122.568 69.6152 121.912 69.9464 121.275 70.248Z" fill="black"/>
<path d="M134.715 63.8251C134.859 63.7913 135.13 63.6517 135.274 63.6179C135.57 64.2314 135.811 64.9336 136.124 65.619C136.069 65.7078 135.815 65.9193 135.777 66.08C135.375 65.3396 135.045 64.5824 134.715 63.8251Z" fill="black"/>
<path d="M145.262 59.2966C145.321 58.9032 146.29 58.8272 146.121 59.3983C146.006 59.8805 145.093 59.8676 145.262 59.2966Z" fill="black"/>
<path d="M125.945 69.4537C125.983 69.293 126.165 69.0984 126.275 68.9208C127.024 69.2001 127.81 69.3187 128.339 69.9534C128.147 69.9984 127.961 70.0675 127.781 70.1605C127.176 69.8474 126.533 69.695 125.945 69.4537Z" fill="black"/>
<path d="M74.8692 93.9825C76.1637 93.6782 76.2268 95.5607 76.6623 96.4449C76.6199 96.9102 76.5056 97.3924 76.3025 97.8196C75.9093 96.4701 75.605 95.1756 74.8692 93.9825Z" fill="black"/>
<path d="M125.831 69.9358C126.076 70.3335 126.338 70.8031 126.528 71.2896C125.817 73.43 123.584 74.2586 121.71 75.0027C120.817 74.7572 120.458 73.5515 120.881 72.769C121.171 73.3585 121.462 73.948 121.752 74.5374C123.156 74.0555 124.405 73.2308 125.441 72.1524C125.987 71.5687 125.767 70.6338 125.831 69.9358Z" fill="black"/>
<path d="M51.9856 108.014C52.2523 106.888 51.8973 105.378 53.0015 104.587C53.0225 105.645 52.7219 106.626 52.671 107.701C52.73 108.598 52.7171 109.511 52.865 110.463C53.296 112.942 54.9326 115.062 55.8501 117.35C56.4885 119.098 57.9392 120.426 59.6692 121.006C59.136 121.966 58.0194 121.09 57.3808 120.633C55.1814 119.025 54.594 116.204 53.1011 114.05C52.4415 112.536 51.9977 110.971 52.0022 109.376C51.9967 108.922 51.9911 108.468 51.9856 108.014Z" fill="black"/>
<path d="M95.9921 85.3743C96.2121 85.019 96.4618 84.6821 96.741 84.3634C96.7917 84.5792 96.9651 84.9938 97.0158 85.2095C95.8735 86.1611 94.9426 87.3665 93.5 88.0092C94.0713 86.8883 95.1205 86.1863 95.9921 85.3743Z" fill="black"/>
<path d="M175.112 48.1055C175.687 47.9702 176.292 48.2834 176.808 48.5415C177.017 48.9984 177.255 49.4737 177.523 49.9672C177.413 50.1449 177.193 50.5002 177.083 50.6778C176.933 50.2576 176.808 49.8317 176.707 49.4002C176.601 49.2733 176.372 48.9475 176.267 48.8206C175.768 48.6344 175.357 48.5032 175.112 48.1055Z" fill="black"/>
<path d="M104.707 83.7051C104.453 82.6264 104.991 81.3616 106.124 81.0192C106.437 80.8444 106.705 80.9079 106.928 81.2097C106.188 81.6115 105.587 82.2839 105.413 83.1595C105.548 83.7349 106.327 84.4626 105.87 85.1013C105.117 85.1265 104.914 84.2635 104.707 83.7051Z" fill="black"/>
<path d="M80.3052 93.5394C81.257 93.3916 82.1581 93.028 82.9535 92.5374C83.2283 93.3835 82.1833 93.7809 81.553 94.005C81.0665 94.1953 80.3685 94.1317 80.3052 93.5394Z" fill="black"/>
<path d="M95.8692 87.7558C95.827 87.361 95.8623 86.9732 95.9752 86.5926C96.1612 86.9536 96.3473 87.3146 96.5333 87.6756C96.395 88.1634 96.2328 88.6569 96.0466 89.1561C95.1793 89.6635 94.2148 89.4349 93.3392 89.2613C93.2335 89.1343 93.1828 88.9186 93.149 88.7748C93.9401 88.5888 94.7607 88.8512 95.5686 88.7372C95.6448 88.4157 95.745 88.0886 95.8692 87.7558Z" fill="black"/>
<path d="M168.343 52.8842C169.341 51.9665 170.877 51.0742 172.138 51.9163C172.531 51.9756 172.455 52.2971 172.379 52.6185C171.423 51.7808 169.967 52.047 169.185 52.914C168.313 53.726 167.277 54.8045 167.276 56.0947C167.293 56.5967 167.197 57.0493 166.988 57.4525C166.168 55.8999 167.251 54.0515 168.343 52.8842Z" fill="black"/>
<path d="M66.1789 101.566C66.3228 101.532 66.6273 101.536 66.7881 101.574C66.9953 102.133 67.0036 102.814 66.5847 103.292C65.9332 103.748 64.7232 104.412 64.1819 103.401C64.7573 103.266 65.4552 103.33 65.9629 102.907C66.1661 102.479 66.1366 102.031 66.1789 101.566Z" fill="black"/>
<path d="M135.12 70.7119C135.598 69.8406 136.148 68.9524 136.787 68.1192C137.202 69.236 136.11 70.4033 135.12 70.7119Z" fill="black"/>
<path d="M184.495 46.0516C185.557 45.7261 186.479 46.42 187.35 46.8982C188.129 47.626 188.742 48.6202 188.386 49.6903C187.853 50.6505 186.719 50.9929 185.991 51.7711C185.484 52.194 185.027 52.8327 184.274 52.8579C183.665 52.8493 183.115 52.4474 182.599 52.1892C182.015 51.6434 181.237 50.9156 181.965 50.1374C182.104 50.4082 182.294 50.8947 182.362 51.1824C182.918 51.6083 183.491 52.0047 184.084 52.3714C185.222 51.7244 186.148 50.8236 187.269 50.1047C187.756 49.9144 187.836 49.2884 188.039 48.8612C187.743 48.2477 187.304 47.6681 186.682 47.283C186.026 46.7541 185.024 46.6863 184.495 46.0516Z" fill="black"/>
<path d="M71.4207 99.6504C72.1567 99.5533 72.8759 99.3842 73.5612 99.0713C73.7389 99.1813 74.0053 99.3464 74.0942 99.4014C73.6006 99.6692 73.083 99.9426 72.5415 100.222C72.1383 100.013 71.7647 99.8225 71.4207 99.6504Z" fill="black"/>
<path d="M146.873 64.5341C146.856 64.4622 146.932 64.1407 146.987 64.0519C148.087 64.8558 148.319 66.1672 148.302 67.3855C148.272 69.5175 148.474 71.6707 148.804 73.7182C149.053 75.1015 148.837 76.4424 149.158 77.8088C149.37 79.3529 150.626 80.4995 151.632 81.553C151.577 81.6418 151.429 81.9802 151.391 82.1409C150.097 81.155 148.845 79.7038 148.6 78.016C148.173 76.5226 148.25 74.9109 147.823 73.4176C147.248 70.9725 147.57 68.4683 147.532 66.0486C147.541 65.4395 147.135 65.0037 146.873 64.5341Z" fill="black"/>
<path d="M30.4301 120.594C33.8993 118.564 37.6475 117.076 41.2224 115.173C43.1389 113.964 45.1949 113.025 47.2679 112.158C47.2848 112.23 47.2805 112.535 47.3143 112.679C44.5093 114.628 41.2138 115.782 38.2861 117.533C35.054 119.28 31.6653 120.683 28.4881 122.341C26.4447 123.656 24.2279 124.557 22.0618 125.673C20.4754 126.349 19.1342 127.424 17.5478 128.1C15.5467 128.95 13.7909 130.198 11.7223 130.76C11.6885 130.616 11.7097 130.383 11.7478 130.223C13.6981 129.157 15.8768 128.417 17.6875 127.081C19.3502 126.083 21.1862 125.499 22.777 124.518C25.2181 122.958 27.9552 122.011 30.4301 120.594Z" fill="black"/>
<path d="M159.484 59.7481C159.526 59.2828 159.78 59.0713 160.123 58.9149C161.214 59.0378 162.589 59.3976 162.821 60.709C162.766 60.7978 162.618 61.1362 162.508 61.3139C162.322 60.9528 162.136 60.5918 161.95 60.2308C161.222 59.7188 160.385 59.3845 159.484 59.7481Z" fill="black"/>
<path d="M48.8203 112.628C48.5286 111.71 49.8908 111.694 50.3985 111.271C50.7071 112.261 49.4169 112.26 48.8203 112.628Z" fill="black"/>
<path d="M175.424 52.6615C175.585 52.6996 175.978 52.7589 176.139 52.797C176.575 53.6812 177.277 54.7304 176.405 55.5424C176.312 54.5018 175.86 53.5457 175.424 52.6615Z" fill="black"/>
<path d="M159.598 60.556C159.568 60.1076 160.465 60.0485 160.296 60.6196C160.27 61.1568 159.356 61.1439 159.598 60.556Z" fill="black"/>
<path d="M10.4067 131.297C11.8871 131.783 12.3098 133.581 13.1175 134.757C14.0691 135.9 14.4241 137.41 15.3588 138.48C15.9043 139.187 16.5218 139.877 17.0673 140.583C16.9235 140.617 16.8135 140.795 16.6696 140.828C15.7814 140.278 15.1132 139.373 14.5508 138.594C13.8192 137.097 12.8339 135.811 12.1743 134.296C11.633 133.285 10.821 132.413 10.4067 131.297Z" fill="black"/>
<path d="M124.552 78.0532C125.757 77.6939 127.052 77.3896 128.257 77.0303C128.6 76.8739 129.01 77.0051 129.404 77.0644C127.851 77.8847 126.18 78.2016 124.526 78.5905C124.492 78.4466 124.585 78.1971 124.552 78.0532Z" fill="black"/>
<path d="M87.9357 96.2992C88.1389 95.872 88.3082 95.3009 88.8835 95.1657C88.8411 95.631 88.7987 96.0963 88.7563 96.5616C89.2343 96.9805 89.7503 97.2386 90.2832 97.5687C89.7205 98.0804 89.0268 97.7123 88.422 97.3991C88.2839 97.0268 88.1218 96.6602 87.9357 96.2992Z" fill="black"/>
<path d="M91.2694 94.9842C91.096 94.5696 90.9946 94.1381 91.4473 93.804C91.6333 94.165 91.8194 94.5261 92.0054 94.8871C91.8192 95.3862 91.6513 95.8557 91.5018 96.2956C91.286 96.3463 90.8714 96.5197 90.6557 96.5704C90.8419 96.0713 91.0831 95.4833 91.2694 94.9842Z" fill="black"/>
<path d="M132.792 74.3705C134.083 74.3708 133.021 75.9865 132.285 76.0836C131.866 75.2713 133.211 75.1828 132.792 74.3705Z" fill="black"/>
<path d="M169.831 57.9228C170.783 57.7749 171.718 57.5551 172.674 57.1027C172.855 58.1983 171.244 58.1219 170.525 58.2909C170.364 58.2528 170.009 58.0328 169.831 57.9228Z" fill="black"/>
<path d="M13.5367 132.989C13.6637 132.884 13.8287 132.617 13.9387 132.44C15.1565 135.037 16.7169 137.478 18.6581 139.602C20.4011 138.838 22.0863 137.936 23.7137 136.896C25.5878 136.152 27.166 134.794 29.0401 134.05C30.6815 133.285 32.0777 132.122 33.808 131.411C35.9529 130.528 37.8356 129.174 39.9635 128.219C40.3133 127.985 40.6052 128.043 40.8392 128.392C39.0158 129.352 37.315 130.511 35.4578 131.327C33.1141 132.333 31.0494 133.881 28.6888 134.816C27.146 135.785 25.5567 136.665 23.9209 137.454C22.419 138.49 20.7775 139.256 19.0641 140.038C19.1699 140.165 19.3263 140.508 19.432 140.634C18.641 140.82 18.1504 140.025 17.7275 139.517C16.0359 137.487 14.488 135.422 13.5367 132.989Z" fill="black"/>
<path d="M115.142 85.8054C115.683 85.5263 116.231 85.2712 116.783 85.04C117.024 85.7423 116.199 85.7844 115.819 86.1016C115.349 86.3638 115.357 87.0448 115.243 87.5271C115.205 87.6878 115.218 88.0643 115.196 88.2969C115.302 88.4239 115.387 88.7835 115.509 88.9823C115.382 89.088 115.145 89.3714 115.107 89.5321C114.3 88.356 114.659 86.9813 115.142 85.8054Z" fill="black"/>
<path d="M49.1403 120.446C50.0331 119.401 51.0316 118.483 52.3642 118.018C52.233 118.428 52.1017 118.839 51.6872 119.012C49.4449 120.45 48.1034 122.814 47.1554 125.238C46.982 124.823 46.8468 124.248 47.1049 123.732C47.5874 122.556 48.3194 121.473 49.1403 120.446Z" fill="black"/>
<path d="M74.5148 110.231C75.7586 109.711 76.2792 108.374 76.6009 107.16C76.7236 107.359 76.9519 107.685 77.0746 107.883C76.829 108.776 76.3339 109.575 75.75 110.32C74.7558 110.933 73.5501 111.292 72.7505 112.087C71.8663 112.523 70.4194 113.47 69.7174 112.421C70.1376 112.271 70.5508 112.2 70.9569 112.205C72.1668 111.541 73.2711 110.751 74.5148 110.231Z" fill="black"/>
<path d="M143.49 76.9405C143.589 76.7149 143.682 76.4653 143.769 76.1918C144.933 76.2978 145.635 77.347 145.673 78.4765C145.816 79.7328 145.173 80.8706 144.995 82.0508C144.881 82.533 144.75 82.9433 144.335 83.1167C144.141 81.6446 144.894 80.3291 145.093 78.9163C145.006 78.3297 144.87 77.7543 144.687 77.1903C144.277 77.0591 143.939 76.9109 143.49 76.9405Z" fill="black"/>
<path d="M104.599 95.1899C104.798 95.0673 105.051 94.8558 105.25 94.7332C105.284 96.1672 105.423 97.7282 106.32 98.9594C107.144 100.207 108.35 101.138 109.61 101.98C109.644 102.124 109.8 102.467 109.906 102.594C108.349 102.429 107.237 101.248 106.247 100.266C105.211 98.7646 104.357 97.0681 104.599 95.1899Z" fill="black"/>
<path d="M199.596 50.2423C199.74 50.2085 200.061 50.2847 200.205 50.2509C200.712 51.1182 201.347 51.8797 202.07 52.6963C200.708 52.713 200.192 51.1646 199.596 50.2423Z" fill="black"/>
<path d="M49.9351 122.536C51.4287 120.818 53.5228 119.719 55.5958 118.852C55.6296 118.996 55.6803 119.212 55.7141 119.356C54.1234 120.337 52.5158 121.246 51.1196 122.409C50.083 123.487 49.2916 124.963 49.414 126.453C49.4337 126.751 49.3758 127.043 49.2404 127.328C48.0436 125.788 49.038 123.885 49.9351 122.536Z" fill="black"/>
<path d="M84.5666 105.211C84.9305 104.822 85.5353 105.136 85.933 104.89C86.4026 104.628 86.7665 104.239 87.1472 103.922C87.6252 104.341 87.2401 104.962 86.8424 105.208C86.3516 105.703 85.6706 105.711 85.0952 105.846C84.895 105.64 84.7188 105.429 84.5666 105.211Z" fill="black"/>
<path d="M129.229 85.6811C129.452 85.1228 129.656 84.594 129.842 84.0949C130.972 84.0571 132.076 84.5564 132.545 85.5845C132.752 86.1429 133.442 86.8156 132.79 87.2724C132.304 86.1724 131.657 85.0344 130.354 84.6576C130.113 85.2456 129.927 85.7447 129.685 86.3326C129.58 86.2057 129.334 85.808 129.229 85.6811Z" fill="black"/>
<path d="M202.633 50.8945C206.931 49.8082 210.904 47.6601 214.872 45.8165C219.887 43.474 224.901 41.1315 229.916 38.789C231.469 37.9687 233.267 37.546 234.836 36.7976C235.014 36.9076 235.208 37.0896 235.314 37.2165C227.775 40.6583 220.359 44.299 212.731 47.6858C209.47 48.9839 206.326 50.7853 202.84 51.4529C202.807 51.3091 202.739 51.0214 202.633 50.8945Z" fill="black"/>
<path d="M163.436 71.7201C163.398 71.8808 163.394 72.1854 163.428 72.3292C165.027 72.0292 167.053 70.6421 166.381 68.7511C165.907 69.3179 165.789 70.1047 165.226 70.6164C164.752 71.1831 164.05 71.4241 163.436 71.7201Z" fill="black"/>
<path d="M42.5695 127.682C43.5425 127.301 44.5155 126.921 45.3659 126.342C45.5266 126.38 45.7931 126.545 45.9538 126.583C44.9384 127.429 43.7835 128.004 42.4721 128.236C42.5271 128.147 42.5314 127.843 42.5695 127.682Z" fill="black"/>
<path d="M178.874 64.752C178.645 64.4262 177.791 64.0199 178.332 63.7409C178.679 63.2798 179.081 64.0202 179.403 64.0964C179.669 65.5516 178.006 66.5496 176.763 65.7795C177.448 65.4666 178.205 65.1368 178.874 64.752Z" fill="black"/>
<path d="M234.603 38.0666C234.629 37.5294 235.36 37.7368 235.606 38.1345C236.447 39.4545 237.699 40.9057 237.479 42.5512C236.997 42.4369 236.447 42.0349 235.905 42.314C233.147 43.4936 230.439 44.889 227.715 46.2125C222.295 49.3079 216.44 51.5191 211.021 54.6145C208.622 55.7096 206.312 56.8598 204.053 58.2257C204.036 58.1537 203.897 57.883 203.791 57.7561C204.734 56.9271 205.817 56.369 206.989 55.8658C210.353 53.7091 214.207 52.3478 217.676 50.318C222.676 47.7005 227.833 45.4257 232.885 43.024C233.985 42.5378 235.034 41.8358 236.29 41.6922C235.499 40.588 235.72 38.9425 234.603 38.0666Z" fill="black"/>
<path d="M18.4672 141.696C22.2621 139.438 26.353 137.793 30.2325 135.895C36.0792 133.002 41.9596 130.254 47.8401 127.506C48.0009 127.544 48.3562 127.764 48.5338 127.874C46.4778 128.812 44.4936 129.734 42.4545 130.745C35.7193 134.377 28.6882 137.396 21.8135 140.758C20.7686 141.155 19.6812 142.018 18.4672 141.696Z" fill="black"/>
<path d="M202.692 54.3718C202.835 54.3379 203.068 54.3591 203.212 54.3253C203.135 55.937 203.524 57.5911 203.951 59.0844C205.096 64.2793 205.413 69.8209 203.478 74.829C203.03 76.1487 202.42 77.4303 201.545 78.5469C201.439 78.42 201.244 78.2381 201.138 78.1111C201.892 76.7957 202.307 75.3321 202.971 73.9617C203.039 72.9592 203.589 72.0709 203.818 71.1065C203.936 70.3197 204.055 69.533 204.085 68.6912C204.152 67.6886 204.148 66.703 204.144 65.7173C204.111 64.2833 203.845 62.8281 203.667 61.4279C203.342 59.0758 202.425 56.7871 202.692 54.3718Z" fill="black"/>
<path d="M100.557 103.501C101.577 103.641 102.046 104.669 101.889 105.617C101.542 106.078 101.195 106.539 100.502 106.171C100.777 105.726 101.14 105.337 101.255 104.855C101.065 104.369 100.747 103.988 100.557 103.501Z" fill="black"/>
<path d="M208.424 53.252C215.066 49.8692 221.915 47.0448 228.574 43.7339C230.757 42.6895 232.94 41.6451 235.14 40.6726C235.173 40.8164 235.169 41.121 235.131 41.2817C231.668 42.9054 228.221 44.601 224.791 46.3685C219.258 48.6559 213.826 51.3748 208.343 53.878C208.381 53.7173 208.457 53.3958 208.424 53.252Z" fill="black"/>
<path d="M60.2056 123.612C60.3663 123.65 60.654 123.582 60.7978 123.548C60.8145 124.911 61.5672 126.176 62.4849 127.174C63.1955 127.614 64.088 127.86 64.8705 128.283C66.131 129.125 66.9344 130.606 68.3598 131.181C69.5188 131.592 70.7795 131.144 72.0021 130.856C72.1838 131.952 70.6102 131.715 69.9248 132.028C68.5246 132.205 67.243 131.596 66.3252 130.597C65.547 129.869 64.8789 128.964 63.7537 128.697C62.95 128.507 62.3113 128.05 61.6558 127.521C60.7761 126.362 60.0234 125.097 60.2056 123.612Z" fill="black"/>
<path d="M121.359 94.8167C122.209 94.2374 123.423 94.5591 124.045 93.654C125.06 92.8082 126.511 92.8465 127.709 93.0964C127.797 93.1514 127.992 93.3333 128.098 93.4602C127.522 93.5955 126.985 93.57 126.448 93.5445C125.784 93.6247 125.103 93.6331 124.523 94.0729C124.286 94.3562 124.083 94.7835 123.774 95.0837C123.254 95.1302 122.717 95.1047 122.196 95.1511C122.048 95.4895 121.523 95.8405 121.913 96.2044C122.018 96.3313 122.39 96.6232 122.568 96.7332C122.082 96.9235 121.595 97.1138 121.151 96.8387C120.838 96.1534 121.206 95.4597 121.359 94.8167Z" fill="black"/>
<path d="M152.487 83.2494C153.273 83.368 153.692 84.1803 154.204 84.743C155.049 85.7584 155.929 86.9176 156.957 87.7385C158.179 88.7413 159.681 88.9954 161.051 89.6598C162.083 90.1761 163.247 90.2821 164.279 90.7984C166.36 91.9029 168.893 92.6733 171.182 91.7558C171.495 91.581 171.769 91.6685 172.003 92.0182C171.334 92.403 170.526 92.5171 169.735 92.7031C167.887 92.91 166.085 92.347 164.448 91.5175C163.327 90.9462 161.948 90.891 160.772 90.4085C159.025 89.7567 157.096 89.2995 155.844 87.8483C154.593 86.3971 153.197 84.9797 152.487 83.2494Z" fill="black"/>
<path d="M92.59 111.901C93.1991 111.909 93.6432 112.185 93.7235 112.849C93.4441 113.597 92.5599 114.033 91.7012 113.931C92.2258 113.58 92.7674 113.301 93.1143 112.84C92.9917 112.641 92.7295 112.172 92.59 111.901Z" fill="black"/>
<path d="M110.515 103.893C111.027 103.165 111.263 104.172 111.564 104.481C111.932 105.077 112.701 105.124 113.069 105.721C112.579 106.215 111.995 105.67 111.623 105.378C111.09 105.048 110.722 104.451 110.515 103.893Z" fill="black"/>
<path d="M192.642 66.8275C192.524 66.3241 192.228 65.7106 192.558 65.1777C193.387 66.1212 193.492 67.5383 192.566 68.4391C192.109 69.0778 191.339 69.0311 190.641 68.9675C190.738 68.4134 191.348 68.422 191.779 68.3205C192.126 67.8595 192.634 67.4366 192.642 66.8275Z" fill="black"/>
<path d="M168.994 76.6369C169.327 76.7611 169.654 76.8613 169.975 76.9375C171.985 76.7687 173.719 75.7538 175.153 74.43C175.335 75.5257 174.163 76.0288 173.402 76.6632C172.247 77.2383 170.969 77.6145 169.645 77.4704C169.332 78.0752 168.913 78.5532 168.477 78.9592C167.669 79.0732 166.574 79.2549 166.066 78.3876C166.553 78.1974 166.963 78.3286 167.445 78.4429C167.818 78.3048 168.208 78.1371 168.617 77.9397C168.719 77.5111 168.844 77.0768 168.994 76.6369Z" fill="black"/>
<path d="M89.9921 114.409C90.6394 114.257 91.2823 114.409 91.9253 114.562C91.8703 114.65 91.7941 114.972 91.7391 115.061C91.168 114.891 90.0893 115.145 89.9921 114.409Z" fill="black"/>
<path d="M106.174 108.025C106.233 107.631 106.698 107.674 107.003 107.678C108.018 109.412 107.755 111.523 107.459 113.49C107.243 114.831 106.527 115.986 105.495 116.76C105.533 116.599 105.576 116.134 105.669 115.884C105.741 115.867 105.901 115.905 105.99 115.96C106.832 113.41 107.518 110.516 106.174 108.025Z" fill="black"/>
<path d="M146.199 90.7229C146.068 89.843 146.157 88.6079 147.236 88.3543C147.65 88.1809 148.001 88.7055 148.285 88.9425C147.89 88.9847 147.519 89.0213 147.172 89.0522C147.045 89.1579 146.897 89.4963 146.842 89.5852C146.896 90.0279 146.92 90.4524 146.914 90.8585C146.753 90.8204 146.432 90.7441 146.199 90.7229Z" fill="black"/>
<path d="M79.4909 124.618C79.3557 124.043 79.5462 123.239 80.2822 123.142C80.2017 123.768 80.0493 124.411 79.4909 124.618Z" fill="black"/>
<path d="M154.613 88.7449C154.935 88.8211 155.177 88.9917 155.341 89.2569C155.886 92.5438 154.675 95.7881 153.076 98.6685C152.191 100.394 150.262 101.227 149.128 102.86C148.252 103.976 147.516 105.364 146.128 105.918C145.244 106.353 144.17 106.302 143.184 106.306C140.422 106.5 139.748 109.77 137.388 110.704C136 111.258 134.359 110.733 133.217 111.685C132.328 112.425 131.211 112.839 130.031 112.662C129.942 112.606 129.803 112.336 129.769 112.192C130.361 112.129 131.025 112.048 131.673 111.896C132.468 111.406 133.23 110.771 134.253 110.606C135.277 110.442 136.457 110.62 137.451 110.006C138.551 109.52 139.267 108.366 140.049 107.498C141.107 106.187 142.799 105.638 144.411 105.714C146.166 105.757 147.229 104.141 148.231 102.919C149.2 101.553 150.719 100.589 151.955 99.3874C154.041 96.3167 155.116 92.4971 154.613 88.7449Z" fill="black"/>
<path d="M114.816 107.663C116.288 107.468 117.57 108.078 118.928 108.366C120.019 108.489 121.055 108.7 122.164 108.895C123.416 109.056 124.693 108.68 125.776 109.412C125.141 109.941 124.215 109.551 123.407 109.665C122.062 109.754 120.725 109.233 119.329 109.106C118.327 109.038 117.439 108.488 116.419 108.348C115.865 108.251 115.239 108.17 114.816 107.663Z" fill="black"/>
<path d="M138.354 100.611C139.556 100.557 140.465 99.5838 140.999 98.6237C141.087 98.6787 141.371 98.9157 141.46 98.9707C141.176 100.024 140.216 100.781 139.154 101.106C138.722 101.208 137.737 101.212 138.354 100.611Z" fill="black"/>
<path d="M102.576 119.191C103.253 118.198 103.507 116.696 104.857 116.303C104.48 117.606 103.515 118.667 102.889 119.877C102.44 120.336 101.992 120.796 101.543 121.256C100.608 122.766 99.0387 123.514 97.5072 124.102C97.2279 124.85 96.9486 125.599 96.6692 126.348C96.6185 126.132 96.4282 125.645 96.3056 125.447C96.4749 124.876 96.6273 124.233 96.8855 123.717C99.2461 122.782 100.955 121.014 102.576 119.191Z" fill="black"/>
<path d="M184.958 80.6249C186.337 80.6801 187.407 79.7455 187.695 78.3877C188.359 78.3074 188.097 79.128 188.109 79.5045C187.483 80.7142 186.091 81.5727 184.788 81.1959C184.843 81.1071 184.919 80.7856 184.958 80.6249Z" fill="black"/>
<path d="M77.2894 133.332C77.5051 133.281 77.759 133.07 77.9747 133.019C78.9054 133.104 79.891 133.1 80.7921 132.736C81.6551 132.533 82.3109 131.772 83.157 131.497C85.1876 131.096 87.1167 130.263 88.6229 128.922C89.0206 128.677 89.4902 128.415 89.7693 128.956C88.1361 130.403 86.3253 131.739 84.151 132.174C83.271 132.305 82.7421 132.961 82.0737 133.346C80.5254 133.861 78.7825 134.195 77.2894 133.332Z" fill="black"/>
<path d="M174.452 91.1389C175.586 90.7964 176.783 91.0463 178.001 91.0634C180.061 91.1104 182.126 90.8528 184.072 90.0917C185.438 89.7705 186.669 88.874 188.07 88.6966C189.453 88.4473 190.083 86.933 191.45 86.6118C193.569 86.2653 195.308 84.9459 196.675 83.3345C196.968 82.8607 197.302 82.4533 197.678 82.1121C198.046 82.7087 197.555 83.2035 197.297 83.7195C196.239 85.0307 194.986 86.1599 193.489 86.8914C192.105 87.1407 190.629 87.6395 189.576 88.6461C188.776 89.4412 187.507 89.2083 186.585 89.8046C185.248 90.5742 183.809 90.9123 182.333 91.4112C180.463 91.8507 178.53 91.6981 176.614 91.6173C175.861 91.6425 175.091 91.5958 174.452 91.1389Z" fill="black"/>
<path d="M5.29468 56.6077C4.27147 54.192 7.62227 51.6588 9.49586 53.4951C11.1199 55.2383 9.97301 57.7846 8.04389 58.6175C6.91872 58.3508 5.40015 58.0248 5.29468 56.6077Z" fill="#E56E0C"/>
<path d="M17.066 63.0993C19.9134 60.6844 25.6955 63.6509 24.4933 67.5763C23.3252 70.3553 19.065 72.571 16.5909 70.117C15.2757 68.0736 15.0183 64.719 17.066 63.0993Z" fill="#E56E0C"/>
</svg>
