<svg width="404" height="158" viewBox="0 0 404 158" fill="none" xmlns="http://www.w3.org/2000/svg">
<mask id="path-1-inside-1_1_2554" fill="white">
<path fill-rule="evenodd" clip-rule="evenodd" d="M134.654 144.434C143.79 152.323 158.989 156.117 173.704 155.997C181.04 155.938 188.197 154.905 194.345 152.957C200.504 151.005 205.576 148.159 208.827 144.524C209.03 144.298 209.324 144.176 209.628 144.193C209.931 144.21 210.211 144.364 210.387 144.611C212.281 147.272 216.038 149.593 220.976 151.305C225.882 153.006 231.816 154.059 237.887 154.281C243.959 154.504 250.125 153.896 255.5 152.308C260.884 150.717 265.397 148.167 268.273 144.567C268.513 144.267 268.904 144.13 269.278 144.217C282.304 147.215 301.648 149.719 317.392 147.544C325.27 146.455 332.128 144.211 336.855 140.382C341.524 136.599 344.19 131.213 343.628 123.579C343.605 123.267 343.729 122.963 343.963 122.756C344.196 122.55 344.513 122.464 344.82 122.524C363.723 126.269 377.643 119.918 386.863 110.837C396.139 101.7 400.616 89.8438 400.616 82.7261C400.616 82.6404 400.627 82.5551 400.649 82.4722C401.862 77.8512 400.747 69.6716 395.779 62.3453C390.851 55.0792 382.144 48.6819 368.212 47.5816C367.822 47.5508 367.486 47.2956 367.352 46.9283C362.125 32.645 350.446 24.7426 338.065 20.4454C325.675 16.1452 312.701 15.5028 305.156 15.6753C304.974 15.6795 304.793 15.6337 304.635 15.5428C289.875 7.0654 278.079 3.51986 265.96 3.05399C253.802 2.5866 241.249 5.21323 224.925 9.22139C224.742 9.26638 224.549 9.25861 224.37 9.19899C211.929 5.05495 201.271 2.35711 190.65 2.0329C180.049 1.70932 169.429 3.74962 157.076 9.16607C156.87 9.25625 156.64 9.27457 156.423 9.21808C137.763 4.36847 125.054 2.14022 113.686 2.7157C102.347 3.28972 92.2601 6.65833 78.8563 13.1657C78.7154 13.234 78.5605 13.2684 78.404 13.266C64.0916 13.0437 53.8311 14.4281 47.1716 17.9556C43.869 19.705 41.4687 21.9733 39.8842 24.8334C38.2954 27.7013 37.4896 31.2318 37.4896 35.558C37.4896 36.0315 37.1576 36.44 36.6942 36.5369C22.5306 39.4981 13.9999 44.3543 10.0125 49.9351C6.09943 55.4118 6.41982 61.8041 10.5217 68.3592C10.7405 68.7089 10.7221 69.1571 10.4755 69.4877C5.00268 76.8231 1.71935 82.2536 2.01883 87.6915C2.3154 93.0767 6.16987 98.8283 16.142 106.655C16.4395 106.889 16.5798 107.27 16.5046 107.641C15.7192 111.51 15.9839 114.659 17.0735 117.215C18.1612 119.766 20.1124 121.825 22.8756 123.446C28.4532 126.718 37.2066 128.128 48.1909 128.128C48.7432 128.128 49.1909 128.575 49.1909 129.128C49.1909 131.339 49.943 133.074 51.2904 134.443C52.6612 135.836 54.7011 136.901 57.3403 137.628C62.6296 139.086 70.0303 139.104 78.2876 138.006C78.5733 137.968 78.8615 138.055 79.0784 138.245C79.2952 138.434 79.4195 138.709 79.4195 138.997C79.4195 139.259 79.6091 139.784 80.3301 140.545C81.0199 141.274 82.0758 142.089 83.4853 142.921C86.2984 144.582 90.3942 146.237 95.4267 147.384C105.484 149.677 119.173 149.92 133.636 144.26C133.982 144.125 134.374 144.192 134.654 144.434ZM194.949 154.864C200.84 152.997 205.944 150.286 209.506 146.717C211.878 149.434 215.753 151.611 220.321 153.195C225.441 154.97 231.574 156.051 237.814 156.28C244.053 156.509 250.442 155.888 256.067 154.226C261.453 152.634 266.212 150.066 269.432 146.303C282.564 149.267 301.826 151.713 317.666 149.525C325.703 148.414 332.979 146.096 338.114 141.936C343.032 137.951 345.916 132.332 345.69 124.722C364.669 128.086 378.828 121.558 388.266 112.261C397.804 102.867 402.564 90.6028 402.616 82.8542C403.95 77.5569 402.619 68.8677 397.434 61.2228C392.244 53.5707 383.182 46.9336 369.006 45.6419C363.395 30.9746 351.261 22.9086 338.72 18.5559C326.171 14.2003 313.098 13.5166 305.389 13.6699C290.53 5.17054 278.483 1.53393 266.037 1.05547C253.635 0.578694 240.905 3.24367 224.728 7.2103C212.342 3.09725 201.545 0.364522 190.711 0.0338336C179.87 -0.297084 169.047 1.77825 156.591 7.19545C138.081 2.39751 125.207 0.129933 113.585 0.718267C101.927 1.30845 91.609 4.76758 78.197 11.2626C63.9596 11.0584 53.334 12.4282 46.2354 16.1883C42.6392 18.0932 39.9325 20.6192 38.1348 23.8642C36.4484 26.9081 35.5947 30.5252 35.4987 34.7467C21.611 37.7616 12.7279 42.6943 8.38516 48.7724C4.01097 54.8945 4.38486 61.96 8.46896 68.8343C3.28029 75.8367 -0.31474 81.6897 0.0218526 87.8015C0.364414 94.0217 4.73578 100.158 14.4283 107.851C13.7265 111.755 14.011 115.131 15.2337 117.999C16.5214 121.02 18.8079 123.379 21.8636 125.171C27.7485 128.623 36.6032 130.045 47.2348 130.124C47.4398 132.403 48.3556 134.312 49.8649 135.846C50.1312 136.116 50.4146 136.374 50.7142 136.619C49.7368 138.855 46.2515 143.862 39.244 151.315C38.5327 152.071 37.785 152.853 37 153.66C37.401 153.32 38.0711 152.996 39.0186 152.537C39.2748 152.413 39.5513 152.279 39.8482 152.132C43.0153 150.568 48.5097 147.548 56.5371 139.48C56.6273 139.506 56.7179 139.531 56.809 139.556C62.2746 141.062 69.637 141.099 77.6444 140.105C77.899 140.748 78.3479 141.361 78.878 141.921C79.7374 142.828 80.9601 143.753 82.4685 144.643C85.4912 146.428 89.7878 148.15 94.9821 149.334C105.248 151.674 119.128 151.941 133.807 146.338C143.493 154.401 158.994 158.117 173.72 157.997C181.222 157.936 188.582 156.881 194.949 154.864ZM51.5344 137.232C52.6723 138.009 53.9953 138.64 55.4611 139.142C50.0678 144.511 45.8723 147.537 42.8095 149.382C42.495 149.571 42.192 149.748 41.9004 149.915C44.9143 146.597 47.1687 143.825 48.7676 141.634C49.8995 140.082 50.7146 138.806 51.2385 137.822C51.3481 137.616 51.447 137.419 51.5344 137.232Z"/>
</mask>
<path fill-rule="evenodd" clip-rule="evenodd" d="M134.654 144.434C143.79 152.323 158.989 156.117 173.704 155.997C181.04 155.938 188.197 154.905 194.345 152.957C200.504 151.005 205.576 148.159 208.827 144.524C209.03 144.298 209.324 144.176 209.628 144.193C209.931 144.21 210.211 144.364 210.387 144.611C212.281 147.272 216.038 149.593 220.976 151.305C225.882 153.006 231.816 154.059 237.887 154.281C243.959 154.504 250.125 153.896 255.5 152.308C260.884 150.717 265.397 148.167 268.273 144.567C268.513 144.267 268.904 144.13 269.278 144.217C282.304 147.215 301.648 149.719 317.392 147.544C325.27 146.455 332.128 144.211 336.855 140.382C341.524 136.599 344.19 131.213 343.628 123.579C343.605 123.267 343.729 122.963 343.963 122.756C344.196 122.55 344.513 122.464 344.82 122.524C363.723 126.269 377.643 119.918 386.863 110.837C396.139 101.7 400.616 89.8438 400.616 82.7261C400.616 82.6404 400.627 82.5551 400.649 82.4722C401.862 77.8512 400.747 69.6716 395.779 62.3453C390.851 55.0792 382.144 48.6819 368.212 47.5816C367.822 47.5508 367.486 47.2956 367.352 46.9283C362.125 32.645 350.446 24.7426 338.065 20.4454C325.675 16.1452 312.701 15.5028 305.156 15.6753C304.974 15.6795 304.793 15.6337 304.635 15.5428C289.875 7.0654 278.079 3.51986 265.96 3.05399C253.802 2.5866 241.249 5.21323 224.925 9.22139C224.742 9.26638 224.549 9.25861 224.37 9.19899C211.929 5.05495 201.271 2.35711 190.65 2.0329C180.049 1.70932 169.429 3.74962 157.076 9.16607C156.87 9.25625 156.64 9.27457 156.423 9.21808C137.763 4.36847 125.054 2.14022 113.686 2.7157C102.347 3.28972 92.2601 6.65833 78.8563 13.1657C78.7154 13.234 78.5605 13.2684 78.404 13.266C64.0916 13.0437 53.8311 14.4281 47.1716 17.9556C43.869 19.705 41.4687 21.9733 39.8842 24.8334C38.2954 27.7013 37.4896 31.2318 37.4896 35.558C37.4896 36.0315 37.1576 36.44 36.6942 36.5369C22.5306 39.4981 13.9999 44.3543 10.0125 49.9351C6.09943 55.4118 6.41982 61.8041 10.5217 68.3592C10.7405 68.7089 10.7221 69.1571 10.4755 69.4877C5.00268 76.8231 1.71935 82.2536 2.01883 87.6915C2.3154 93.0767 6.16987 98.8283 16.142 106.655C16.4395 106.889 16.5798 107.27 16.5046 107.641C15.7192 111.51 15.9839 114.659 17.0735 117.215C18.1612 119.766 20.1124 121.825 22.8756 123.446C28.4532 126.718 37.2066 128.128 48.1909 128.128C48.7432 128.128 49.1909 128.575 49.1909 129.128C49.1909 131.339 49.943 133.074 51.2904 134.443C52.6612 135.836 54.7011 136.901 57.3403 137.628C62.6296 139.086 70.0303 139.104 78.2876 138.006C78.5733 137.968 78.8615 138.055 79.0784 138.245C79.2952 138.434 79.4195 138.709 79.4195 138.997C79.4195 139.259 79.6091 139.784 80.3301 140.545C81.0199 141.274 82.0758 142.089 83.4853 142.921C86.2984 144.582 90.3942 146.237 95.4267 147.384C105.484 149.677 119.173 149.92 133.636 144.26C133.982 144.125 134.374 144.192 134.654 144.434ZM194.949 154.864C200.84 152.997 205.944 150.286 209.506 146.717C211.878 149.434 215.753 151.611 220.321 153.195C225.441 154.97 231.574 156.051 237.814 156.28C244.053 156.509 250.442 155.888 256.067 154.226C261.453 152.634 266.212 150.066 269.432 146.303C282.564 149.267 301.826 151.713 317.666 149.525C325.703 148.414 332.979 146.096 338.114 141.936C343.032 137.951 345.916 132.332 345.69 124.722C364.669 128.086 378.828 121.558 388.266 112.261C397.804 102.867 402.564 90.6028 402.616 82.8542C403.95 77.5569 402.619 68.8677 397.434 61.2228C392.244 53.5707 383.182 46.9336 369.006 45.6419C363.395 30.9746 351.261 22.9086 338.72 18.5559C326.171 14.2003 313.098 13.5166 305.389 13.6699C290.53 5.17054 278.483 1.53393 266.037 1.05547C253.635 0.578694 240.905 3.24367 224.728 7.2103C212.342 3.09725 201.545 0.364522 190.711 0.0338336C179.87 -0.297084 169.047 1.77825 156.591 7.19545C138.081 2.39751 125.207 0.129933 113.585 0.718267C101.927 1.30845 91.609 4.76758 78.197 11.2626C63.9596 11.0584 53.334 12.4282 46.2354 16.1883C42.6392 18.0932 39.9325 20.6192 38.1348 23.8642C36.4484 26.9081 35.5947 30.5252 35.4987 34.7467C21.611 37.7616 12.7279 42.6943 8.38516 48.7724C4.01097 54.8945 4.38486 61.96 8.46896 68.8343C3.28029 75.8367 -0.31474 81.6897 0.0218526 87.8015C0.364414 94.0217 4.73578 100.158 14.4283 107.851C13.7265 111.755 14.011 115.131 15.2337 117.999C16.5214 121.02 18.8079 123.379 21.8636 125.171C27.7485 128.623 36.6032 130.045 47.2348 130.124C47.4398 132.403 48.3556 134.312 49.8649 135.846C50.1312 136.116 50.4146 136.374 50.7142 136.619C49.7368 138.855 46.2515 143.862 39.244 151.315C38.5327 152.071 37.785 152.853 37 153.66C37.401 153.32 38.0711 152.996 39.0186 152.537C39.2748 152.413 39.5513 152.279 39.8482 152.132C43.0153 150.568 48.5097 147.548 56.5371 139.48C56.6273 139.506 56.7179 139.531 56.809 139.556C62.2746 141.062 69.637 141.099 77.6444 140.105C77.899 140.748 78.3479 141.361 78.878 141.921C79.7374 142.828 80.9601 143.753 82.4685 144.643C85.4912 146.428 89.7878 148.15 94.9821 149.334C105.248 151.674 119.128 151.941 133.807 146.338C143.493 154.401 158.994 158.117 173.72 157.997C181.222 157.936 188.582 156.881 194.949 154.864ZM51.5344 137.232C52.6723 138.009 53.9953 138.64 55.4611 139.142C50.0678 144.511 45.8723 147.537 42.8095 149.382C42.495 149.571 42.192 149.748 41.9004 149.915C44.9143 146.597 47.1687 143.825 48.7676 141.634C49.8995 140.082 50.7146 138.806 51.2385 137.822C51.3481 137.616 51.447 137.419 51.5344 137.232Z" fill="white"/>
<path d="M173.704 155.997L173.712 156.997L173.704 155.997ZM134.654 144.434L135.308 143.677L135.308 143.677L134.654 144.434ZM194.345 152.957L194.042 152.004L194.345 152.957ZM208.827 144.524L208.082 143.858L208.827 144.524ZM209.628 144.193L209.683 143.194H209.683L209.628 144.193ZM210.387 144.611L211.202 144.031H211.202L210.387 144.611ZM220.976 151.305L220.649 152.25L220.976 151.305ZM237.887 154.281L237.85 155.281H237.85L237.887 154.281ZM255.5 152.308L255.783 153.267L255.5 152.308ZM268.273 144.567L269.054 145.191L269.054 145.191L268.273 144.567ZM269.278 144.217L269.054 145.191H269.054L269.278 144.217ZM317.392 147.544L317.256 146.553H317.256L317.392 147.544ZM336.855 140.382L337.484 141.159L336.855 140.382ZM343.628 123.579L342.631 123.652V123.652L343.628 123.579ZM343.963 122.756L344.625 123.505L344.625 123.505L343.963 122.756ZM344.82 122.524L344.625 123.505L344.82 122.524ZM386.863 110.837L386.161 110.124L386.863 110.837ZM400.649 82.4722L401.616 82.7261V82.7261L400.649 82.4722ZM395.779 62.3453L396.606 61.784V61.784L395.779 62.3453ZM368.212 47.5816L368.134 48.5785L368.212 47.5816ZM367.352 46.9283L366.413 47.272V47.272L367.352 46.9283ZM338.065 20.4454L337.737 21.3901L338.065 20.4454ZM305.156 15.6753L305.179 16.6751H305.179L305.156 15.6753ZM304.635 15.5428L304.137 16.4099V16.4099L304.635 15.5428ZM265.96 3.05399L265.999 2.05473L265.96 3.05399ZM224.925 9.22139L225.163 10.1926L225.163 10.1925L224.925 9.22139ZM224.37 9.19899L224.054 10.1477L224.054 10.1478L224.37 9.19899ZM190.65 2.0329L190.68 1.03337H190.68L190.65 2.0329ZM157.076 9.16607L157.478 10.0819L157.478 10.0819L157.076 9.16607ZM156.423 9.21808L156.171 10.1859L156.171 10.1859L156.423 9.21808ZM113.686 2.7157L113.737 3.71442L113.686 2.7157ZM78.8563 13.1657L79.2929 14.0653L79.293 14.0653L78.8563 13.1657ZM78.404 13.266L78.4196 12.2661L78.4195 12.2661L78.404 13.266ZM47.1716 17.9556L46.7035 17.0719L47.1716 17.9556ZM39.8842 24.8334L40.759 25.318L39.8842 24.8334ZM36.6942 36.5369L36.4896 35.558H36.4896L36.6942 36.5369ZM10.0125 49.9351L9.19882 49.3537H9.19881L10.0125 49.9351ZM10.5217 68.3592L9.67397 68.8897L9.67397 68.8897L10.5217 68.3592ZM10.4755 69.4877L11.277 70.0857H11.277L10.4755 69.4877ZM2.01883 87.6915L1.02034 87.7465L2.01883 87.6915ZM16.142 106.655L16.7594 105.869L16.7594 105.869L16.142 106.655ZM16.5046 107.641L15.5246 107.442H15.5246L16.5046 107.641ZM17.0735 117.215L17.9934 116.823L17.0735 117.215ZM22.8756 123.446L22.3696 124.309L22.8756 123.446ZM51.2904 134.443L50.5776 135.144H50.5777L51.2904 134.443ZM57.3403 137.628L57.0747 138.592L57.0747 138.592L57.3403 137.628ZM78.2876 138.006L78.1557 137.014L78.1557 137.014L78.2876 138.006ZM79.0784 138.245L79.7372 137.492L79.7372 137.492L79.0784 138.245ZM80.3301 140.545L79.604 141.233L79.604 141.233L80.3301 140.545ZM83.4853 142.921L83.9938 142.06L83.4853 142.921ZM95.4267 147.384L95.649 146.409L95.4267 147.384ZM133.636 144.26L133.272 143.329H133.272L133.636 144.26ZM209.506 146.717L210.259 146.059C210.077 145.85 209.816 145.726 209.539 145.717C209.262 145.708 208.993 145.814 208.798 146.01L209.506 146.717ZM194.949 154.864L194.647 153.91L194.949 154.864ZM220.321 153.195L219.994 154.14L220.321 153.195ZM237.814 156.28L237.777 157.279L237.814 156.28ZM256.067 154.226L256.35 155.185L256.067 154.226ZM269.432 146.303L269.652 145.327C269.291 145.246 268.913 145.371 268.672 145.653L269.432 146.303ZM317.666 149.525L317.529 148.534H317.529L317.666 149.525ZM338.114 141.936L338.743 142.713L338.114 141.936ZM345.69 124.722L345.864 123.738C345.568 123.685 345.264 123.769 345.036 123.966C344.808 124.163 344.681 124.451 344.69 124.752L345.69 124.722ZM388.266 112.261L388.968 112.974L388.266 112.261ZM402.616 82.8542L401.646 82.61C401.627 82.6877 401.617 82.7674 401.616 82.8475L402.616 82.8542ZM397.434 61.2228L398.262 60.6615V60.6615L397.434 61.2228ZM369.006 45.6419L368.072 45.9992C368.208 46.3554 368.535 46.6031 368.915 46.6377L369.006 45.6419ZM338.72 18.5559L338.392 19.5006L338.72 18.5559ZM305.389 13.6699L304.893 14.5379C305.05 14.6278 305.228 14.6733 305.409 14.6697L305.389 13.6699ZM266.037 1.05547L265.999 2.05473V2.05473L266.037 1.05547ZM224.728 7.2103L224.413 8.15934C224.592 8.21867 224.784 8.22636 224.966 8.18153L224.728 7.2103ZM190.711 0.0338336L190.742 -0.965701L190.711 0.0338336ZM156.591 7.19545L156.34 8.16346C156.556 8.2195 156.785 8.20156 156.99 8.11248L156.591 7.19545ZM113.585 0.718267L113.636 1.71699V1.71699L113.585 0.718267ZM78.197 11.2626L78.1826 12.2625C78.3384 12.2648 78.4926 12.2306 78.6328 12.1627L78.197 11.2626ZM46.2354 16.1883L45.7673 15.3046L45.7673 15.3046L46.2354 16.1883ZM38.1348 23.8642L37.26 23.3796L38.1348 23.8642ZM35.4987 34.7467L35.7109 35.724C36.1624 35.6259 36.488 35.2314 36.4985 34.7694L35.4987 34.7467ZM8.38516 48.7724L9.19881 49.3537L8.38516 48.7724ZM8.46896 68.8343L9.27242 69.4297C9.51229 69.106 9.53447 68.6699 9.32868 68.3236L8.46896 68.8343ZM0.0218526 87.8015L-0.976634 87.8565L0.0218526 87.8015ZM14.4283 107.851L15.4125 108.027C15.4776 107.665 15.3383 107.296 15.0499 107.067L14.4283 107.851ZM15.2337 117.999L14.3138 118.391L15.2337 117.999ZM21.8636 125.171L22.3696 124.308L21.8636 125.171ZM47.2348 130.124L48.2308 130.034C48.1847 129.522 47.757 129.128 47.2423 129.124L47.2348 130.124ZM49.8649 135.846L50.5777 135.144L49.8649 135.846ZM50.7142 136.619L51.6305 137.019C51.81 136.609 51.6943 136.129 51.3473 135.845L50.7142 136.619ZM39.244 151.315L38.5155 150.63L39.244 151.315ZM37 153.66L36.2833 152.963C35.9111 153.345 35.9049 153.952 36.269 154.342C36.6332 154.732 37.2395 154.768 37.6466 154.423L37 153.66ZM39.0186 152.537L38.5828 151.637H38.5827L39.0186 152.537ZM39.8482 152.132L39.4053 151.235L39.4053 151.235L39.8482 152.132ZM56.5371 139.48L56.8137 138.519C56.4632 138.418 56.0855 138.516 55.8282 138.774L56.5371 139.48ZM56.809 139.556L56.5434 140.52L56.5434 140.52L56.809 139.556ZM77.6444 140.105L78.5742 139.737C78.4063 139.313 77.9734 139.056 77.5212 139.112L77.6444 140.105ZM78.878 141.921L79.604 141.233L79.604 141.233L78.878 141.921ZM82.4685 144.643L81.9601 145.505L82.4685 144.643ZM94.9821 149.334L94.7598 150.309L94.9821 149.334ZM133.807 146.338L134.447 145.569C134.169 145.338 133.788 145.275 133.451 145.404L133.807 146.338ZM173.72 157.997L173.728 158.997L173.72 157.997ZM55.4611 139.142L56.1666 139.85C56.4115 139.607 56.5132 139.254 56.4355 138.917C56.3579 138.58 56.1119 138.307 55.7849 138.195L55.4611 139.142ZM51.5344 137.232L52.0987 136.406C51.8564 136.24 51.5535 136.19 51.2705 136.267C50.9874 136.345 50.7526 136.542 50.6284 136.808L51.5344 137.232ZM42.8095 149.382L42.2936 148.525H42.2935L42.8095 149.382ZM41.9004 149.915L41.1602 149.242C40.8296 149.606 40.8126 150.157 41.1202 150.54C41.4277 150.924 41.9685 151.027 42.3957 150.783L41.9004 149.915ZM48.7676 141.634L47.9597 141.044L48.7676 141.634ZM51.2385 137.822L52.1212 138.291H52.1212L51.2385 137.822ZM173.696 154.997C159.104 155.116 144.186 151.344 135.308 143.677L134.001 145.191C143.394 153.302 158.874 157.118 173.712 156.997L173.696 154.997ZM194.042 152.004C188.005 153.917 180.949 154.939 173.696 154.997L173.712 156.997C181.131 156.937 188.39 155.893 194.647 153.91L194.042 152.004ZM208.082 143.858C204.992 147.311 200.104 150.083 194.042 152.004L194.647 153.91C200.904 151.928 206.159 149.006 209.572 145.191L208.082 143.858ZM209.683 143.194C209.076 143.16 208.487 143.405 208.082 143.858L209.572 145.191H209.572L209.683 143.194ZM211.202 144.031C210.849 143.536 210.29 143.228 209.683 143.194L209.572 145.191H209.572L211.202 144.031ZM221.304 150.361C216.44 148.674 212.917 146.441 211.202 144.031L209.572 145.191C211.644 148.103 215.636 150.512 220.649 152.25L221.304 150.361ZM237.924 153.282C231.937 153.062 226.103 152.024 221.304 150.361L220.649 152.25C225.662 153.988 231.695 155.055 237.85 155.281L237.924 153.282ZM255.217 151.349C249.966 152.9 243.912 153.502 237.924 153.282L237.85 155.281C244.006 155.507 250.283 154.892 255.783 153.267L255.217 151.349ZM267.491 143.943C264.787 147.328 260.485 149.792 255.217 151.349L255.783 153.267C261.284 151.641 266.007 149.006 269.054 145.191L267.491 143.943ZM269.503 143.242C268.753 143.07 267.971 143.342 267.491 143.943L269.054 145.191L269.054 145.191L269.503 143.242ZM317.256 146.553C301.681 148.705 282.471 146.228 269.503 143.242L269.054 145.191C282.137 148.203 301.615 150.733 317.529 148.534L317.256 146.553ZM336.225 139.605C331.702 143.269 325.053 145.476 317.256 146.553L317.529 148.534C325.487 147.435 332.553 145.153 337.484 141.159L336.225 139.605ZM342.631 123.652C343.169 130.969 340.633 136.034 336.225 139.605L337.484 141.159C342.415 137.164 345.21 131.457 344.625 123.505L342.631 123.652ZM343.3 122.007C342.832 122.421 342.585 123.029 342.631 123.652L344.625 123.505V123.505L343.3 122.007ZM345.014 121.543C344.402 121.422 343.768 121.594 343.3 122.007L344.625 123.505L344.625 123.505L345.014 121.543ZM386.161 110.124C377.154 118.996 363.563 125.218 345.014 121.543L344.625 123.505C363.884 127.32 378.131 120.84 387.565 111.549L386.161 110.124ZM399.616 82.7261C399.616 89.5321 395.28 101.143 386.161 110.124L387.565 111.549C396.998 102.258 401.616 90.1554 401.616 82.7261H399.616ZM399.682 82.2183C399.639 82.384 399.616 82.5547 399.616 82.7261H401.616V82.7261L399.682 82.2183ZM394.951 62.9066C399.791 70.043 400.808 77.929 399.682 82.2183L401.616 82.7261C402.917 77.7733 401.704 69.3002 396.606 61.784L394.951 62.9066ZM368.134 48.5785C381.761 49.6548 390.193 55.8903 394.951 62.9066L396.606 61.784C391.509 54.268 382.528 47.7091 368.291 46.5847L368.134 48.5785ZM366.413 47.272C366.682 48.0065 367.354 48.5169 368.134 48.5785L368.291 46.5847V46.5847L366.413 47.272ZM337.737 21.3901C349.953 25.6301 361.326 33.3705 366.413 47.272L368.291 46.5847C362.924 31.9194 350.938 23.8551 338.392 19.5006L337.737 21.3901ZM305.179 16.6751C312.662 16.504 325.503 17.1442 337.737 21.3901L338.392 19.5006C325.846 15.1462 312.74 14.5017 305.133 14.6756L305.179 16.6751ZM304.137 16.4099C304.454 16.5917 304.814 16.6834 305.179 16.6751L305.133 14.6756L305.133 14.6756L304.137 16.4099ZM265.922 4.05325C277.843 4.51152 289.483 7.99309 304.137 16.4099L305.133 14.6756C290.268 6.13771 278.315 2.52819 265.999 2.05473L265.922 4.05325ZM225.163 10.1925C241.495 6.18257 253.921 3.59192 265.922 4.05325L265.999 2.05473C253.683 1.58127 241.004 4.24389 224.686 8.25024L225.163 10.1925ZM224.054 10.1478C224.412 10.267 224.797 10.2825 225.163 10.1926L224.686 8.25023L224.686 8.25023L224.054 10.1478ZM190.619 3.03244C201.094 3.35218 211.642 6.01359 224.054 10.1477L224.686 8.25024C212.215 4.09631 201.448 1.36204 190.68 1.03337L190.619 3.03244ZM157.478 10.0819C169.711 4.71758 180.184 2.71393 190.619 3.03244L190.68 1.03337C179.913 0.704721 169.146 2.78167 156.674 8.25024L157.478 10.0819ZM156.171 10.1859C156.606 10.2989 157.066 10.2623 157.478 10.0819L156.674 8.25022L156.674 8.25023L156.171 10.1859ZM113.737 3.71442C124.943 3.14714 137.526 5.34024 156.171 10.1859L156.674 8.25024C137.999 3.39671 125.166 1.1333 113.636 1.71698L113.737 3.71442ZM79.293 14.0653C92.6405 7.58527 102.588 4.27879 113.737 3.71442L113.636 1.71698C102.106 2.30066 91.8797 5.73139 78.4195 12.2661L79.293 14.0653ZM78.3884 14.2658C78.7016 14.2707 79.0114 14.202 79.2929 14.0653L78.4196 12.2661L78.4196 12.2661L78.3884 14.2658ZM47.6397 18.8393C54.0598 15.4386 64.0982 14.0439 78.3885 14.2658L78.4195 12.2661C64.0849 12.0434 53.6023 13.4177 46.7035 17.0719L47.6397 18.8393ZM40.759 25.318C42.2369 22.6503 44.4839 20.5109 47.6397 18.8393L46.7035 17.0719C43.2541 18.8991 40.7006 21.2963 39.0095 24.3488L40.759 25.318ZM38.4896 35.558C38.4896 31.3544 39.2724 28.0014 40.759 25.318L39.0095 24.3488C37.3184 27.4013 36.4896 31.1093 36.4896 35.558H38.4896ZM36.8989 37.5157C37.8257 37.322 38.4896 36.5049 38.4896 35.558H36.4896H36.4896L36.8989 37.5157ZM10.8261 50.5164C14.5952 45.2412 22.8231 40.4585 36.8989 37.5157L36.4896 35.558C22.238 38.5376 13.4046 43.4673 9.19882 49.3537L10.8261 50.5164ZM11.3694 67.8288C7.42528 61.5257 7.20535 55.5841 10.8261 50.5164L9.19881 49.3537C4.99351 55.2395 5.41435 62.0824 9.67397 68.8897L11.3694 67.8288ZM11.277 70.0857C11.7703 69.4244 11.807 68.5281 11.3694 67.8288L9.67397 68.8897L9.67397 68.8897L11.277 70.0857ZM3.01731 87.6365C2.88019 85.1467 3.55783 82.6054 4.97814 79.746C6.40315 76.8773 8.54601 73.7461 11.277 70.0857L9.67397 68.8897C6.93215 72.5647 4.69694 75.8165 3.18695 78.8563C1.67228 81.9056 0.857983 84.7985 1.02034 87.7465L3.01731 87.6365ZM16.7594 105.869C6.81504 98.0634 3.2881 92.5535 3.01731 87.6365L1.02034 87.7465C1.3427 93.5999 5.52469 99.5931 15.5246 107.442L16.7594 105.869ZM17.4846 107.84C17.6351 107.098 17.3544 106.336 16.7594 105.869L15.5246 107.442L15.5246 107.442L17.4846 107.84ZM17.9934 116.823C17.0018 114.497 16.729 111.563 17.4846 107.84L15.5246 107.442C14.7094 111.458 14.966 114.821 16.1536 117.607L17.9934 116.823ZM23.3816 122.583C20.7647 121.048 18.9811 119.14 17.9934 116.823L16.1536 117.607C17.3413 120.393 19.46 122.602 22.3696 124.309L23.3816 122.583ZM48.1909 127.128C37.2427 127.128 28.7177 125.714 23.3816 122.583L22.3696 124.309C28.1886 127.722 37.1704 129.128 48.1909 129.128V127.128ZM50.1909 129.128C50.1909 128.023 49.2954 127.128 48.1909 127.128V129.128H50.1909ZM52.0031 133.741C50.8442 132.564 50.1909 131.083 50.1909 129.128H48.1909C48.1909 131.595 49.0418 133.584 50.5776 135.144L52.0031 133.741ZM57.6059 136.664C55.0678 135.965 53.2088 134.966 52.0031 133.741L50.5777 135.144C52.1135 136.705 54.3345 137.837 57.0747 138.592L57.6059 136.664ZM78.1557 137.014C69.9484 138.106 62.7042 138.069 57.6059 136.664L57.0747 138.592C62.555 140.102 70.1122 140.102 78.4195 138.997L78.1557 137.014ZM79.7372 137.492C79.3035 137.113 78.7271 136.938 78.1557 137.014L78.4195 138.997H78.4195L79.7372 137.492ZM80.4195 138.997C80.4195 138.42 80.1708 137.872 79.7372 137.492L78.4195 138.997H78.4195H80.4195ZM81.0561 139.858C80.7421 139.526 80.5736 139.277 80.4878 139.115C80.3959 138.942 80.4195 138.909 80.4195 138.997H78.4195C78.4195 139.649 78.8288 140.414 79.604 141.233L81.0561 139.858ZM83.9938 142.06C82.6337 141.257 81.6612 140.497 81.0561 139.858L79.604 141.233C80.3787 142.051 81.518 142.921 82.9769 143.782L83.9938 142.06ZM95.649 146.409C90.6974 145.28 86.702 143.659 83.9938 142.06L82.9769 143.782C85.8948 145.505 90.091 147.193 95.2044 148.359L95.649 146.409ZM133.272 143.329C119.019 148.907 105.538 148.664 95.649 146.409L95.2044 148.359C105.431 150.691 119.326 150.934 134.001 145.191L133.272 143.329ZM135.308 143.677C134.747 143.193 133.963 143.058 133.272 143.329L134.001 145.191L134.001 145.191L135.308 143.677ZM208.798 146.01C205.387 149.428 200.444 152.073 194.647 153.91L195.251 155.817C201.235 153.921 206.501 151.143 210.213 147.423L208.798 146.01ZM220.649 152.25C216.156 150.692 212.468 148.59 210.259 146.059L208.752 147.374C211.288 150.279 215.349 152.529 219.994 154.14L220.649 152.25ZM237.85 155.281C231.695 155.055 225.662 153.988 220.649 152.25L219.994 154.14C225.22 155.952 231.453 157.047 237.777 157.279L237.85 155.281ZM255.783 153.267C250.283 154.892 244.006 155.507 237.85 155.281L237.777 157.279C244.1 157.512 250.6 156.884 256.35 155.185L255.783 153.267ZM268.672 145.653C265.62 149.22 261.058 151.708 255.783 153.267L256.35 155.185C261.849 153.56 266.804 150.912 270.192 146.953L268.672 145.653ZM317.529 148.534C301.857 150.699 282.728 148.279 269.652 145.327L269.212 147.278C282.4 150.255 301.794 152.727 317.803 150.515L317.529 148.534ZM337.484 141.159C332.553 145.153 325.487 147.435 317.529 148.534L317.803 150.515C325.92 149.394 333.404 147.038 338.743 142.713L337.484 141.159ZM344.69 124.752C344.907 132.051 342.159 137.371 337.484 141.159L338.743 142.713C343.905 138.532 346.925 132.613 346.689 124.693L344.69 124.752ZM387.565 111.549C378.333 120.642 364.493 127.039 345.864 123.738L345.515 125.707C364.845 129.133 379.322 122.475 388.968 112.974L387.565 111.549ZM401.616 82.8475C401.566 90.2887 396.945 102.31 387.565 111.549L388.968 112.974C398.663 103.425 403.562 90.9169 403.616 82.8609L401.616 82.8475ZM396.606 61.784C401.663 69.2396 402.898 77.6395 401.646 82.61L403.586 83.0984C405.002 77.4744 403.575 68.4958 398.262 60.6615L396.606 61.784ZM368.915 46.6377C382.79 47.902 391.583 54.3774 396.606 61.784L398.262 60.6615C392.906 52.7641 383.574 45.9652 369.097 44.646L368.915 46.6377ZM338.392 19.5006C350.771 23.7971 362.604 31.7053 368.072 45.9992L369.94 45.2846C364.186 30.2438 351.751 22.0201 339.048 17.6112L338.392 19.5006ZM305.409 14.6697C313.056 14.5177 325.998 15.1987 338.392 19.5006L339.048 17.6112C326.344 13.2018 313.14 12.5156 305.37 12.6701L305.409 14.6697ZM265.999 2.05473C278.249 2.52564 290.139 6.099 304.893 14.5379L305.886 12.8019C290.921 4.24208 278.718 0.54221 266.076 0.0562086L265.999 2.05473ZM224.966 8.18153C241.149 4.21339 253.754 1.58399 265.999 2.05473L266.076 0.0562087C253.516 -0.426605 240.66 2.27396 224.49 6.23907L224.966 8.18153ZM190.68 1.03337C201.369 1.35962 212.058 4.0564 224.413 8.15934L225.043 6.26126C212.627 2.1381 201.72 -0.630578 190.742 -0.965701L190.68 1.03337ZM156.99 8.11248C169.327 2.74691 180.004 0.707472 190.68 1.03337L190.742 -0.965701C179.736 -1.30164 168.767 0.809591 156.192 6.27842L156.99 8.11248ZM113.636 1.71699C125.096 1.13681 137.846 3.36966 156.34 8.16346L156.842 6.22744C138.316 1.42537 125.317 -0.876944 113.535 -0.280455L113.636 1.71699ZM78.6328 12.1627C91.9878 5.69523 102.167 2.29756 113.636 1.71699L113.535 -0.280455C101.686 0.319327 91.2302 3.83994 77.7611 10.3626L78.6328 12.1627ZM46.7035 17.072C53.5638 13.4381 63.9685 12.0586 78.1826 12.2625L78.2113 10.2627C63.9507 10.0582 53.1042 11.4183 45.7673 15.3046L46.7035 17.072ZM39.0095 24.3488C40.7006 21.2963 43.2541 18.8991 46.7035 17.072L45.7673 15.3046C42.0244 17.2872 39.1644 19.9421 37.26 23.3796L39.0095 24.3488ZM36.4985 34.7694C36.5916 30.6689 37.4192 27.2193 39.0095 24.3488L37.26 23.3796C35.4776 26.5969 34.5977 30.3815 34.499 34.724L36.4985 34.7694ZM9.19881 49.3537C13.3266 43.5764 21.9129 38.7194 35.7109 35.724L35.2866 33.7695C21.309 36.8039 12.1292 41.8121 7.5715 48.191L9.19881 49.3537ZM9.32868 68.3236C5.39701 61.7058 5.10732 55.0802 9.19881 49.3537L7.57151 48.191C2.91462 54.7088 3.37271 62.2142 7.60924 69.3451L9.32868 68.3236ZM1.02034 87.7465C0.706248 82.0433 4.05785 76.467 9.27242 69.4297L7.6655 68.239C2.50273 75.2064 -1.33573 81.3361 -0.976634 87.8565L1.02034 87.7465ZM15.0499 107.067C5.38973 99.4001 1.33746 93.5047 1.02034 87.7465L-0.976634 87.8565C-0.608632 94.5386 4.08183 100.915 13.8066 108.634L15.0499 107.067ZM16.1536 117.607C15.024 114.957 14.7369 111.786 15.4125 108.027L13.444 107.674C12.7162 111.723 12.9981 115.305 14.3138 118.391L16.1536 117.607ZM22.3696 124.308C19.46 122.602 17.3413 120.393 16.1536 117.607L14.3138 118.391C15.7015 121.647 18.1557 124.155 21.3577 126.034L22.3696 124.308ZM47.2423 129.124C36.6504 129.045 28.0183 127.622 22.3696 124.308L21.3577 126.034C27.4787 129.624 36.5559 131.044 47.2274 131.124L47.2423 129.124ZM50.5777 135.144C49.2293 133.774 48.4148 132.08 48.2308 130.034L46.2389 130.214C46.4647 132.725 47.4819 134.85 49.1522 136.547L50.5777 135.144ZM51.3473 135.845C51.0743 135.621 50.8176 135.388 50.5777 135.144L49.1522 136.547C49.4448 136.844 49.7549 137.126 50.0811 137.393L51.3473 135.845ZM49.7979 136.218C48.8953 138.283 45.5173 143.183 38.5155 150.63L39.9726 152C46.9858 144.541 50.5784 139.426 51.6305 137.019L49.7979 136.218ZM38.5155 150.63C37.8082 151.382 37.0645 152.16 36.2833 152.963L37.7167 154.357C38.5056 153.547 39.2572 152.761 39.9726 152L38.5155 150.63ZM37.6466 154.423C37.9263 154.186 38.4493 153.923 39.4544 153.437L38.5827 151.637C37.6928 152.068 36.8758 152.454 36.3534 152.897L37.6466 154.423ZM39.4544 153.437C39.7103 153.313 39.9901 153.177 40.2911 153.029L39.4053 151.235C39.1124 151.38 38.8393 151.512 38.5828 151.637L39.4544 153.437ZM40.2911 153.029C43.5464 151.421 49.1333 148.339 57.246 140.185L55.8282 138.774C47.8861 146.757 42.4842 149.715 39.4053 151.235L40.2911 153.029ZM57.0747 138.592C56.9872 138.568 56.9002 138.544 56.8137 138.519L56.2605 140.441C56.3544 140.468 56.4487 140.494 56.5434 140.52L57.0747 138.592ZM77.5212 139.112C69.5649 140.101 62.3546 140.047 57.0747 138.592L56.5434 140.52C62.1946 142.077 69.7091 142.098 77.7677 141.097L77.5212 139.112ZM79.604 141.233C79.1226 140.725 78.7646 140.218 78.5742 139.737L76.7147 140.473C77.0333 141.278 77.5732 141.997 78.1519 142.608L79.604 141.233ZM82.9769 143.782C81.518 142.921 80.3787 142.051 79.604 141.233L78.1519 142.608C79.0961 143.605 80.4023 144.585 81.9601 145.505L82.9769 143.782ZM95.2044 148.359C90.091 147.193 85.8948 145.505 82.9769 143.782L81.9601 145.505C85.0877 147.351 89.4846 149.106 94.7598 150.309L95.2044 148.359ZM133.451 145.404C118.98 150.928 105.303 150.661 95.2044 148.359L94.7598 150.309C105.192 152.687 119.277 152.955 134.164 147.272L133.451 145.404ZM173.712 156.997C159.109 157.116 143.88 153.422 134.447 145.569L133.167 147.107C143.107 155.381 158.878 159.118 173.728 158.997L173.712 156.997ZM194.647 153.91C188.39 155.893 181.131 156.937 173.712 156.997L173.728 158.997C181.313 158.936 188.774 157.869 195.251 155.817L194.647 153.91ZM55.7849 138.195C54.3856 137.717 53.1475 137.123 52.0987 136.406L50.9701 138.057C52.197 138.896 53.6049 139.563 55.1374 140.088L55.7849 138.195ZM43.3254 150.238C46.4621 148.349 50.7206 145.272 56.1666 139.85L54.7556 138.433C49.415 143.75 45.2824 146.725 42.2936 148.525L43.3254 150.238ZM42.3957 150.783C42.694 150.613 43.0039 150.432 43.3254 150.238L42.2935 148.525C41.9861 148.71 41.69 148.884 41.4051 149.046L42.3957 150.783ZM47.9597 141.044C46.3865 143.201 44.1559 145.945 41.1602 149.242L42.6406 150.587C45.6727 147.249 47.951 144.45 49.5754 142.223L47.9597 141.044ZM50.3557 137.352C49.8617 138.28 49.0757 139.515 47.9597 141.044L49.5754 142.223C50.7233 140.65 51.5675 139.332 52.1212 138.291L50.3557 137.352ZM50.6284 136.808C50.5494 136.977 50.4585 137.159 50.3557 137.352L52.1212 138.291C52.2378 138.072 52.3446 137.86 52.4404 137.655L50.6284 136.808Z" fill="#333F72" mask="url(#path-1-inside-1_1_2554)"/>
</svg>
