<svg width="1007" height="99" viewBox="0 0 1007 99" fill="none" xmlns="http://www.w3.org/2000/svg">
<path d="M256.683 47.4658C256.499 47.8995 255.302 47.8995 255.117 47.4658C253.736 44.3578 254.012 41.1052 254.104 37.9249C254.196 34.8169 254.38 31.5643 255.209 28.5285C255.209 28.4562 255.486 28.4562 255.486 28.5285C256.499 31.5643 256.867 34.8169 257.144 37.9249C257.42 41.1052 257.881 44.3578 256.683 47.4658Z" fill="#E9DAC6"/>
<path d="M255.209 51.4411C255.394 51.0074 256.591 51.0797 256.775 51.4411C258.157 54.5491 257.881 57.8017 257.789 60.982C257.697 64.0901 257.512 67.3426 256.683 70.3784C256.683 70.4507 256.499 70.4507 256.407 70.3784C255.394 67.3426 255.025 64.0901 254.749 60.982C254.473 57.8017 254.104 54.6214 255.209 51.4411Z" fill="#E9DAC6"/>
<path d="M253.367 49.1284C253.827 49.2007 253.735 49.9234 253.275 49.9957C250.235 50.6462 247.103 50.4294 244.063 50.2848C241.115 50.2126 237.984 49.9957 235.036 49.4175C234.944 49.4175 234.944 49.2729 235.036 49.2729C238.076 48.767 241.208 48.6947 244.247 48.6224C247.287 48.5501 250.419 48.3333 253.367 49.1284Z" fill="#E9DAC6"/>
<path d="M258.525 49.851C258.157 49.7064 258.157 49.0559 258.617 48.9114C261.657 48.2608 264.789 48.4777 267.829 48.6222C270.868 48.7668 274 48.9836 276.856 49.4896C276.948 49.4896 276.948 49.6342 276.856 49.6342C273.908 50.1401 270.684 50.2847 267.737 50.357C264.605 50.4292 261.473 50.5738 258.525 49.851Z" fill="#E9DAC6"/>
<path d="M751.791 47.4658C751.607 47.8995 750.409 47.8995 750.225 47.4658C748.843 44.3578 749.12 41.1052 749.212 37.9249C749.304 34.8169 749.488 31.5643 750.317 28.5285C750.317 28.4562 750.594 28.4562 750.594 28.5285C751.607 31.5643 751.975 34.8169 752.252 37.9249C752.528 41.1052 752.989 44.3578 751.791 47.4658Z" fill="#E9DAC6"/>
<path d="M750.317 51.4411C750.502 51.0074 751.699 51.0797 751.883 51.4411C753.265 54.5491 752.989 57.8017 752.897 60.982C752.804 64.0901 752.62 67.3426 751.791 70.3784C751.791 70.4507 751.607 70.4507 751.515 70.3784C750.502 67.3426 750.133 64.0901 749.857 60.982C749.58 57.8017 749.212 54.6214 750.317 51.4411Z" fill="#E9DAC6"/>
<path d="M748.475 49.1284C748.936 49.2007 748.844 49.9234 748.383 49.9957C745.343 50.6462 742.211 50.4294 739.172 50.2848C736.224 50.2126 733.092 49.9957 730.144 49.4175C730.052 49.4175 730.052 49.2729 730.144 49.2729C733.184 48.767 736.316 48.6947 739.356 48.6224C742.396 48.5501 745.527 48.3333 748.475 49.1284Z" fill="#E9DAC6"/>
<path d="M753.633 49.851C753.265 49.7064 753.265 49.0559 753.726 48.9114C756.765 48.2608 759.897 48.4777 762.937 48.6222C765.977 48.7668 769.109 48.9836 771.964 49.4896C772.056 49.4896 772.056 49.6342 771.964 49.6342C769.017 50.1401 765.793 50.2847 762.845 50.357C759.713 50.4292 756.581 50.5738 753.633 49.851Z" fill="#E9DAC6"/>
<path d="M-148.882 31.7397H-183.847V26.9145H-148.882V31.7397ZM-148.882 40.1314H-183.847V35.2362H-148.882V40.1314ZM-143.777 23.2082H-188.742V43.8377H-143.777V23.2082ZM-144.476 60.5511C-146.295 64.4672 -148.882 67.8938 -152.029 70.8309C-154.896 67.8938 -157.274 64.3973 -158.882 60.5511H-144.476ZM-186.295 69.5022H-173.637V73.768C-177.973 74.2575 -182.309 74.677 -186.295 75.0966V69.5022ZM-186.295 60.6909H-173.637V65.5861H-186.295V60.6909ZM-173.637 52.0895V56.7748H-186.295V52.0895H-173.637ZM-141.26 56.2853L-142.169 56.4252H-166.225V60.5511H-160.211L-163.218 61.4602C-161.33 66.1455 -158.742 70.2714 -155.525 73.768C-159.511 76.775 -164.057 79.0127 -168.672 80.4114V52.0895H-135.945V47.7538H-197.064V52.0895H-191.05V75.5861C-193.498 75.8659 -195.736 76.0757 -197.694 76.2155L-197.204 80.8309C-190.701 80.0617 -182.169 79.0827 -173.637 78.0337V84.817H-168.672V80.4813C-167.763 81.3904 -166.505 83.2086 -165.945 84.3974C-161.05 82.7191 -156.295 80.3414 -152.029 77.0547C-147.903 80.4813 -143.008 83.1386 -137.413 84.7471C-136.784 83.5582 -135.385 81.6701 -134.267 80.6911C-139.651 79.3624 -144.406 77.0547 -148.393 73.9777C-143.917 69.642 -140.281 64.1875 -138.113 57.5441L-141.26 56.2853ZM-87.9026 67.4043V74.5372H-105.106V67.4043H-87.9026ZM-83.2872 78.3834V63.628H-109.721V81.8799H-105.106V78.3834H-83.2872ZM-69.0214 54.7468H-123.567V84.817H-118.602V59.1525H-74.1962V78.5232C-74.1962 79.5023 -74.406 79.8519 -75.5948 79.8519C-76.8536 79.9918 -80.7697 79.9918 -85.2452 79.8519C-84.5459 81.1806 -83.8466 83.2785 -83.5669 84.6771C-77.7627 84.6771 -74.1263 84.6771 -71.8186 83.9079C-69.6507 82.9988 -69.0214 81.4603 -69.0214 78.6631V54.7468ZM-82.9375 46.565H-110.21V39.7817H-82.9375V46.565ZM-115.176 36.0754V50.3412H-77.7627V36.0754H-115.176ZM-94.2663 27.6138V20.9704H-99.5111V27.6138H-126.644V32.1593H-66.364V27.6138H-94.2663ZM1.95816 55.0266C1.95816 40.8307 -8.46149 29.2921 -24.8252 29.2921C-41.8883 29.2921 -55.3849 42.5789 -55.3849 57.7539C-55.3849 69.2924 -49.1611 76.4253 -42.9373 76.4253C-36.4337 76.4253 -30.9092 69.0826 -26.6434 54.6769C-24.6854 48.1734 -23.3567 41.0405 -22.4476 34.5369C-10.5594 35.5159 -3.77615 44.2573 -3.77615 54.8168C-3.77615 66.9148 -12.5874 73.5582 -21.5385 75.5861C-23.1469 75.9358 -25.3148 76.2855 -27.5525 76.4952L-24.2658 81.6701C-7.69226 79.5023 1.95816 69.712 1.95816 55.0266ZM-49.9303 57.2643C-49.9303 47.7538 -41.6785 36.2852 -28.2518 34.6068C-29.0211 41.0405 -30.4197 47.6839 -32.168 53.4881C-35.7344 65.3064 -39.4407 69.9917 -42.7275 69.9917C-45.8743 69.9917 -49.9303 66.0756 -49.9303 57.2643ZM62.6579 64.607C59.0914 67.0546 54.8257 69.5721 51.1893 71.3903C48.6018 69.4323 46.5039 67.1945 44.8256 64.607H62.6579ZM28.6716 54.1874H58.1124V60.3413H28.6716V54.1874ZM28.6716 44.3272H58.1124V50.2014H28.6716V44.3272ZM45.8046 40.0614V33.1383H40.5598V40.0614H26.1541C33.0773 35.5159 39.2311 30.2711 43.0773 25.5858C47.3431 30.5509 53.9865 35.7257 60.9096 40.0614H45.8046ZM67.0635 61.4602C65.9446 62.2993 64.6159 63.2784 63.2173 64.2574V41.46C66.3642 43.2782 69.5111 44.9566 72.5181 46.2852C73.4272 44.8866 74.6859 42.9985 75.8748 41.7398C65.0355 37.6838 52.9375 29.6418 45.3151 20.9004H40.2102C34.6157 28.6627 22.9373 37.4041 11.1191 42.509C12.238 43.6279 13.5666 45.516 14.196 46.7048C17.3429 45.2363 20.5597 43.558 23.5667 41.6698V78.6631C20.6296 78.9428 17.9723 79.1526 15.6645 79.3624L16.4338 84.1876C24.4059 83.4883 35.8045 82.3694 46.7137 81.1806L46.6438 76.5652L28.6716 78.2435V64.607H39.5808C45.5249 75.726 56.6439 82.2296 71.6789 84.817C72.3782 83.4883 73.7069 81.3904 74.8258 80.3414C67.1334 79.2225 60.4201 77.1246 55.0355 73.9777C60.2802 71.3204 66.2943 67.8239 70.9796 64.4672L67.0635 61.4602ZM81.6091 61.6L86.714 66.9148C87.8329 65.4462 89.4413 63.2084 90.8399 61.3203C94.4064 56.9846 100.211 49.2923 103.497 45.3062C105.875 42.2992 107.274 41.7398 110.211 45.0964C113.427 48.6629 118.812 55.3762 123.358 60.4811C128.113 65.9357 134.407 73.2085 139.721 78.2435L144.197 73.2085C137.903 67.5441 130.98 60.2014 126.714 55.586C122.309 50.8307 116.924 43.9076 112.728 39.5719C108.113 34.8866 104.476 35.5859 100.35 40.3411C96.2246 45.2363 90.3504 53.2783 86.6441 56.9846C84.7559 58.9427 83.3573 60.3413 81.6091 61.6ZM126.714 32.2991L122.728 34.0474C125.036 37.2642 127.484 41.6698 129.232 45.3062L133.358 43.488C131.749 40.1314 128.463 34.8866 126.714 32.2991ZM135.735 28.7327L131.819 30.5509C134.197 33.6977 136.714 37.9635 138.602 41.6698L142.589 39.7118C140.98 36.425 137.554 31.1802 135.735 28.7327ZM177.554 56.635L176.854 52.0195L168.743 54.537V40.2712H175.875V35.2362H168.743V21.0403H163.917V35.2362H158.533C159.022 32.1593 159.512 28.9425 159.861 25.7956L155.316 25.0264C154.477 33.5579 153.148 42.3691 150.491 48.3132C151.61 48.7328 153.568 49.9916 154.477 50.6209C155.735 47.7538 156.714 44.1873 157.554 40.2712H163.917V55.8657C159.022 57.4042 154.547 58.593 150.98 59.572L152.379 64.5371C155.805 63.4882 159.791 62.2294 163.917 60.9707V84.8869H168.743V59.4322L177.554 56.635ZM187.274 32.6488C188.463 29.2222 189.512 25.6557 190.351 21.9494L185.596 20.9704C183.288 31.5299 179.092 41.5999 173.358 47.8237C174.407 48.523 176.505 49.9916 177.344 50.8307C180.351 47.2643 183.008 42.6489 185.316 37.5439H191.33C188.113 48.7328 181.889 60.4112 174.477 66.2155C175.945 66.9847 177.624 68.1735 178.603 69.2225C186.225 62.5791 192.659 49.502 195.806 37.5439H201.54C197.904 55.0965 190.351 72.2994 178.882 80.5512C180.421 81.3205 182.239 82.5792 183.218 83.6981C194.827 74.4673 202.519 55.8657 206.016 37.5439H209.372C207.974 65.2364 206.435 75.5861 204.197 78.0337C203.428 78.9428 202.729 79.2225 201.61 79.2225C200.211 79.2225 197.414 79.1526 194.267 78.8729C195.176 80.2715 195.666 82.4393 195.736 83.9778C198.813 84.1876 201.82 84.2575 203.708 83.9778C205.806 83.768 207.204 83.1386 208.533 81.3205C211.33 77.8239 212.869 66.9847 214.407 35.3061C214.477 34.6768 214.477 32.6488 214.477 32.6488H187.274Z" fill="#E9DAC6"/>
<path d="M346.226 31.7395H311.261V26.9143H346.226V31.7395ZM346.226 40.1312H311.261V35.236H346.226V40.1312ZM351.331 23.208H306.366V43.8375H351.331V23.208ZM350.632 60.5509C348.814 64.467 346.226 67.8936 343.079 70.8307C340.212 67.8936 337.835 64.3971 336.226 60.5509H350.632ZM308.813 69.502H321.471V73.7678C317.135 74.2573 312.8 74.6769 308.813 75.0965V69.502ZM308.813 60.6908H321.471V65.5859H308.813V60.6908ZM321.471 52.0893V56.7746H308.813V52.0893H321.471ZM353.849 56.2851L352.94 56.425H328.884V60.5509H334.898L331.891 61.46C333.779 66.1453 336.366 70.2712 339.583 73.7678C335.597 76.7748 331.051 79.0126 326.436 80.4112V52.0893H359.164V47.7536H298.044V52.0893H304.058V75.586C301.611 75.8657 299.373 76.0755 297.415 76.2153L297.904 80.8308C304.408 80.0615 312.939 79.0825 321.471 78.0335V84.8168H326.436V80.4811C327.345 81.3902 328.604 83.2084 329.163 84.3972C334.058 82.7189 338.814 80.3412 343.079 77.0545C347.205 80.4811 352.101 83.1385 357.695 84.7469C358.324 83.558 359.723 81.6699 360.842 80.6909C355.457 79.3622 350.702 77.0545 346.716 73.9776C351.191 69.6419 354.828 64.1873 356.996 57.5439L353.849 56.2851ZM407.206 67.4041V74.537H390.003V67.4041H407.206ZM411.821 78.3832V63.6278H385.387V81.8797H390.003V78.3832H411.821ZM426.087 54.7467H371.541V84.8168H376.506V59.1523H420.912V78.523C420.912 79.5021 420.702 79.8517 419.514 79.8517C418.255 79.9916 414.339 79.9916 409.863 79.8517C410.562 81.1804 411.262 83.2783 411.541 84.6769C417.346 84.6769 420.982 84.6769 423.29 83.9077C425.458 82.9986 426.087 81.4601 426.087 78.6629V54.7467ZM412.171 46.5648H384.898V39.7815H412.171V46.5648ZM379.933 36.0752V50.341H417.346V36.0752H379.933ZM400.842 27.6136V20.9702H395.597V27.6136H368.464V32.1591H428.744V27.6136H400.842ZM497.067 55.0264C497.067 40.8305 486.647 29.2919 470.283 29.2919C453.22 29.2919 439.724 42.5787 439.724 57.7537C439.724 69.2922 445.947 76.4251 452.171 76.4251C458.675 76.4251 464.199 69.0824 468.465 54.6767C470.423 48.1732 471.752 41.0403 472.661 34.5367C484.549 35.5158 491.332 44.2571 491.332 54.8166C491.332 66.9146 482.521 73.558 473.57 75.586C471.961 75.9356 469.794 76.2853 467.556 76.4951L470.843 81.6699C487.416 79.5021 497.067 69.7118 497.067 55.0264ZM445.178 57.2642C445.178 47.7536 453.43 36.285 466.857 34.6067C466.087 41.0403 464.689 47.6837 462.94 53.4879C459.374 65.3062 455.668 69.9915 452.381 69.9915C449.234 69.9915 445.178 66.0754 445.178 57.2642ZM557.766 64.6069C554.2 67.0544 549.934 69.5719 546.298 71.3901C543.71 69.4321 541.612 67.1943 539.934 64.6069H557.766ZM523.78 54.1872H553.221V60.3411H523.78V54.1872ZM523.78 44.327H553.221V50.2012H523.78V44.327ZM540.913 40.0612V33.1381H535.668V40.0612H521.263C528.186 35.5158 534.34 30.271 538.186 25.5856C542.451 30.5507 549.095 35.7255 556.018 40.0612H540.913ZM562.172 61.46C561.053 62.2992 559.724 63.2782 558.326 64.2572V41.4598C561.473 43.278 564.619 44.9564 567.626 46.2851C568.536 44.8864 569.794 42.9983 570.983 41.7396C560.144 37.6836 548.046 29.6416 540.424 20.9003H535.319C529.724 28.6626 518.046 37.4039 506.227 42.5088C507.346 43.6277 508.675 45.5158 509.304 46.7046C512.451 45.2361 515.668 43.5578 518.675 41.6696V78.6629C515.738 78.9426 513.081 79.1524 510.773 79.3622L511.542 84.1874C519.514 83.4881 530.913 82.3692 541.822 81.1804L541.752 76.565L523.78 78.2433V64.6069H534.689C540.633 75.7258 551.752 82.2294 566.787 84.8168C567.487 83.4881 568.815 81.3902 569.934 80.3412C562.242 79.2224 555.529 77.1244 550.144 73.9776C555.389 71.3202 561.403 67.8237 566.088 64.467L562.172 61.46ZM576.717 61.5999L581.822 66.9146C582.941 65.446 584.55 63.2083 585.948 61.3201C589.515 56.9844 595.319 49.2921 598.606 45.306C600.983 42.299 602.382 41.7396 605.319 45.0962C608.536 48.6627 613.921 55.376 618.466 60.481C623.221 65.9355 629.515 73.2083 634.83 78.2433L639.305 73.2083C633.012 67.5439 626.088 60.2012 621.823 55.5858C617.417 50.8305 612.032 43.9074 607.837 39.5717C603.221 34.8864 599.585 35.5857 595.459 40.341C591.333 45.2361 585.459 53.2781 581.752 56.9844C579.864 58.9425 578.466 60.3411 576.717 61.5999ZM621.823 32.2989L617.837 34.0472C620.144 37.264 622.592 41.6696 624.34 45.306L628.466 43.4878C626.858 40.1312 623.571 34.8864 621.823 32.2989ZM630.844 28.7325L626.928 30.5507C629.305 33.6976 631.823 37.9633 633.711 41.6696L637.697 39.7116C636.089 36.4248 632.662 31.1801 630.844 28.7325ZM672.662 56.6348L671.963 52.0194L663.851 54.5369V40.271H670.984V35.236H663.851V21.0401H659.026V35.236H653.641C654.131 32.1591 654.62 28.9423 654.97 25.7954L650.424 25.0262C649.585 33.5577 648.256 42.3689 645.599 48.313C646.718 48.7326 648.676 49.9914 649.585 50.6208C650.844 47.7536 651.823 44.1871 652.662 40.271H659.026V55.8655C654.131 57.404 649.655 58.5928 646.089 59.5719L647.487 64.5369C650.914 63.488 654.9 62.2292 659.026 60.9705V84.8867H663.851V59.432L672.662 56.6348ZM682.383 32.6486C683.571 29.222 684.62 25.6555 685.459 21.9492L680.704 20.9702C678.396 31.5297 674.201 41.5997 668.466 47.8235C669.515 48.5228 671.613 49.9914 672.452 50.8305C675.459 47.2641 678.117 42.6487 680.424 37.5437H686.438C683.222 48.7326 676.998 60.411 669.585 66.2153C671.054 66.9845 672.732 68.1733 673.711 69.2223C681.334 62.5789 687.767 49.5019 690.914 37.5437H696.648C693.012 55.0963 685.459 72.2992 673.991 80.551C675.529 81.3203 677.348 82.579 678.327 83.6979C689.935 74.4671 697.627 55.8655 701.124 37.5437H704.481C703.082 65.2362 701.543 75.586 699.306 78.0335C698.536 78.9426 697.837 79.2224 696.718 79.2224C695.32 79.2224 692.522 79.1524 689.376 78.8727C690.285 80.2713 690.774 82.4392 690.844 83.9776C693.921 84.1874 696.928 84.2574 698.816 83.9776C700.914 83.7678 702.313 83.1385 703.641 81.3203C706.439 77.8237 707.977 66.9845 709.516 35.306C709.586 34.6766 709.586 32.6486 709.586 32.6486H682.383Z" fill="#E9DAC6"/>
<path d="M841.334 31.7395H806.369V26.9143H841.334V31.7395ZM841.334 40.1312H806.369V35.236H841.334V40.1312ZM846.439 23.208H801.474V43.8375H846.439V23.208ZM845.74 60.5509C843.922 64.467 841.334 67.8936 838.187 70.8307C835.32 67.8936 832.943 64.3971 831.334 60.5509H845.74ZM803.921 69.502H816.579V73.7678C812.243 74.2573 807.907 74.6769 803.921 75.0965V69.502ZM803.921 60.6908H816.579V65.5859H803.921V60.6908ZM816.579 52.0893V56.7746H803.921V52.0893H816.579ZM848.957 56.2851L848.048 56.425H823.991V60.5509H830.006L826.998 61.46C828.887 66.1453 831.474 70.2712 834.691 73.7678C830.705 76.7748 826.159 79.0126 821.544 80.4112V52.0893H854.271V47.7536H793.152V52.0893H799.166V75.586C796.719 75.8657 794.481 76.0755 792.523 76.2153L793.012 80.8308C799.516 80.0615 808.047 79.0825 816.579 78.0335V84.8168H821.544V80.4811C822.453 81.3902 823.712 83.2084 824.271 84.3972C829.166 82.7189 833.922 80.3412 838.187 77.0545C842.313 80.4811 847.208 83.1385 852.803 84.7469C853.432 83.558 854.831 81.6699 855.95 80.6909C850.565 79.3622 845.81 77.0545 841.824 73.9776C846.299 69.6419 849.936 64.1873 852.104 57.5439L848.957 56.2851ZM902.314 67.4041V74.537H885.111V67.4041H902.314ZM906.929 78.3832V63.6278H880.495V81.8797H885.111V78.3832H906.929ZM921.195 54.7467H866.649V84.8168H871.614V59.1523H916.02V78.523C916.02 79.5021 915.81 79.8517 914.621 79.8517C913.363 79.9916 909.447 79.9916 904.971 79.8517C905.67 81.1804 906.37 83.2783 906.649 84.6769C912.454 84.6769 916.09 84.6769 918.398 83.9077C920.566 82.9986 921.195 81.4601 921.195 78.6629V54.7467ZM907.279 46.5648H880.006V39.7815H907.279V46.5648ZM875.041 36.0752V50.341H912.454V36.0752H875.041ZM895.95 27.6136V20.9702H890.705V27.6136H863.572V32.1591H923.852V27.6136H895.95ZM992.174 55.0264C992.174 40.8305 981.755 29.2919 965.391 29.2919C948.328 29.2919 934.831 42.5787 934.831 57.7537C934.831 69.2922 941.055 76.4251 947.279 76.4251C953.783 76.4251 959.307 69.0824 963.573 54.6767C965.531 48.1732 966.86 41.0403 967.769 34.5367C979.657 35.5158 986.44 44.2571 986.44 54.8166C986.44 66.9146 977.629 73.558 968.678 75.586C967.069 75.9356 964.902 76.2853 962.664 76.4951L965.951 81.6699C982.524 79.5021 992.174 69.7118 992.174 55.0264ZM940.286 57.2642C940.286 47.7536 948.538 36.285 961.964 34.6067C961.195 41.0403 959.797 47.6837 958.048 53.4879C954.482 65.3062 950.776 69.9915 947.489 69.9915C944.342 69.9915 940.286 66.0754 940.286 57.2642ZM1052.87 64.6069C1049.31 67.0544 1045.04 69.5719 1041.41 71.3901C1038.82 69.4321 1036.72 67.1943 1035.04 64.6069H1052.87ZM1018.89 54.1872H1048.33V60.3411H1018.89V54.1872ZM1018.89 44.327H1048.33V50.2012H1018.89V44.327ZM1036.02 40.0612V33.1381H1030.78V40.0612H1016.37C1023.29 35.5158 1029.45 30.271 1033.29 25.5856C1037.56 30.5507 1044.2 35.7255 1051.13 40.0612H1036.02ZM1057.28 61.46C1056.16 62.2992 1054.83 63.2782 1053.43 64.2572V41.4598C1056.58 43.278 1059.73 44.9564 1062.73 46.2851C1063.64 44.8864 1064.9 42.9983 1066.09 41.7396C1055.25 37.6836 1043.15 29.6416 1035.53 20.9003H1030.43C1024.83 28.6626 1013.15 37.4039 1001.34 42.5088C1002.45 43.6277 1003.78 45.5158 1004.41 46.7046C1007.56 45.2361 1010.78 43.5578 1013.78 41.6696V78.6629C1010.85 78.9426 1008.19 79.1524 1005.88 79.3622L1006.65 84.1874C1014.62 83.4881 1026.02 82.3692 1036.93 81.1804L1036.86 76.565L1018.89 78.2433V64.6069H1029.8C1035.74 75.7258 1046.86 82.2294 1061.9 84.8168C1062.59 83.4881 1063.92 81.3902 1065.04 80.3412C1057.35 79.2224 1050.64 77.1244 1045.25 73.9776C1050.5 71.3202 1056.51 67.8237 1061.2 64.467L1057.28 61.46ZM1071.83 61.5999L1076.93 66.9146C1078.05 65.446 1079.66 63.2083 1081.06 61.3201C1084.62 56.9844 1090.43 49.2921 1093.71 45.306C1096.09 42.299 1097.49 41.7396 1100.43 45.0962C1103.64 48.6627 1109.03 55.376 1113.57 60.481C1118.33 65.9355 1124.62 73.2083 1129.94 78.2433L1134.41 73.2083C1128.12 67.5439 1121.2 60.2012 1116.93 55.5858C1112.52 50.8305 1107.14 43.9074 1102.94 39.5717C1098.33 34.8864 1094.69 35.5857 1090.57 40.341C1086.44 45.2361 1080.57 53.2781 1076.86 56.9844C1074.97 58.9425 1073.57 60.3411 1071.83 61.5999ZM1116.93 32.2989L1112.94 34.0472C1115.25 37.264 1117.7 41.6696 1119.45 45.306L1123.57 43.4878C1121.97 40.1312 1118.68 34.8864 1116.93 32.2989ZM1125.95 28.7325L1122.04 30.5507C1124.41 33.6976 1126.93 37.9633 1128.82 41.6696L1132.8 39.7116C1131.2 36.4248 1127.77 31.1801 1125.95 28.7325ZM1167.77 56.6348L1167.07 52.0194L1158.96 54.5369V40.271H1166.09V35.236H1158.96V21.0401H1154.13V35.236H1148.75C1149.24 32.1591 1149.73 28.9423 1150.08 25.7954L1145.53 25.0262C1144.69 33.5577 1143.36 42.3689 1140.71 48.313C1141.83 48.7326 1143.78 49.9914 1144.69 50.6208C1145.95 47.7536 1146.93 44.1871 1147.77 40.271H1154.13V55.8655C1149.24 57.404 1144.76 58.5928 1141.2 59.5719L1142.6 64.5369C1146.02 63.488 1150.01 62.2292 1154.13 60.9705V84.8867H1158.96V59.432L1167.77 56.6348ZM1177.49 32.6486C1178.68 29.222 1179.73 25.6555 1180.57 21.9492L1175.81 20.9702C1173.5 31.5297 1169.31 41.5997 1163.57 47.8235C1164.62 48.5228 1166.72 49.9914 1167.56 50.8305C1170.57 47.2641 1173.22 42.6487 1175.53 37.5437H1181.55C1178.33 48.7326 1172.11 60.411 1164.69 66.2153C1166.16 66.9845 1167.84 68.1733 1168.82 69.2223C1176.44 62.5789 1182.88 49.5019 1186.02 37.5437H1191.76C1188.12 55.0963 1180.57 72.2992 1169.1 80.551C1170.64 81.3203 1172.46 82.579 1173.43 83.6979C1185.04 74.4671 1192.74 55.8655 1196.23 37.5437H1199.59C1198.19 65.2362 1196.65 75.586 1194.41 78.0335C1193.64 78.9426 1192.95 79.2224 1191.83 79.2224C1190.43 79.2224 1187.63 79.1524 1184.48 78.8727C1185.39 80.2713 1185.88 82.4392 1185.95 83.9776C1189.03 84.1874 1192.04 84.2574 1193.92 83.9776C1196.02 83.7678 1197.42 83.1385 1198.75 81.3203C1201.55 77.8237 1203.09 66.9845 1204.62 35.306C1204.69 34.6766 1204.69 32.6486 1204.69 32.6486H1177.49Z" fill="#E9DAC6"/>
</svg>
