<svg width="404" height="158" viewBox="0 0 404 158" fill="none" xmlns="http://www.w3.org/2000/svg">
<path d="M269.099 145.191C298.448 156.677 324.68 144.217 324.68 138.997C341.295 141.208 354.909 138.997 354.909 129.128C376.95 129.128 390.836 123.505 387.575 107.442C407.575 91.7444 404.303 83.4691 393.426 68.8897C401.944 55.2769 395.113 41.5171 366.61 35.558C366.61 17.763 353.35 11.8208 324.68 12.2661C297.76 -0.803299 283.776 -1.45686 246.425 8.25023C221.482 -2.68689 203.356 -0.0576172 178.413 8.25023C145.779 0.237518 127.697 -2.40018 97.9664 14.6756C82.7518 14.3277 45.5424 17.2539 34.8086 46.5847C6.33527 48.8335 -1.11716 72.8203 1.48312 82.7261C1.48312 97.5848 19.9574 131.135 58.4743 123.505C56.1341 155.311 107.88 151.215 134.046 145.191C146.234 160.451 185.239 156.837 193.527 145.191C207.179 160.452 250.313 161.414 269.099 145.191Z" stroke="#333F72" stroke-width="2" stroke-linecap="round" stroke-linejoin="round"/>
</svg>
